ISO-10303-21;
HEADER;
/* Generated by software containing ST-Developer
 * from STEP Tools, Inc. (www.steptools.com) 
 */

FILE_DESCRIPTION(
/* description */ (''),
/* implementation_level */ '2;1');

FILE_NAME(
/* name */ 'Base.step',
/* time_stamp */ '2026-10-01T17:24:20+10:00',
/* author */ (''),
/* organization */ (''),
/* preprocessor_version */ 'ST-DEVELOPER v20.2',
/* originating_system */ 'Autodesk Translation Framework v15.15.0.0',
/* authorisation */ '');

FILE_SCHEMA (('AUTOMOTIVE_DESIGN { 1 0 10303 214 3 1 1 }'));
ENDSEC;

DATA;
#10=MECHANICAL_DESIGN_GEOMETRIC_PRESENTATION_REPRESENTATION('',(#17),#2341);
#11=ITEM_DEFINED_TRANSFORMATION($,$,#1425,#1548);
#12=(
REPRESENTATION_RELATIONSHIP($,$,#2352,#2351)
REPRESENTATION_RELATIONSHIP_WITH_TRANSFORMATION(#11)
SHAPE_REPRESENTATION_RELATIONSHIP()
);
#13=CONTEXT_DEPENDENT_SHAPE_REPRESENTATION(#12,#2350);
#14=NEXT_ASSEMBLY_USAGE_OCCURRENCE('OpenIEMA Case:1','OpenIEMA Case:1',
'OpenIEMA Case:1',#2354,#2355,'OpenIEMA Case:1');
#15=SHAPE_REPRESENTATION_RELATIONSHIP('SRR','None',#2352,#16);
#16=ADVANCED_BREP_SHAPE_REPRESENTATION('',(#18),#2340);
#17=STYLED_ITEM('',(#2365),#18);
#18=MANIFOLD_SOLID_BREP('Base',#1411);
#19=FACE_BOUND('',#192,.T.);
#20=FACE_BOUND('',#194,.T.);
#21=FACE_BOUND('',#213,.T.);
#22=FACE_BOUND('',#217,.T.);
#23=FACE_BOUND('',#218,.T.);
#24=FACE_BOUND('',#219,.T.);
#25=FACE_BOUND('',#224,.T.);
#26=FACE_BOUND('',#233,.T.);
#27=FACE_BOUND('',#240,.T.);
#28=FACE_BOUND('',#243,.T.);
#29=FACE_BOUND('',#261,.T.);
#30=FACE_BOUND('',#263,.T.);
#31=FACE_BOUND('',#264,.T.);
#32=FACE_BOUND('',#265,.T.);
#33=FACE_BOUND('',#267,.T.);
#34=FACE_BOUND('',#268,.T.);
#35=FACE_BOUND('',#269,.T.);
#36=FACE_BOUND('',#271,.T.);
#37=FACE_BOUND('',#272,.T.);
#38=FACE_BOUND('',#277,.T.);
#39=FACE_BOUND('',#280,.T.);
#40=FACE_BOUND('',#281,.T.);
#41=FACE_BOUND('',#282,.T.);
#42=FACE_BOUND('',#284,.T.);
#43=FACE_BOUND('',#285,.T.);
#44=FACE_BOUND('',#286,.T.);
#45=FACE_BOUND('',#292,.T.);
#46=FACE_BOUND('',#295,.T.);
#47=FACE_BOUND('',#296,.T.);
#48=FACE_BOUND('',#297,.T.);
#49=PLANE('',#1429);
#50=PLANE('',#1433);
#51=PLANE('',#1434);
#52=PLANE('',#1439);
#53=PLANE('',#1445);
#54=PLANE('',#1449);
#55=PLANE('',#1453);
#56=PLANE('',#1457);
#57=PLANE('',#1458);
#58=PLANE('',#1459);
#59=PLANE('',#1460);
#60=PLANE('',#1461);
#61=PLANE('',#1462);
#62=PLANE('',#1463);
#63=PLANE('',#1464);
#64=PLANE('',#1465);
#65=PLANE('',#1466);
#66=PLANE('',#1467);
#67=PLANE('',#1468);
#68=PLANE('',#1469);
#69=PLANE('',#1470);
#70=PLANE('',#1471);
#71=PLANE('',#1472);
#72=PLANE('',#1473);
#73=PLANE('',#1474);
#74=PLANE('',#1475);
#75=PLANE('',#1476);
#76=PLANE('',#1477);
#77=PLANE('',#1478);
#78=PLANE('',#1479);
#79=PLANE('',#1480);
#80=PLANE('',#1481);
#81=PLANE('',#1482);
#82=PLANE('',#1483);
#83=PLANE('',#1484);
#84=PLANE('',#1485);
#85=PLANE('',#1486);
#86=PLANE('',#1487);
#87=PLANE('',#1492);
#88=PLANE('',#1493);
#89=PLANE('',#1494);
#90=PLANE('',#1495);
#91=PLANE('',#1496);
#92=PLANE('',#1497);
#93=PLANE('',#1498);
#94=PLANE('',#1499);
#95=PLANE('',#1518);
#96=PLANE('',#1522);
#97=PLANE('',#1523);
#98=PLANE('',#1524);
#99=PLANE('',#1525);
#100=PLANE('',#1529);
#101=PLANE('',#1533);
#102=PLANE('',#1534);
#103=PLANE('',#1539);
#104=PLANE('',#1540);
#105=PLANE('',#1542);
#106=PLANE('',#1545);
#107=PLANE('',#1547);
#108=FACE_OUTER_BOUND('',#188,.T.);
#109=FACE_OUTER_BOUND('',#189,.T.);
#110=FACE_OUTER_BOUND('',#190,.T.);
#111=FACE_OUTER_BOUND('',#191,.T.);
#112=FACE_OUTER_BOUND('',#193,.T.);
#113=FACE_OUTER_BOUND('',#195,.T.);
#114=FACE_OUTER_BOUND('',#196,.T.);
#115=FACE_OUTER_BOUND('',#197,.T.);
#116=FACE_OUTER_BOUND('',#198,.T.);
#117=FACE_OUTER_BOUND('',#199,.T.);
#118=FACE_OUTER_BOUND('',#200,.T.);
#119=FACE_OUTER_BOUND('',#201,.T.);
#120=FACE_OUTER_BOUND('',#202,.T.);
#121=FACE_OUTER_BOUND('',#203,.T.);
#122=FACE_OUTER_BOUND('',#204,.T.);
#123=FACE_OUTER_BOUND('',#205,.T.);
#124=FACE_OUTER_BOUND('',#206,.T.);
#125=FACE_OUTER_BOUND('',#207,.T.);
#126=FACE_OUTER_BOUND('',#208,.T.);
#127=FACE_OUTER_BOUND('',#209,.T.);
#128=FACE_OUTER_BOUND('',#210,.T.);
#129=FACE_OUTER_BOUND('',#211,.T.);
#130=FACE_OUTER_BOUND('',#212,.T.);
#131=FACE_OUTER_BOUND('',#214,.T.);
#132=FACE_OUTER_BOUND('',#215,.T.);
#133=FACE_OUTER_BOUND('',#216,.T.);
#134=FACE_OUTER_BOUND('',#220,.T.);
#135=FACE_OUTER_BOUND('',#221,.T.);
#136=FACE_OUTER_BOUND('',#222,.T.);
#137=FACE_OUTER_BOUND('',#223,.T.);
#138=FACE_OUTER_BOUND('',#225,.T.);
#139=FACE_OUTER_BOUND('',#226,.T.);
#140=FACE_OUTER_BOUND('',#227,.T.);
#141=FACE_OUTER_BOUND('',#228,.T.);
#142=FACE_OUTER_BOUND('',#229,.T.);
#143=FACE_OUTER_BOUND('',#230,.T.);
#144=FACE_OUTER_BOUND('',#231,.T.);
#145=FACE_OUTER_BOUND('',#232,.T.);
#146=FACE_OUTER_BOUND('',#234,.T.);
#147=FACE_OUTER_BOUND('',#235,.T.);
#148=FACE_OUTER_BOUND('',#236,.T.);
#149=FACE_OUTER_BOUND('',#237,.T.);
#150=FACE_OUTER_BOUND('',#238,.T.);
#151=FACE_OUTER_BOUND('',#239,.T.);
#152=FACE_OUTER_BOUND('',#241,.T.);
#153=FACE_OUTER_BOUND('',#242,.T.);
#154=FACE_OUTER_BOUND('',#244,.T.);
#155=FACE_OUTER_BOUND('',#245,.T.);
#156=FACE_OUTER_BOUND('',#246,.T.);
#157=FACE_OUTER_BOUND('',#247,.T.);
#158=FACE_OUTER_BOUND('',#248,.T.);
#159=FACE_OUTER_BOUND('',#249,.T.);
#160=FACE_OUTER_BOUND('',#250,.T.);
#161=FACE_OUTER_BOUND('',#251,.T.);
#162=FACE_OUTER_BOUND('',#252,.T.);
#163=FACE_OUTER_BOUND('',#253,.T.);
#164=FACE_OUTER_BOUND('',#254,.T.);
#165=FACE_OUTER_BOUND('',#255,.T.);
#166=FACE_OUTER_BOUND('',#256,.T.);
#167=FACE_OUTER_BOUND('',#257,.T.);
#168=FACE_OUTER_BOUND('',#258,.T.);
#169=FACE_OUTER_BOUND('',#259,.T.);
#170=FACE_OUTER_BOUND('',#260,.T.);
#171=FACE_OUTER_BOUND('',#262,.T.);
#172=FACE_OUTER_BOUND('',#266,.T.);
#173=FACE_OUTER_BOUND('',#270,.T.);
#174=FACE_OUTER_BOUND('',#273,.T.);
#175=FACE_OUTER_BOUND('',#274,.T.);
#176=FACE_OUTER_BOUND('',#275,.T.);
#177=FACE_OUTER_BOUND('',#276,.T.);
#178=FACE_OUTER_BOUND('',#278,.T.);
#179=FACE_OUTER_BOUND('',#279,.T.);
#180=FACE_OUTER_BOUND('',#283,.T.);
#181=FACE_OUTER_BOUND('',#287,.T.);
#182=FACE_OUTER_BOUND('',#288,.T.);
#183=FACE_OUTER_BOUND('',#289,.T.);
#184=FACE_OUTER_BOUND('',#290,.T.);
#185=FACE_OUTER_BOUND('',#291,.T.);
#186=FACE_OUTER_BOUND('',#293,.T.);
#187=FACE_OUTER_BOUND('',#294,.T.);
#188=EDGE_LOOP('',(#938,#939,#940,#941));
#189=EDGE_LOOP('',(#942));
#190=EDGE_LOOP('',(#943,#944,#945,#946));
#191=EDGE_LOOP('',(#947));
#192=EDGE_LOOP('',(#948));
#193=EDGE_LOOP('',(#949));
#194=EDGE_LOOP('',(#950));
#195=EDGE_LOOP('',(#951,#952,#953,#954));
#196=EDGE_LOOP('',(#955));
#197=EDGE_LOOP('',(#956,#957,#958,#959));
#198=EDGE_LOOP('',(#960,#961,#962,#963));
#199=EDGE_LOOP('',(#964));
#200=EDGE_LOOP('',(#965,#966,#967,#968));
#201=EDGE_LOOP('',(#969));
#202=EDGE_LOOP('',(#970,#971,#972,#973));
#203=EDGE_LOOP('',(#974));
#204=EDGE_LOOP('',(#975,#976,#977,#978));
#205=EDGE_LOOP('',(#979));
#206=EDGE_LOOP('',(#980,#981,#982,#983));
#207=EDGE_LOOP('',(#984,#985,#986,#987));
#208=EDGE_LOOP('',(#988,#989,#990,#991));
#209=EDGE_LOOP('',(#992,#993,#994,#995,#996,#997));
#210=EDGE_LOOP('',(#998,#999,#1000,#1001));
#211=EDGE_LOOP('',(#1002,#1003,#1004,#1005,#1006,#1007));
#212=EDGE_LOOP('',(#1008,#1009,#1010,#1011));
#213=EDGE_LOOP('',(#1012));
#214=EDGE_LOOP('',(#1013,#1014,#1015,#1016));
#215=EDGE_LOOP('',(#1017,#1018,#1019,#1020));
#216=EDGE_LOOP('',(#1021,#1022,#1023,#1024,#1025,#1026,#1027,#1028));
#217=EDGE_LOOP('',(#1029,#1030,#1031,#1032));
#218=EDGE_LOOP('',(#1033,#1034,#1035,#1036));
#219=EDGE_LOOP('',(#1037,#1038,#1039,#1040));
#220=EDGE_LOOP('',(#1041,#1042,#1043,#1044,#1045,#1046));
#221=EDGE_LOOP('',(#1047,#1048,#1049,#1050,#1051,#1052));
#222=EDGE_LOOP('',(#1053,#1054,#1055,#1056));
#223=EDGE_LOOP('',(#1057,#1058,#1059,#1060));
#224=EDGE_LOOP('',(#1061));
#225=EDGE_LOOP('',(#1062,#1063,#1064,#1065));
#226=EDGE_LOOP('',(#1066,#1067,#1068,#1069));
#227=EDGE_LOOP('',(#1070,#1071,#1072,#1073));
#228=EDGE_LOOP('',(#1074,#1075,#1076,#1077));
#229=EDGE_LOOP('',(#1078,#1079,#1080,#1081,#1082,#1083));
#230=EDGE_LOOP('',(#1084,#1085,#1086,#1087));
#231=EDGE_LOOP('',(#1088,#1089,#1090,#1091,#1092,#1093));
#232=EDGE_LOOP('',(#1094,#1095,#1096,#1097));
#233=EDGE_LOOP('',(#1098));
#234=EDGE_LOOP('',(#1099,#1100,#1101,#1102));
#235=EDGE_LOOP('',(#1103,#1104,#1105,#1106));
#236=EDGE_LOOP('',(#1107,#1108,#1109,#1110,#1111,#1112));
#237=EDGE_LOOP('',(#1113,#1114,#1115,#1116,#1117,#1118));
#238=EDGE_LOOP('',(#1119,#1120,#1121,#1122));
#239=EDGE_LOOP('',(#1123,#1124,#1125,#1126));
#240=EDGE_LOOP('',(#1127));
#241=EDGE_LOOP('',(#1128,#1129,#1130,#1131));
#242=EDGE_LOOP('',(#1132,#1133,#1134,#1135,#1136,#1137,#1138,#1139));
#243=EDGE_LOOP('',(#1140,#1141,#1142,#1143));
#244=EDGE_LOOP('',(#1144,#1145,#1146,#1147));
#245=EDGE_LOOP('',(#1148,#1149,#1150,#1151));
#246=EDGE_LOOP('',(#1152,#1153,#1154,#1155));
#247=EDGE_LOOP('',(#1156,#1157,#1158,#1159));
#248=EDGE_LOOP('',(#1160,#1161,#1162,#1163));
#249=EDGE_LOOP('',(#1164,#1165,#1166,#1167));
#250=EDGE_LOOP('',(#1168,#1169,#1170,#1171));
#251=EDGE_LOOP('',(#1172,#1173,#1174,#1175));
#252=EDGE_LOOP('',(#1176,#1177,#1178,#1179));
#253=EDGE_LOOP('',(#1180,#1181,#1182,#1183));
#254=EDGE_LOOP('',(#1184,#1185,#1186,#1187));
#255=EDGE_LOOP('',(#1188,#1189,#1190,#1191));
#256=EDGE_LOOP('',(#1192,#1193,#1194,#1195));
#257=EDGE_LOOP('',(#1196,#1197,#1198,#1199));
#258=EDGE_LOOP('',(#1200));
#259=EDGE_LOOP('',(#1201,#1202,#1203,#1204));
#260=EDGE_LOOP('',(#1205,#1206));
#261=EDGE_LOOP('',(#1207));
#262=EDGE_LOOP('',(#1208,#1209,#1210,#1211));
#263=EDGE_LOOP('',(#1212));
#264=EDGE_LOOP('',(#1213));
#265=EDGE_LOOP('',(#1214));
#266=EDGE_LOOP('',(#1215,#1216,#1217,#1218));
#267=EDGE_LOOP('',(#1219,#1220,#1221,#1222));
#268=EDGE_LOOP('',(#1223));
#269=EDGE_LOOP('',(#1224));
#270=EDGE_LOOP('',(#1225,#1226,#1227,#1228));
#271=EDGE_LOOP('',(#1229,#1230,#1231,#1232));
#272=EDGE_LOOP('',(#1233,#1234,#1235,#1236));
#273=EDGE_LOOP('',(#1237,#1238,#1239,#1240));
#274=EDGE_LOOP('',(#1241));
#275=EDGE_LOOP('',(#1242,#1243,#1244,#1245));
#276=EDGE_LOOP('',(#1246));
#277=EDGE_LOOP('',(#1247));
#278=EDGE_LOOP('',(#1248,#1249,#1250,#1251,#1252,#1253,#1254,#1255));
#279=EDGE_LOOP('',(#1256,#1257,#1258,#1259));
#280=EDGE_LOOP('',(#1260,#1261,#1262,#1263));
#281=EDGE_LOOP('',(#1264));
#282=EDGE_LOOP('',(#1265));
#283=EDGE_LOOP('',(#1266,#1267,#1268,#1269,#1270,#1271));
#284=EDGE_LOOP('',(#1272));
#285=EDGE_LOOP('',(#1273));
#286=EDGE_LOOP('',(#1274));
#287=EDGE_LOOP('',(#1275,#1276,#1277,#1278));
#288=EDGE_LOOP('',(#1279,#1280,#1281,#1282));
#289=EDGE_LOOP('',(#1283,#1284,#1285,#1286));
#290=EDGE_LOOP('',(#1287,#1288,#1289,#1290));
#291=EDGE_LOOP('',(#1291,#1292,#1293,#1294));
#292=EDGE_LOOP('',(#1295,#1296,#1297,#1298));
#293=EDGE_LOOP('',(#1299,#1300,#1301,#1302));
#294=EDGE_LOOP('',(#1303,#1304,#1305,#1306));
#295=EDGE_LOOP('',(#1307));
#296=EDGE_LOOP('',(#1308));
#297=EDGE_LOOP('',(#1309));
#298=LINE('',#1949,#442);
#299=LINE('',#1956,#443);
#300=LINE('',#1966,#444);
#301=LINE('',#1972,#445);
#302=LINE('',#1977,#446);
#303=LINE('',#1984,#447);
#304=LINE('',#1991,#448);
#305=LINE('',#1998,#449);
#306=LINE('',#2004,#450);
#307=LINE('',#2006,#451);
#308=LINE('',#2008,#452);
#309=LINE('',#2009,#453);
#310=LINE('',#2013,#454);
#311=LINE('',#2014,#455);
#312=LINE('',#2015,#456);
#313=LINE('',#2018,#457);
#314=LINE('',#2020,#458);
#315=LINE('',#2021,#459);
#316=LINE('',#2024,#460);
#317=LINE('',#2026,#461);
#318=LINE('',#2027,#462);
#319=LINE('',#2030,#463);
#320=LINE('',#2031,#464);
#321=LINE('',#2034,#465);
#322=LINE('',#2035,#466);
#323=LINE('',#2037,#467);
#324=LINE('',#2041,#468);
#325=LINE('',#2043,#469);
#326=LINE('',#2045,#470);
#327=LINE('',#2046,#471);
#328=LINE('',#2049,#472);
#329=LINE('',#2051,#473);
#330=LINE('',#2052,#474);
#331=LINE('',#2056,#475);
#332=LINE('',#2058,#476);
#333=LINE('',#2060,#477);
#334=LINE('',#2062,#478);
#335=LINE('',#2064,#479);
#336=LINE('',#2066,#480);
#337=LINE('',#2068,#481);
#338=LINE('',#2069,#482);
#339=LINE('',#2072,#483);
#340=LINE('',#2074,#484);
#341=LINE('',#2076,#485);
#342=LINE('',#2077,#486);
#343=LINE('',#2080,#487);
#344=LINE('',#2082,#488);
#345=LINE('',#2084,#489);
#346=LINE('',#2085,#490);
#347=LINE('',#2087,#491);
#348=LINE('',#2089,#492);
#349=LINE('',#2090,#493);
#350=LINE('',#2093,#494);
#351=LINE('',#2095,#495);
#352=LINE('',#2096,#496);
#353=LINE('',#2099,#497);
#354=LINE('',#2101,#498);
#355=LINE('',#2102,#499);
#356=LINE('',#2104,#500);
#357=LINE('',#2105,#501);
#358=LINE('',#2111,#502);
#359=LINE('',#2113,#503);
#360=LINE('',#2115,#504);
#361=LINE('',#2116,#505);
#362=LINE('',#2120,#506);
#363=LINE('',#2121,#507);
#364=LINE('',#2122,#508);
#365=LINE('',#2125,#509);
#366=LINE('',#2127,#510);
#367=LINE('',#2128,#511);
#368=LINE('',#2131,#512);
#369=LINE('',#2133,#513);
#370=LINE('',#2134,#514);
#371=LINE('',#2137,#515);
#372=LINE('',#2138,#516);
#373=LINE('',#2141,#517);
#374=LINE('',#2142,#518);
#375=LINE('',#2144,#519);
#376=LINE('',#2148,#520);
#377=LINE('',#2150,#521);
#378=LINE('',#2152,#522);
#379=LINE('',#2153,#523);
#380=LINE('',#2155,#524);
#381=LINE('',#2156,#525);
#382=LINE('',#2159,#526);
#383=LINE('',#2161,#527);
#384=LINE('',#2162,#528);
#385=LINE('',#2165,#529);
#386=LINE('',#2167,#530);
#387=LINE('',#2168,#531);
#388=LINE('',#2170,#532);
#389=LINE('',#2171,#533);
#390=LINE('',#2179,#534);
#391=LINE('',#2183,#535);
#392=LINE('',#2187,#536);
#393=LINE('',#2190,#537);
#394=LINE('',#2192,#538);
#395=LINE('',#2194,#539);
#396=LINE('',#2195,#540);
#397=LINE('',#2198,#541);
#398=LINE('',#2200,#542);
#399=LINE('',#2201,#543);
#400=LINE('',#2204,#544);
#401=LINE('',#2205,#545);
#402=LINE('',#2208,#546);
#403=LINE('',#2209,#547);
#404=LINE('',#2211,#548);
#405=LINE('',#2215,#549);
#406=LINE('',#2217,#550);
#407=LINE('',#2219,#551);
#408=LINE('',#2220,#552);
#409=LINE('',#2223,#553);
#410=LINE('',#2225,#554);
#411=LINE('',#2226,#555);
#412=LINE('',#2229,#556);
#413=LINE('',#2231,#557);
#414=LINE('',#2232,#558);
#415=LINE('',#2234,#559);
#416=LINE('',#2235,#560);
#417=LINE('',#2240,#561);
#418=LINE('',#2246,#562);
#419=LINE('',#2252,#563);
#420=LINE('',#2258,#564);
#421=LINE('',#2264,#565);
#422=LINE('',#2270,#566);
#423=LINE('',#2279,#567);
#424=LINE('',#2280,#568);
#425=LINE('',#2283,#569);
#426=LINE('',#2284,#570);
#427=LINE('',#2286,#571);
#428=LINE('',#2291,#572);
#429=LINE('',#2298,#573);
#430=LINE('',#2306,#574);
#431=LINE('',#2310,#575);
#432=LINE('',#2314,#576);
#433=LINE('',#2317,#577);
#434=LINE('',#2319,#578);
#435=LINE('',#2320,#579);
#436=LINE('',#2323,#580);
#437=LINE('',#2324,#581);
#438=LINE('',#2326,#582);
#439=LINE('',#2329,#583);
#440=LINE('',#2331,#584);
#441=LINE('',#2333,#585);
#442=VECTOR('',#1557,1.75000000000001);
#443=VECTOR('',#1566,3.50000000000001);
#444=VECTOR('',#1579,3.5);
#445=VECTOR('',#1588,1.75000000000001);
#446=VECTOR('',#1593,1.75000000000001);
#447=VECTOR('',#1602,1.75000000000001);
#448=VECTOR('',#1611,1.75000000000001);
#449=VECTOR('',#1620,1.75000000000001);
#450=VECTOR('',#1627,10.);
#451=VECTOR('',#1628,10.);
#452=VECTOR('',#1629,10.);
#453=VECTOR('',#1630,10.);
#454=VECTOR('',#1633,10.);
#455=VECTOR('',#1634,10.);
#456=VECTOR('',#1635,10.);
#457=VECTOR('',#1638,10.);
#458=VECTOR('',#1639,10.);
#459=VECTOR('',#1640,10.);
#460=VECTOR('',#1643,10.);
#461=VECTOR('',#1644,10.);
#462=VECTOR('',#1645,10.);
#463=VECTOR('',#1648,10.);
#464=VECTOR('',#1649,10.);
#465=VECTOR('',#1652,10.);
#466=VECTOR('',#1653,10.);
#467=VECTOR('',#1656,10.);
#468=VECTOR('',#1659,10.);
#469=VECTOR('',#1660,10.);
#470=VECTOR('',#1661,10.);
#471=VECTOR('',#1662,10.);
#472=VECTOR('',#1665,10.);
#473=VECTOR('',#1666,10.);
#474=VECTOR('',#1667,10.);
#475=VECTOR('',#1670,10.);
#476=VECTOR('',#1671,10.);
#477=VECTOR('',#1672,10.);
#478=VECTOR('',#1673,10.);
#479=VECTOR('',#1674,10.);
#480=VECTOR('',#1675,10.);
#481=VECTOR('',#1676,10.);
#482=VECTOR('',#1677,10.);
#483=VECTOR('',#1678,10.);
#484=VECTOR('',#1679,10.);
#485=VECTOR('',#1680,10.);
#486=VECTOR('',#1681,10.);
#487=VECTOR('',#1682,10.);
#488=VECTOR('',#1683,10.);
#489=VECTOR('',#1684,10.);
#490=VECTOR('',#1685,10.);
#491=VECTOR('',#1686,10.);
#492=VECTOR('',#1687,10.);
#493=VECTOR('',#1688,10.);
#494=VECTOR('',#1691,10.);
#495=VECTOR('',#1692,10.);
#496=VECTOR('',#1693,10.);
#497=VECTOR('',#1696,10.);
#498=VECTOR('',#1697,10.);
#499=VECTOR('',#1698,10.);
#500=VECTOR('',#1701,10.);
#501=VECTOR('',#1702,10.);
#502=VECTOR('',#1709,10.);
#503=VECTOR('',#1710,10.);
#504=VECTOR('',#1711,10.);
#505=VECTOR('',#1712,10.);
#506=VECTOR('',#1715,10.);
#507=VECTOR('',#1716,10.);
#508=VECTOR('',#1717,10.);
#509=VECTOR('',#1720,10.);
#510=VECTOR('',#1721,10.);
#511=VECTOR('',#1722,10.);
#512=VECTOR('',#1725,10.);
#513=VECTOR('',#1726,10.);
#514=VECTOR('',#1727,10.);
#515=VECTOR('',#1730,10.);
#516=VECTOR('',#1731,10.);
#517=VECTOR('',#1734,10.);
#518=VECTOR('',#1735,10.);
#519=VECTOR('',#1738,10.);
#520=VECTOR('',#1741,10.);
#521=VECTOR('',#1742,10.);
#522=VECTOR('',#1743,10.);
#523=VECTOR('',#1744,10.);
#524=VECTOR('',#1747,10.);
#525=VECTOR('',#1748,10.);
#526=VECTOR('',#1751,10.);
#527=VECTOR('',#1752,10.);
#528=VECTOR('',#1753,10.);
#529=VECTOR('',#1756,10.);
#530=VECTOR('',#1757,10.);
#531=VECTOR('',#1758,10.);
#532=VECTOR('',#1761,10.);
#533=VECTOR('',#1762,10.);
#534=VECTOR('',#1771,10.);
#535=VECTOR('',#1774,10.);
#536=VECTOR('',#1777,10.);
#537=VECTOR('',#1780,10.);
#538=VECTOR('',#1781,10.);
#539=VECTOR('',#1782,10.);
#540=VECTOR('',#1783,10.);
#541=VECTOR('',#1786,10.);
#542=VECTOR('',#1787,10.);
#543=VECTOR('',#1788,10.);
#544=VECTOR('',#1791,10.);
#545=VECTOR('',#1792,10.);
#546=VECTOR('',#1795,10.);
#547=VECTOR('',#1796,10.);
#548=VECTOR('',#1799,10.);
#549=VECTOR('',#1802,10.);
#550=VECTOR('',#1803,10.);
#551=VECTOR('',#1804,10.);
#552=VECTOR('',#1805,10.);
#553=VECTOR('',#1808,10.);
#554=VECTOR('',#1809,10.);
#555=VECTOR('',#1810,10.);
#556=VECTOR('',#1813,10.);
#557=VECTOR('',#1814,10.);
#558=VECTOR('',#1815,10.);
#559=VECTOR('',#1818,10.);
#560=VECTOR('',#1819,10.);
#561=VECTOR('',#1824,3.24999999999999);
#562=VECTOR('',#1831,3.24999999999999);
#563=VECTOR('',#1838,1.75000000000001);
#564=VECTOR('',#1845,1.75000000000001);
#565=VECTOR('',#1852,12.1);
#566=VECTOR('',#1859,1.75000000000001);
#567=VECTOR('',#1874,10.);
#568=VECTOR('',#1875,10.);
#569=VECTOR('',#1878,10.);
#570=VECTOR('',#1879,10.);
#571=VECTOR('',#1882,10.);
#572=VECTOR('',#1887,1.75000000000001);
#573=VECTOR('',#1896,3.5);
#574=VECTOR('',#1905,10.);
#575=VECTOR('',#1908,10.);
#576=VECTOR('',#1911,10.);
#577=VECTOR('',#1914,10.);
#578=VECTOR('',#1917,10.);
#579=VECTOR('',#1918,10.);
#580=VECTOR('',#1923,10.);
#581=VECTOR('',#1924,10.);
#582=VECTOR('',#1927,10.);
#583=VECTOR('',#1932,10.);
#584=VECTOR('',#1935,10.);
#585=VECTOR('',#1938,10.);
#586=CIRCLE('',#1427,1.75000000000001);
#587=CIRCLE('',#1428,1.75000000000001);
#588=CIRCLE('',#1431,3.50000000000001);
#589=CIRCLE('',#1432,3.50000000000001);
#590=CIRCLE('',#1435,3.5);
#591=CIRCLE('',#1436,1.75000000000001);
#592=CIRCLE('',#1438,3.5);
#593=CIRCLE('',#1440,1.75000000000001);
#594=CIRCLE('',#1443,1.75000000000001);
#595=CIRCLE('',#1444,1.75000000000001);
#596=CIRCLE('',#1447,1.75000000000001);
#597=CIRCLE('',#1448,1.75000000000001);
#598=CIRCLE('',#1451,1.75000000000001);
#599=CIRCLE('',#1452,1.75000000000001);
#600=CIRCLE('',#1455,1.75000000000001);
#601=CIRCLE('',#1456,1.75000000000001);
#602=CIRCLE('',#1488,3.);
#603=CIRCLE('',#1489,3.);
#604=CIRCLE('',#1490,3.);
#605=CIRCLE('',#1491,3.);
#606=CIRCLE('',#1501,3.24999999999999);
#607=CIRCLE('',#1502,3.24999999999999);
#608=CIRCLE('',#1504,3.24999999999999);
#609=CIRCLE('',#1505,3.24999999999999);
#610=CIRCLE('',#1507,1.75000000000001);
#611=CIRCLE('',#1508,1.75000000000001);
#612=CIRCLE('',#1510,1.75000000000001);
#613=CIRCLE('',#1511,1.75000000000001);
#614=CIRCLE('',#1513,12.1);
#615=CIRCLE('',#1514,12.1);
#616=CIRCLE('',#1516,1.75000000000001);
#617=CIRCLE('',#1517,1.75000000000001);
#618=CIRCLE('',#1520,3.50000000000001);
#619=CIRCLE('',#1521,3.50000000000001);
#620=CIRCLE('',#1527,1.75000000000001);
#621=CIRCLE('',#1528,1.75000000000001);
#622=CIRCLE('',#1531,3.5);
#623=CIRCLE('',#1532,3.5);
#624=CIRCLE('',#1535,3.);
#625=CIRCLE('',#1536,3.);
#626=CIRCLE('',#1537,3.);
#627=CIRCLE('',#1538,3.);
#628=VERTEX_POINT('',#1946);
#629=VERTEX_POINT('',#1948);
#630=VERTEX_POINT('',#1953);
#631=VERTEX_POINT('',#1955);
#632=VERTEX_POINT('',#1960);
#633=VERTEX_POINT('',#1962);
#634=VERTEX_POINT('',#1965);
#635=VERTEX_POINT('',#1969);
#636=VERTEX_POINT('',#1974);
#637=VERTEX_POINT('',#1976);
#638=VERTEX_POINT('',#1981);
#639=VERTEX_POINT('',#1983);
#640=VERTEX_POINT('',#1988);
#641=VERTEX_POINT('',#1990);
#642=VERTEX_POINT('',#1995);
#643=VERTEX_POINT('',#1997);
#644=VERTEX_POINT('',#2002);
#645=VERTEX_POINT('',#2003);
#646=VERTEX_POINT('',#2005);
#647=VERTEX_POINT('',#2007);
#648=VERTEX_POINT('',#2011);
#649=VERTEX_POINT('',#2012);
#650=VERTEX_POINT('',#2017);
#651=VERTEX_POINT('',#2019);
#652=VERTEX_POINT('',#2023);
#653=VERTEX_POINT('',#2025);
#654=VERTEX_POINT('',#2029);
#655=VERTEX_POINT('',#2033);
#656=VERTEX_POINT('',#2039);
#657=VERTEX_POINT('',#2040);
#658=VERTEX_POINT('',#2042);
#659=VERTEX_POINT('',#2044);
#660=VERTEX_POINT('',#2048);
#661=VERTEX_POINT('',#2050);
#662=VERTEX_POINT('',#2054);
#663=VERTEX_POINT('',#2055);
#664=VERTEX_POINT('',#2057);
#665=VERTEX_POINT('',#2059);
#666=VERTEX_POINT('',#2061);
#667=VERTEX_POINT('',#2063);
#668=VERTEX_POINT('',#2065);
#669=VERTEX_POINT('',#2067);
#670=VERTEX_POINT('',#2070);
#671=VERTEX_POINT('',#2071);
#672=VERTEX_POINT('',#2073);
#673=VERTEX_POINT('',#2075);
#674=VERTEX_POINT('',#2078);
#675=VERTEX_POINT('',#2079);
#676=VERTEX_POINT('',#2081);
#677=VERTEX_POINT('',#2083);
#678=VERTEX_POINT('',#2086);
#679=VERTEX_POINT('',#2088);
#680=VERTEX_POINT('',#2092);
#681=VERTEX_POINT('',#2094);
#682=VERTEX_POINT('',#2098);
#683=VERTEX_POINT('',#2100);
#684=VERTEX_POINT('',#2109);
#685=VERTEX_POINT('',#2110);
#686=VERTEX_POINT('',#2112);
#687=VERTEX_POINT('',#2114);
#688=VERTEX_POINT('',#2118);
#689=VERTEX_POINT('',#2119);
#690=VERTEX_POINT('',#2124);
#691=VERTEX_POINT('',#2126);
#692=VERTEX_POINT('',#2130);
#693=VERTEX_POINT('',#2132);
#694=VERTEX_POINT('',#2136);
#695=VERTEX_POINT('',#2140);
#696=VERTEX_POINT('',#2146);
#697=VERTEX_POINT('',#2147);
#698=VERTEX_POINT('',#2149);
#699=VERTEX_POINT('',#2151);
#700=VERTEX_POINT('',#2158);
#701=VERTEX_POINT('',#2160);
#702=VERTEX_POINT('',#2164);
#703=VERTEX_POINT('',#2166);
#704=VERTEX_POINT('',#2175);
#705=VERTEX_POINT('',#2176);
#706=VERTEX_POINT('',#2178);
#707=VERTEX_POINT('',#2180);
#708=VERTEX_POINT('',#2182);
#709=VERTEX_POINT('',#2184);
#710=VERTEX_POINT('',#2186);
#711=VERTEX_POINT('',#2188);
#712=VERTEX_POINT('',#2191);
#713=VERTEX_POINT('',#2193);
#714=VERTEX_POINT('',#2197);
#715=VERTEX_POINT('',#2199);
#716=VERTEX_POINT('',#2203);
#717=VERTEX_POINT('',#2207);
#718=VERTEX_POINT('',#2213);
#719=VERTEX_POINT('',#2214);
#720=VERTEX_POINT('',#2216);
#721=VERTEX_POINT('',#2218);
#722=VERTEX_POINT('',#2222);
#723=VERTEX_POINT('',#2224);
#724=VERTEX_POINT('',#2228);
#725=VERTEX_POINT('',#2230);
#726=VERTEX_POINT('',#2237);
#727=VERTEX_POINT('',#2239);
#728=VERTEX_POINT('',#2243);
#729=VERTEX_POINT('',#2245);
#730=VERTEX_POINT('',#2249);
#731=VERTEX_POINT('',#2251);
#732=VERTEX_POINT('',#2255);
#733=VERTEX_POINT('',#2257);
#734=VERTEX_POINT('',#2261);
#735=VERTEX_POINT('',#2263);
#736=VERTEX_POINT('',#2267);
#737=VERTEX_POINT('',#2269);
#738=VERTEX_POINT('',#2278);
#739=VERTEX_POINT('',#2282);
#740=VERTEX_POINT('',#2288);
#741=VERTEX_POINT('',#2290);
#742=VERTEX_POINT('',#2295);
#743=VERTEX_POINT('',#2297);
#744=VERTEX_POINT('',#2302);
#745=VERTEX_POINT('',#2303);
#746=VERTEX_POINT('',#2305);
#747=VERTEX_POINT('',#2307);
#748=VERTEX_POINT('',#2309);
#749=VERTEX_POINT('',#2311);
#750=VERTEX_POINT('',#2313);
#751=VERTEX_POINT('',#2315);
#752=EDGE_CURVE('',#628,#628,#586,.T.);
#753=EDGE_CURVE('',#628,#629,#298,.T.);
#754=EDGE_CURVE('',#629,#629,#587,.T.);
#755=EDGE_CURVE('',#630,#630,#588,.T.);
#756=EDGE_CURVE('',#630,#631,#299,.T.);
#757=EDGE_CURVE('',#631,#631,#589,.T.);
#758=EDGE_CURVE('',#632,#632,#590,.T.);
#759=EDGE_CURVE('',#633,#633,#591,.T.);
#760=EDGE_CURVE('',#632,#634,#300,.T.);
#761=EDGE_CURVE('',#634,#634,#592,.T.);
#762=EDGE_CURVE('',#635,#635,#593,.T.);
#763=EDGE_CURVE('',#635,#633,#301,.T.);
#764=EDGE_CURVE('',#636,#636,#594,.T.);
#765=EDGE_CURVE('',#636,#637,#302,.T.);
#766=EDGE_CURVE('',#637,#637,#595,.T.);
#767=EDGE_CURVE('',#638,#638,#596,.T.);
#768=EDGE_CURVE('',#638,#639,#303,.T.);
#769=EDGE_CURVE('',#639,#639,#597,.T.);
#770=EDGE_CURVE('',#640,#640,#598,.T.);
#771=EDGE_CURVE('',#640,#641,#304,.T.);
#772=EDGE_CURVE('',#641,#641,#599,.T.);
#773=EDGE_CURVE('',#642,#642,#600,.T.);
#774=EDGE_CURVE('',#642,#643,#305,.T.);
#775=EDGE_CURVE('',#643,#643,#601,.T.);
#776=EDGE_CURVE('',#644,#645,#306,.T.);
#777=EDGE_CURVE('',#645,#646,#307,.T.);
#778=EDGE_CURVE('',#647,#646,#308,.T.);
#779=EDGE_CURVE('',#644,#647,#309,.T.);
#780=EDGE_CURVE('',#648,#649,#310,.T.);
#781=EDGE_CURVE('',#645,#648,#311,.T.);
#782=EDGE_CURVE('',#649,#644,#312,.T.);
#783=EDGE_CURVE('',#650,#646,#313,.T.);
#784=EDGE_CURVE('',#651,#650,#314,.T.);
#785=EDGE_CURVE('',#647,#651,#315,.T.);
#786=EDGE_CURVE('',#652,#648,#316,.T.);
#787=EDGE_CURVE('',#653,#652,#317,.T.);
#788=EDGE_CURVE('',#650,#653,#318,.T.);
#789=EDGE_CURVE('',#654,#653,#319,.T.);
#790=EDGE_CURVE('',#651,#654,#320,.T.);
#791=EDGE_CURVE('',#655,#654,#321,.T.);
#792=EDGE_CURVE('',#649,#655,#322,.T.);
#793=EDGE_CURVE('',#655,#652,#323,.T.);
#794=EDGE_CURVE('',#656,#657,#324,.T.);
#795=EDGE_CURVE('',#657,#658,#325,.T.);
#796=EDGE_CURVE('',#659,#658,#326,.T.);
#797=EDGE_CURVE('',#656,#659,#327,.T.);
#798=EDGE_CURVE('',#660,#656,#328,.T.);
#799=EDGE_CURVE('',#661,#660,#329,.T.);
#800=EDGE_CURVE('',#657,#661,#330,.T.);
#801=EDGE_CURVE('',#662,#663,#331,.T.);
#802=EDGE_CURVE('',#663,#664,#332,.T.);
#803=EDGE_CURVE('',#664,#665,#333,.T.);
#804=EDGE_CURVE('',#666,#665,#334,.T.);
#805=EDGE_CURVE('',#666,#667,#335,.T.);
#806=EDGE_CURVE('',#668,#667,#336,.T.);
#807=EDGE_CURVE('',#669,#668,#337,.T.);
#808=EDGE_CURVE('',#662,#669,#338,.T.);
#809=EDGE_CURVE('',#670,#671,#339,.T.);
#810=EDGE_CURVE('',#671,#672,#340,.T.);
#811=EDGE_CURVE('',#672,#673,#341,.T.);
#812=EDGE_CURVE('',#673,#670,#342,.T.);
#813=EDGE_CURVE('',#674,#675,#343,.T.);
#814=EDGE_CURVE('',#675,#676,#344,.T.);
#815=EDGE_CURVE('',#676,#677,#345,.T.);
#816=EDGE_CURVE('',#677,#674,#346,.T.);
#817=EDGE_CURVE('',#678,#661,#347,.T.);
#818=EDGE_CURVE('',#660,#679,#348,.T.);
#819=EDGE_CURVE('',#679,#678,#349,.T.);
#820=EDGE_CURVE('',#659,#680,#350,.T.);
#821=EDGE_CURVE('',#680,#681,#351,.T.);
#822=EDGE_CURVE('',#679,#681,#352,.T.);
#823=EDGE_CURVE('',#682,#658,#353,.T.);
#824=EDGE_CURVE('',#683,#678,#354,.T.);
#825=EDGE_CURVE('',#682,#683,#355,.T.);
#826=EDGE_CURVE('',#680,#682,#356,.T.);
#827=EDGE_CURVE('',#681,#683,#357,.T.);
#828=EDGE_CURVE('',#684,#685,#358,.T.);
#829=EDGE_CURVE('',#685,#686,#359,.T.);
#830=EDGE_CURVE('',#687,#686,#360,.T.);
#831=EDGE_CURVE('',#684,#687,#361,.T.);
#832=EDGE_CURVE('',#688,#689,#362,.T.);
#833=EDGE_CURVE('',#685,#688,#363,.T.);
#834=EDGE_CURVE('',#689,#684,#364,.T.);
#835=EDGE_CURVE('',#690,#686,#365,.T.);
#836=EDGE_CURVE('',#691,#690,#366,.T.);
#837=EDGE_CURVE('',#687,#691,#367,.T.);
#838=EDGE_CURVE('',#692,#688,#368,.T.);
#839=EDGE_CURVE('',#693,#692,#369,.T.);
#840=EDGE_CURVE('',#690,#693,#370,.T.);
#841=EDGE_CURVE('',#694,#693,#371,.T.);
#842=EDGE_CURVE('',#691,#694,#372,.T.);
#843=EDGE_CURVE('',#695,#694,#373,.T.);
#844=EDGE_CURVE('',#689,#695,#374,.T.);
#845=EDGE_CURVE('',#695,#692,#375,.T.);
#846=EDGE_CURVE('',#696,#697,#376,.T.);
#847=EDGE_CURVE('',#697,#698,#377,.T.);
#848=EDGE_CURVE('',#699,#698,#378,.T.);
#849=EDGE_CURVE('',#696,#699,#379,.T.);
#850=EDGE_CURVE('',#672,#696,#380,.T.);
#851=EDGE_CURVE('',#697,#671,#381,.T.);
#852=EDGE_CURVE('',#699,#700,#382,.T.);
#853=EDGE_CURVE('',#700,#701,#383,.T.);
#854=EDGE_CURVE('',#673,#701,#384,.T.);
#855=EDGE_CURVE('',#702,#698,#385,.T.);
#856=EDGE_CURVE('',#703,#670,#386,.T.);
#857=EDGE_CURVE('',#702,#703,#387,.T.);
#858=EDGE_CURVE('',#700,#702,#388,.T.);
#859=EDGE_CURVE('',#701,#703,#389,.T.);
#860=EDGE_CURVE('',#704,#705,#602,.T.);
#861=EDGE_CURVE('',#705,#706,#390,.T.);
#862=EDGE_CURVE('',#706,#707,#603,.T.);
#863=EDGE_CURVE('',#707,#708,#391,.T.);
#864=EDGE_CURVE('',#708,#709,#604,.T.);
#865=EDGE_CURVE('',#709,#710,#392,.T.);
#866=EDGE_CURVE('',#710,#711,#605,.T.);
#867=EDGE_CURVE('',#711,#704,#393,.T.);
#868=EDGE_CURVE('',#712,#668,#394,.T.);
#869=EDGE_CURVE('',#667,#713,#395,.T.);
#870=EDGE_CURVE('',#713,#712,#396,.T.);
#871=EDGE_CURVE('',#714,#676,#397,.T.);
#872=EDGE_CURVE('',#715,#714,#398,.T.);
#873=EDGE_CURVE('',#715,#677,#399,.T.);
#874=EDGE_CURVE('',#716,#715,#400,.T.);
#875=EDGE_CURVE('',#674,#716,#401,.T.);
#876=EDGE_CURVE('',#717,#716,#402,.T.);
#877=EDGE_CURVE('',#675,#717,#403,.T.);
#878=EDGE_CURVE('',#714,#717,#404,.T.);
#879=EDGE_CURVE('',#718,#719,#405,.T.);
#880=EDGE_CURVE('',#720,#718,#406,.T.);
#881=EDGE_CURVE('',#721,#720,#407,.T.);
#882=EDGE_CURVE('',#721,#719,#408,.T.);
#883=EDGE_CURVE('',#719,#722,#409,.T.);
#884=EDGE_CURVE('',#723,#721,#410,.T.);
#885=EDGE_CURVE('',#722,#723,#411,.T.);
#886=EDGE_CURVE('',#722,#724,#412,.T.);
#887=EDGE_CURVE('',#725,#723,#413,.T.);
#888=EDGE_CURVE('',#724,#725,#414,.T.);
#889=EDGE_CURVE('',#724,#718,#415,.T.);
#890=EDGE_CURVE('',#720,#725,#416,.T.);
#891=EDGE_CURVE('',#726,#726,#606,.T.);
#892=EDGE_CURVE('',#726,#727,#417,.T.);
#893=EDGE_CURVE('',#727,#727,#607,.T.);
#894=EDGE_CURVE('',#728,#728,#608,.T.);
#895=EDGE_CURVE('',#728,#729,#418,.T.);
#896=EDGE_CURVE('',#729,#729,#609,.T.);
#897=EDGE_CURVE('',#730,#730,#610,.T.);
#898=EDGE_CURVE('',#730,#731,#419,.T.);
#899=EDGE_CURVE('',#731,#731,#611,.T.);
#900=EDGE_CURVE('',#732,#732,#612,.T.);
#901=EDGE_CURVE('',#732,#733,#420,.T.);
#902=EDGE_CURVE('',#733,#733,#613,.T.);
#903=EDGE_CURVE('',#734,#734,#614,.T.);
#904=EDGE_CURVE('',#734,#735,#421,.T.);
#905=EDGE_CURVE('',#735,#735,#615,.T.);
#906=EDGE_CURVE('',#736,#736,#616,.T.);
#907=EDGE_CURVE('',#736,#737,#422,.T.);
#908=EDGE_CURVE('',#737,#737,#617,.T.);
#909=EDGE_CURVE('',#665,#662,#618,.T.);
#910=EDGE_CURVE('',#663,#664,#619,.T.);
#911=EDGE_CURVE('',#669,#738,#423,.T.);
#912=EDGE_CURVE('',#738,#712,#424,.T.);
#913=EDGE_CURVE('',#739,#666,#425,.T.);
#914=EDGE_CURVE('',#739,#713,#426,.T.);
#915=EDGE_CURVE('',#738,#739,#427,.T.);
#916=EDGE_CURVE('',#740,#740,#620,.T.);
#917=EDGE_CURVE('',#740,#741,#428,.T.);
#918=EDGE_CURVE('',#741,#741,#621,.T.);
#919=EDGE_CURVE('',#742,#742,#622,.T.);
#920=EDGE_CURVE('',#742,#743,#429,.T.);
#921=EDGE_CURVE('',#743,#743,#623,.T.);
#922=EDGE_CURVE('',#744,#745,#624,.T.);
#923=EDGE_CURVE('',#746,#744,#430,.T.);
#924=EDGE_CURVE('',#747,#746,#625,.T.);
#925=EDGE_CURVE('',#748,#747,#431,.T.);
#926=EDGE_CURVE('',#749,#748,#626,.T.);
#927=EDGE_CURVE('',#750,#749,#432,.T.);
#928=EDGE_CURVE('',#751,#750,#627,.T.);
#929=EDGE_CURVE('',#745,#751,#433,.T.);
#930=EDGE_CURVE('',#745,#705,#434,.T.);
#931=EDGE_CURVE('',#706,#751,#435,.T.);
#932=EDGE_CURVE('',#710,#747,#436,.T.);
#933=EDGE_CURVE('',#746,#711,#437,.T.);
#934=EDGE_CURVE('',#704,#744,#438,.T.);
#935=EDGE_CURVE('',#750,#707,#439,.T.);
#936=EDGE_CURVE('',#708,#749,#440,.T.);
#937=EDGE_CURVE('',#748,#709,#441,.T.);
#938=ORIENTED_EDGE('',*,*,#752,.F.);
#939=ORIENTED_EDGE('',*,*,#753,.T.);
#940=ORIENTED_EDGE('',*,*,#754,.F.);
#941=ORIENTED_EDGE('',*,*,#753,.F.);
#942=ORIENTED_EDGE('',*,*,#752,.T.);
#943=ORIENTED_EDGE('',*,*,#755,.F.);
#944=ORIENTED_EDGE('',*,*,#756,.T.);
#945=ORIENTED_EDGE('',*,*,#757,.F.);
#946=ORIENTED_EDGE('',*,*,#756,.F.);
#947=ORIENTED_EDGE('',*,*,#755,.T.);
#948=ORIENTED_EDGE('',*,*,#754,.T.);
#949=ORIENTED_EDGE('',*,*,#758,.T.);
#950=ORIENTED_EDGE('',*,*,#759,.T.);
#951=ORIENTED_EDGE('',*,*,#758,.F.);
#952=ORIENTED_EDGE('',*,*,#760,.T.);
#953=ORIENTED_EDGE('',*,*,#761,.F.);
#954=ORIENTED_EDGE('',*,*,#760,.F.);
#955=ORIENTED_EDGE('',*,*,#762,.T.);
#956=ORIENTED_EDGE('',*,*,#762,.F.);
#957=ORIENTED_EDGE('',*,*,#763,.T.);
#958=ORIENTED_EDGE('',*,*,#759,.F.);
#959=ORIENTED_EDGE('',*,*,#763,.F.);
#960=ORIENTED_EDGE('',*,*,#764,.F.);
#961=ORIENTED_EDGE('',*,*,#765,.T.);
#962=ORIENTED_EDGE('',*,*,#766,.F.);
#963=ORIENTED_EDGE('',*,*,#765,.F.);
#964=ORIENTED_EDGE('',*,*,#764,.T.);
#965=ORIENTED_EDGE('',*,*,#767,.F.);
#966=ORIENTED_EDGE('',*,*,#768,.T.);
#967=ORIENTED_EDGE('',*,*,#769,.F.);
#968=ORIENTED_EDGE('',*,*,#768,.F.);
#969=ORIENTED_EDGE('',*,*,#767,.T.);
#970=ORIENTED_EDGE('',*,*,#770,.F.);
#971=ORIENTED_EDGE('',*,*,#771,.T.);
#972=ORIENTED_EDGE('',*,*,#772,.F.);
#973=ORIENTED_EDGE('',*,*,#771,.F.);
#974=ORIENTED_EDGE('',*,*,#770,.T.);
#975=ORIENTED_EDGE('',*,*,#773,.F.);
#976=ORIENTED_EDGE('',*,*,#774,.T.);
#977=ORIENTED_EDGE('',*,*,#775,.F.);
#978=ORIENTED_EDGE('',*,*,#774,.F.);
#979=ORIENTED_EDGE('',*,*,#773,.T.);
#980=ORIENTED_EDGE('',*,*,#776,.T.);
#981=ORIENTED_EDGE('',*,*,#777,.T.);
#982=ORIENTED_EDGE('',*,*,#778,.F.);
#983=ORIENTED_EDGE('',*,*,#779,.F.);
#984=ORIENTED_EDGE('',*,*,#780,.F.);
#985=ORIENTED_EDGE('',*,*,#781,.F.);
#986=ORIENTED_EDGE('',*,*,#776,.F.);
#987=ORIENTED_EDGE('',*,*,#782,.F.);
#988=ORIENTED_EDGE('',*,*,#778,.T.);
#989=ORIENTED_EDGE('',*,*,#783,.F.);
#990=ORIENTED_EDGE('',*,*,#784,.F.);
#991=ORIENTED_EDGE('',*,*,#785,.F.);
#992=ORIENTED_EDGE('',*,*,#783,.T.);
#993=ORIENTED_EDGE('',*,*,#777,.F.);
#994=ORIENTED_EDGE('',*,*,#781,.T.);
#995=ORIENTED_EDGE('',*,*,#786,.F.);
#996=ORIENTED_EDGE('',*,*,#787,.F.);
#997=ORIENTED_EDGE('',*,*,#788,.F.);
#998=ORIENTED_EDGE('',*,*,#784,.T.);
#999=ORIENTED_EDGE('',*,*,#788,.T.);
#1000=ORIENTED_EDGE('',*,*,#789,.F.);
#1001=ORIENTED_EDGE('',*,*,#790,.F.);
#1002=ORIENTED_EDGE('',*,*,#785,.T.);
#1003=ORIENTED_EDGE('',*,*,#790,.T.);
#1004=ORIENTED_EDGE('',*,*,#791,.F.);
#1005=ORIENTED_EDGE('',*,*,#792,.F.);
#1006=ORIENTED_EDGE('',*,*,#782,.T.);
#1007=ORIENTED_EDGE('',*,*,#779,.T.);
#1008=ORIENTED_EDGE('',*,*,#793,.F.);
#1009=ORIENTED_EDGE('',*,*,#791,.T.);
#1010=ORIENTED_EDGE('',*,*,#789,.T.);
#1011=ORIENTED_EDGE('',*,*,#787,.T.);
#1012=ORIENTED_EDGE('',*,*,#766,.T.);
#1013=ORIENTED_EDGE('',*,*,#794,.T.);
#1014=ORIENTED_EDGE('',*,*,#795,.T.);
#1015=ORIENTED_EDGE('',*,*,#796,.F.);
#1016=ORIENTED_EDGE('',*,*,#797,.F.);
#1017=ORIENTED_EDGE('',*,*,#794,.F.);
#1018=ORIENTED_EDGE('',*,*,#798,.F.);
#1019=ORIENTED_EDGE('',*,*,#799,.F.);
#1020=ORIENTED_EDGE('',*,*,#800,.F.);
#1021=ORIENTED_EDGE('',*,*,#801,.T.);
#1022=ORIENTED_EDGE('',*,*,#802,.T.);
#1023=ORIENTED_EDGE('',*,*,#803,.T.);
#1024=ORIENTED_EDGE('',*,*,#804,.F.);
#1025=ORIENTED_EDGE('',*,*,#805,.T.);
#1026=ORIENTED_EDGE('',*,*,#806,.F.);
#1027=ORIENTED_EDGE('',*,*,#807,.F.);
#1028=ORIENTED_EDGE('',*,*,#808,.F.);
#1029=ORIENTED_EDGE('',*,*,#809,.T.);
#1030=ORIENTED_EDGE('',*,*,#810,.T.);
#1031=ORIENTED_EDGE('',*,*,#811,.T.);
#1032=ORIENTED_EDGE('',*,*,#812,.T.);
#1033=ORIENTED_EDGE('',*,*,#813,.T.);
#1034=ORIENTED_EDGE('',*,*,#814,.T.);
#1035=ORIENTED_EDGE('',*,*,#815,.T.);
#1036=ORIENTED_EDGE('',*,*,#816,.T.);
#1037=ORIENTED_EDGE('',*,*,#817,.T.);
#1038=ORIENTED_EDGE('',*,*,#799,.T.);
#1039=ORIENTED_EDGE('',*,*,#818,.T.);
#1040=ORIENTED_EDGE('',*,*,#819,.T.);
#1041=ORIENTED_EDGE('',*,*,#820,.T.);
#1042=ORIENTED_EDGE('',*,*,#821,.T.);
#1043=ORIENTED_EDGE('',*,*,#822,.F.);
#1044=ORIENTED_EDGE('',*,*,#818,.F.);
#1045=ORIENTED_EDGE('',*,*,#798,.T.);
#1046=ORIENTED_EDGE('',*,*,#797,.T.);
#1047=ORIENTED_EDGE('',*,*,#823,.T.);
#1048=ORIENTED_EDGE('',*,*,#795,.F.);
#1049=ORIENTED_EDGE('',*,*,#800,.T.);
#1050=ORIENTED_EDGE('',*,*,#817,.F.);
#1051=ORIENTED_EDGE('',*,*,#824,.F.);
#1052=ORIENTED_EDGE('',*,*,#825,.F.);
#1053=ORIENTED_EDGE('',*,*,#826,.T.);
#1054=ORIENTED_EDGE('',*,*,#825,.T.);
#1055=ORIENTED_EDGE('',*,*,#827,.F.);
#1056=ORIENTED_EDGE('',*,*,#821,.F.);
#1057=ORIENTED_EDGE('',*,*,#827,.T.);
#1058=ORIENTED_EDGE('',*,*,#824,.T.);
#1059=ORIENTED_EDGE('',*,*,#819,.F.);
#1060=ORIENTED_EDGE('',*,*,#822,.T.);
#1061=ORIENTED_EDGE('',*,*,#769,.T.);
#1062=ORIENTED_EDGE('',*,*,#796,.T.);
#1063=ORIENTED_EDGE('',*,*,#823,.F.);
#1064=ORIENTED_EDGE('',*,*,#826,.F.);
#1065=ORIENTED_EDGE('',*,*,#820,.F.);
#1066=ORIENTED_EDGE('',*,*,#828,.T.);
#1067=ORIENTED_EDGE('',*,*,#829,.T.);
#1068=ORIENTED_EDGE('',*,*,#830,.F.);
#1069=ORIENTED_EDGE('',*,*,#831,.F.);
#1070=ORIENTED_EDGE('',*,*,#832,.F.);
#1071=ORIENTED_EDGE('',*,*,#833,.F.);
#1072=ORIENTED_EDGE('',*,*,#828,.F.);
#1073=ORIENTED_EDGE('',*,*,#834,.F.);
#1074=ORIENTED_EDGE('',*,*,#830,.T.);
#1075=ORIENTED_EDGE('',*,*,#835,.F.);
#1076=ORIENTED_EDGE('',*,*,#836,.F.);
#1077=ORIENTED_EDGE('',*,*,#837,.F.);
#1078=ORIENTED_EDGE('',*,*,#835,.T.);
#1079=ORIENTED_EDGE('',*,*,#829,.F.);
#1080=ORIENTED_EDGE('',*,*,#833,.T.);
#1081=ORIENTED_EDGE('',*,*,#838,.F.);
#1082=ORIENTED_EDGE('',*,*,#839,.F.);
#1083=ORIENTED_EDGE('',*,*,#840,.F.);
#1084=ORIENTED_EDGE('',*,*,#836,.T.);
#1085=ORIENTED_EDGE('',*,*,#840,.T.);
#1086=ORIENTED_EDGE('',*,*,#841,.F.);
#1087=ORIENTED_EDGE('',*,*,#842,.F.);
#1088=ORIENTED_EDGE('',*,*,#837,.T.);
#1089=ORIENTED_EDGE('',*,*,#842,.T.);
#1090=ORIENTED_EDGE('',*,*,#843,.F.);
#1091=ORIENTED_EDGE('',*,*,#844,.F.);
#1092=ORIENTED_EDGE('',*,*,#834,.T.);
#1093=ORIENTED_EDGE('',*,*,#831,.T.);
#1094=ORIENTED_EDGE('',*,*,#845,.F.);
#1095=ORIENTED_EDGE('',*,*,#843,.T.);
#1096=ORIENTED_EDGE('',*,*,#841,.T.);
#1097=ORIENTED_EDGE('',*,*,#839,.T.);
#1098=ORIENTED_EDGE('',*,*,#772,.T.);
#1099=ORIENTED_EDGE('',*,*,#846,.T.);
#1100=ORIENTED_EDGE('',*,*,#847,.T.);
#1101=ORIENTED_EDGE('',*,*,#848,.F.);
#1102=ORIENTED_EDGE('',*,*,#849,.F.);
#1103=ORIENTED_EDGE('',*,*,#846,.F.);
#1104=ORIENTED_EDGE('',*,*,#850,.F.);
#1105=ORIENTED_EDGE('',*,*,#810,.F.);
#1106=ORIENTED_EDGE('',*,*,#851,.F.);
#1107=ORIENTED_EDGE('',*,*,#852,.T.);
#1108=ORIENTED_EDGE('',*,*,#853,.T.);
#1109=ORIENTED_EDGE('',*,*,#854,.F.);
#1110=ORIENTED_EDGE('',*,*,#811,.F.);
#1111=ORIENTED_EDGE('',*,*,#850,.T.);
#1112=ORIENTED_EDGE('',*,*,#849,.T.);
#1113=ORIENTED_EDGE('',*,*,#855,.T.);
#1114=ORIENTED_EDGE('',*,*,#847,.F.);
#1115=ORIENTED_EDGE('',*,*,#851,.T.);
#1116=ORIENTED_EDGE('',*,*,#809,.F.);
#1117=ORIENTED_EDGE('',*,*,#856,.F.);
#1118=ORIENTED_EDGE('',*,*,#857,.F.);
#1119=ORIENTED_EDGE('',*,*,#858,.T.);
#1120=ORIENTED_EDGE('',*,*,#857,.T.);
#1121=ORIENTED_EDGE('',*,*,#859,.F.);
#1122=ORIENTED_EDGE('',*,*,#853,.F.);
#1123=ORIENTED_EDGE('',*,*,#859,.T.);
#1124=ORIENTED_EDGE('',*,*,#856,.T.);
#1125=ORIENTED_EDGE('',*,*,#812,.F.);
#1126=ORIENTED_EDGE('',*,*,#854,.T.);
#1127=ORIENTED_EDGE('',*,*,#775,.T.);
#1128=ORIENTED_EDGE('',*,*,#848,.T.);
#1129=ORIENTED_EDGE('',*,*,#855,.F.);
#1130=ORIENTED_EDGE('',*,*,#858,.F.);
#1131=ORIENTED_EDGE('',*,*,#852,.F.);
#1132=ORIENTED_EDGE('',*,*,#860,.T.);
#1133=ORIENTED_EDGE('',*,*,#861,.T.);
#1134=ORIENTED_EDGE('',*,*,#862,.T.);
#1135=ORIENTED_EDGE('',*,*,#863,.T.);
#1136=ORIENTED_EDGE('',*,*,#864,.T.);
#1137=ORIENTED_EDGE('',*,*,#865,.T.);
#1138=ORIENTED_EDGE('',*,*,#866,.T.);
#1139=ORIENTED_EDGE('',*,*,#867,.T.);
#1140=ORIENTED_EDGE('',*,*,#868,.T.);
#1141=ORIENTED_EDGE('',*,*,#806,.T.);
#1142=ORIENTED_EDGE('',*,*,#869,.T.);
#1143=ORIENTED_EDGE('',*,*,#870,.T.);
#1144=ORIENTED_EDGE('',*,*,#815,.F.);
#1145=ORIENTED_EDGE('',*,*,#871,.F.);
#1146=ORIENTED_EDGE('',*,*,#872,.F.);
#1147=ORIENTED_EDGE('',*,*,#873,.T.);
#1148=ORIENTED_EDGE('',*,*,#816,.F.);
#1149=ORIENTED_EDGE('',*,*,#873,.F.);
#1150=ORIENTED_EDGE('',*,*,#874,.F.);
#1151=ORIENTED_EDGE('',*,*,#875,.F.);
#1152=ORIENTED_EDGE('',*,*,#813,.F.);
#1153=ORIENTED_EDGE('',*,*,#875,.T.);
#1154=ORIENTED_EDGE('',*,*,#876,.F.);
#1155=ORIENTED_EDGE('',*,*,#877,.F.);
#1156=ORIENTED_EDGE('',*,*,#814,.F.);
#1157=ORIENTED_EDGE('',*,*,#877,.T.);
#1158=ORIENTED_EDGE('',*,*,#878,.F.);
#1159=ORIENTED_EDGE('',*,*,#871,.T.);
#1160=ORIENTED_EDGE('',*,*,#879,.F.);
#1161=ORIENTED_EDGE('',*,*,#880,.F.);
#1162=ORIENTED_EDGE('',*,*,#881,.F.);
#1163=ORIENTED_EDGE('',*,*,#882,.T.);
#1164=ORIENTED_EDGE('',*,*,#883,.F.);
#1165=ORIENTED_EDGE('',*,*,#882,.F.);
#1166=ORIENTED_EDGE('',*,*,#884,.F.);
#1167=ORIENTED_EDGE('',*,*,#885,.F.);
#1168=ORIENTED_EDGE('',*,*,#886,.F.);
#1169=ORIENTED_EDGE('',*,*,#885,.T.);
#1170=ORIENTED_EDGE('',*,*,#887,.F.);
#1171=ORIENTED_EDGE('',*,*,#888,.F.);
#1172=ORIENTED_EDGE('',*,*,#889,.F.);
#1173=ORIENTED_EDGE('',*,*,#888,.T.);
#1174=ORIENTED_EDGE('',*,*,#890,.F.);
#1175=ORIENTED_EDGE('',*,*,#880,.T.);
#1176=ORIENTED_EDGE('',*,*,#891,.F.);
#1177=ORIENTED_EDGE('',*,*,#892,.T.);
#1178=ORIENTED_EDGE('',*,*,#893,.F.);
#1179=ORIENTED_EDGE('',*,*,#892,.F.);
#1180=ORIENTED_EDGE('',*,*,#894,.F.);
#1181=ORIENTED_EDGE('',*,*,#895,.T.);
#1182=ORIENTED_EDGE('',*,*,#896,.F.);
#1183=ORIENTED_EDGE('',*,*,#895,.F.);
#1184=ORIENTED_EDGE('',*,*,#897,.F.);
#1185=ORIENTED_EDGE('',*,*,#898,.T.);
#1186=ORIENTED_EDGE('',*,*,#899,.F.);
#1187=ORIENTED_EDGE('',*,*,#898,.F.);
#1188=ORIENTED_EDGE('',*,*,#900,.F.);
#1189=ORIENTED_EDGE('',*,*,#901,.T.);
#1190=ORIENTED_EDGE('',*,*,#902,.F.);
#1191=ORIENTED_EDGE('',*,*,#901,.F.);
#1192=ORIENTED_EDGE('',*,*,#903,.F.);
#1193=ORIENTED_EDGE('',*,*,#904,.T.);
#1194=ORIENTED_EDGE('',*,*,#905,.F.);
#1195=ORIENTED_EDGE('',*,*,#904,.F.);
#1196=ORIENTED_EDGE('',*,*,#906,.F.);
#1197=ORIENTED_EDGE('',*,*,#907,.T.);
#1198=ORIENTED_EDGE('',*,*,#908,.F.);
#1199=ORIENTED_EDGE('',*,*,#907,.F.);
#1200=ORIENTED_EDGE('',*,*,#906,.T.);
#1201=ORIENTED_EDGE('',*,*,#801,.F.);
#1202=ORIENTED_EDGE('',*,*,#909,.F.);
#1203=ORIENTED_EDGE('',*,*,#803,.F.);
#1204=ORIENTED_EDGE('',*,*,#910,.F.);
#1205=ORIENTED_EDGE('',*,*,#802,.F.);
#1206=ORIENTED_EDGE('',*,*,#910,.T.);
#1207=ORIENTED_EDGE('',*,*,#908,.T.);
#1208=ORIENTED_EDGE('',*,*,#911,.F.);
#1209=ORIENTED_EDGE('',*,*,#807,.T.);
#1210=ORIENTED_EDGE('',*,*,#868,.F.);
#1211=ORIENTED_EDGE('',*,*,#912,.F.);
#1212=ORIENTED_EDGE('',*,*,#897,.T.);
#1213=ORIENTED_EDGE('',*,*,#900,.T.);
#1214=ORIENTED_EDGE('',*,*,#903,.T.);
#1215=ORIENTED_EDGE('',*,*,#913,.F.);
#1216=ORIENTED_EDGE('',*,*,#914,.T.);
#1217=ORIENTED_EDGE('',*,*,#869,.F.);
#1218=ORIENTED_EDGE('',*,*,#805,.F.);
#1219=ORIENTED_EDGE('',*,*,#886,.T.);
#1220=ORIENTED_EDGE('',*,*,#889,.T.);
#1221=ORIENTED_EDGE('',*,*,#879,.T.);
#1222=ORIENTED_EDGE('',*,*,#883,.T.);
#1223=ORIENTED_EDGE('',*,*,#893,.T.);
#1224=ORIENTED_EDGE('',*,*,#896,.T.);
#1225=ORIENTED_EDGE('',*,*,#915,.F.);
#1226=ORIENTED_EDGE('',*,*,#912,.T.);
#1227=ORIENTED_EDGE('',*,*,#870,.F.);
#1228=ORIENTED_EDGE('',*,*,#914,.F.);
#1229=ORIENTED_EDGE('',*,*,#792,.T.);
#1230=ORIENTED_EDGE('',*,*,#793,.T.);
#1231=ORIENTED_EDGE('',*,*,#786,.T.);
#1232=ORIENTED_EDGE('',*,*,#780,.T.);
#1233=ORIENTED_EDGE('',*,*,#844,.T.);
#1234=ORIENTED_EDGE('',*,*,#845,.T.);
#1235=ORIENTED_EDGE('',*,*,#838,.T.);
#1236=ORIENTED_EDGE('',*,*,#832,.T.);
#1237=ORIENTED_EDGE('',*,*,#916,.F.);
#1238=ORIENTED_EDGE('',*,*,#917,.T.);
#1239=ORIENTED_EDGE('',*,*,#918,.F.);
#1240=ORIENTED_EDGE('',*,*,#917,.F.);
#1241=ORIENTED_EDGE('',*,*,#916,.T.);
#1242=ORIENTED_EDGE('',*,*,#919,.F.);
#1243=ORIENTED_EDGE('',*,*,#920,.T.);
#1244=ORIENTED_EDGE('',*,*,#921,.F.);
#1245=ORIENTED_EDGE('',*,*,#920,.F.);
#1246=ORIENTED_EDGE('',*,*,#919,.T.);
#1247=ORIENTED_EDGE('',*,*,#918,.T.);
#1248=ORIENTED_EDGE('',*,*,#922,.F.);
#1249=ORIENTED_EDGE('',*,*,#923,.F.);
#1250=ORIENTED_EDGE('',*,*,#924,.F.);
#1251=ORIENTED_EDGE('',*,*,#925,.F.);
#1252=ORIENTED_EDGE('',*,*,#926,.F.);
#1253=ORIENTED_EDGE('',*,*,#927,.F.);
#1254=ORIENTED_EDGE('',*,*,#928,.F.);
#1255=ORIENTED_EDGE('',*,*,#929,.F.);
#1256=ORIENTED_EDGE('',*,*,#930,.F.);
#1257=ORIENTED_EDGE('',*,*,#929,.T.);
#1258=ORIENTED_EDGE('',*,*,#931,.F.);
#1259=ORIENTED_EDGE('',*,*,#861,.F.);
#1260=ORIENTED_EDGE('',*,*,#887,.T.);
#1261=ORIENTED_EDGE('',*,*,#884,.T.);
#1262=ORIENTED_EDGE('',*,*,#881,.T.);
#1263=ORIENTED_EDGE('',*,*,#890,.T.);
#1264=ORIENTED_EDGE('',*,*,#891,.T.);
#1265=ORIENTED_EDGE('',*,*,#894,.T.);
#1266=ORIENTED_EDGE('',*,*,#808,.T.);
#1267=ORIENTED_EDGE('',*,*,#911,.T.);
#1268=ORIENTED_EDGE('',*,*,#915,.T.);
#1269=ORIENTED_EDGE('',*,*,#913,.T.);
#1270=ORIENTED_EDGE('',*,*,#804,.T.);
#1271=ORIENTED_EDGE('',*,*,#909,.T.);
#1272=ORIENTED_EDGE('',*,*,#757,.T.);
#1273=ORIENTED_EDGE('',*,*,#761,.T.);
#1274=ORIENTED_EDGE('',*,*,#921,.T.);
#1275=ORIENTED_EDGE('',*,*,#932,.T.);
#1276=ORIENTED_EDGE('',*,*,#924,.T.);
#1277=ORIENTED_EDGE('',*,*,#933,.T.);
#1278=ORIENTED_EDGE('',*,*,#866,.F.);
#1279=ORIENTED_EDGE('',*,*,#933,.F.);
#1280=ORIENTED_EDGE('',*,*,#923,.T.);
#1281=ORIENTED_EDGE('',*,*,#934,.F.);
#1282=ORIENTED_EDGE('',*,*,#867,.F.);
#1283=ORIENTED_EDGE('',*,*,#934,.T.);
#1284=ORIENTED_EDGE('',*,*,#922,.T.);
#1285=ORIENTED_EDGE('',*,*,#930,.T.);
#1286=ORIENTED_EDGE('',*,*,#860,.F.);
#1287=ORIENTED_EDGE('',*,*,#931,.T.);
#1288=ORIENTED_EDGE('',*,*,#928,.T.);
#1289=ORIENTED_EDGE('',*,*,#935,.T.);
#1290=ORIENTED_EDGE('',*,*,#862,.F.);
#1291=ORIENTED_EDGE('',*,*,#935,.F.);
#1292=ORIENTED_EDGE('',*,*,#927,.T.);
#1293=ORIENTED_EDGE('',*,*,#936,.F.);
#1294=ORIENTED_EDGE('',*,*,#863,.F.);
#1295=ORIENTED_EDGE('',*,*,#876,.T.);
#1296=ORIENTED_EDGE('',*,*,#874,.T.);
#1297=ORIENTED_EDGE('',*,*,#872,.T.);
#1298=ORIENTED_EDGE('',*,*,#878,.T.);
#1299=ORIENTED_EDGE('',*,*,#936,.T.);
#1300=ORIENTED_EDGE('',*,*,#926,.T.);
#1301=ORIENTED_EDGE('',*,*,#937,.T.);
#1302=ORIENTED_EDGE('',*,*,#864,.F.);
#1303=ORIENTED_EDGE('',*,*,#937,.F.);
#1304=ORIENTED_EDGE('',*,*,#925,.T.);
#1305=ORIENTED_EDGE('',*,*,#932,.F.);
#1306=ORIENTED_EDGE('',*,*,#865,.F.);
#1307=ORIENTED_EDGE('',*,*,#905,.T.);
#1308=ORIENTED_EDGE('',*,*,#902,.T.);
#1309=ORIENTED_EDGE('',*,*,#899,.T.);
#1310=CYLINDRICAL_SURFACE('',#1426,1.75000000000001);
#1311=CYLINDRICAL_SURFACE('',#1430,3.50000000000001);
#1312=CYLINDRICAL_SURFACE('',#1437,3.5);
#1313=CYLINDRICAL_SURFACE('',#1441,1.75000000000001);
#1314=CYLINDRICAL_SURFACE('',#1442,1.75000000000001);
#1315=CYLINDRICAL_SURFACE('',#1446,1.75000000000001);
#1316=CYLINDRICAL_SURFACE('',#1450,1.75000000000001);
#1317=CYLINDRICAL_SURFACE('',#1454,1.75000000000001);
#1318=CYLINDRICAL_SURFACE('',#1500,3.24999999999999);
#1319=CYLINDRICAL_SURFACE('',#1503,3.24999999999999);
#1320=CYLINDRICAL_SURFACE('',#1506,1.75000000000001);
#1321=CYLINDRICAL_SURFACE('',#1509,1.75000000000001);
#1322=CYLINDRICAL_SURFACE('',#1512,12.1);
#1323=CYLINDRICAL_SURFACE('',#1515,1.75000000000001);
#1324=CYLINDRICAL_SURFACE('',#1519,3.50000000000001);
#1325=CYLINDRICAL_SURFACE('',#1526,1.75000000000001);
#1326=CYLINDRICAL_SURFACE('',#1530,3.5);
#1327=CYLINDRICAL_SURFACE('',#1541,3.);
#1328=CYLINDRICAL_SURFACE('',#1543,3.);
#1329=CYLINDRICAL_SURFACE('',#1544,3.);
#1330=CYLINDRICAL_SURFACE('',#1546,3.);
#1331=ADVANCED_FACE('',(#108),#1310,.F.);
#1332=ADVANCED_FACE('',(#109),#49,.T.);
#1333=ADVANCED_FACE('',(#110),#1311,.T.);
#1334=ADVANCED_FACE('',(#111,#19),#50,.T.);
#1335=ADVANCED_FACE('',(#112,#20),#51,.T.);
#1336=ADVANCED_FACE('',(#113),#1312,.T.);
#1337=ADVANCED_FACE('',(#114),#52,.T.);
#1338=ADVANCED_FACE('',(#115),#1313,.F.);
#1339=ADVANCED_FACE('',(#116),#1314,.F.);
#1340=ADVANCED_FACE('',(#117),#53,.T.);
#1341=ADVANCED_FACE('',(#118),#1315,.F.);
#1342=ADVANCED_FACE('',(#119),#54,.T.);
#1343=ADVANCED_FACE('',(#120),#1316,.F.);
#1344=ADVANCED_FACE('',(#121),#55,.T.);
#1345=ADVANCED_FACE('',(#122),#1317,.F.);
#1346=ADVANCED_FACE('',(#123),#56,.T.);
#1347=ADVANCED_FACE('',(#124),#57,.T.);
#1348=ADVANCED_FACE('',(#125),#58,.F.);
#1349=ADVANCED_FACE('',(#126),#59,.F.);
#1350=ADVANCED_FACE('',(#127),#60,.T.);
#1351=ADVANCED_FACE('',(#128),#61,.T.);
#1352=ADVANCED_FACE('',(#129),#62,.T.);
#1353=ADVANCED_FACE('',(#130,#21),#63,.T.);
#1354=ADVANCED_FACE('',(#131),#64,.T.);
#1355=ADVANCED_FACE('',(#132),#65,.F.);
#1356=ADVANCED_FACE('',(#133,#22,#23,#24),#66,.F.);
#1357=ADVANCED_FACE('',(#134),#67,.T.);
#1358=ADVANCED_FACE('',(#135),#68,.T.);
#1359=ADVANCED_FACE('',(#136),#69,.T.);
#1360=ADVANCED_FACE('',(#137,#25),#70,.T.);
#1361=ADVANCED_FACE('',(#138),#71,.F.);
#1362=ADVANCED_FACE('',(#139),#72,.T.);
#1363=ADVANCED_FACE('',(#140),#73,.F.);
#1364=ADVANCED_FACE('',(#141),#74,.F.);
#1365=ADVANCED_FACE('',(#142),#75,.T.);
#1366=ADVANCED_FACE('',(#143),#76,.T.);
#1367=ADVANCED_FACE('',(#144),#77,.T.);
#1368=ADVANCED_FACE('',(#145,#26),#78,.T.);
#1369=ADVANCED_FACE('',(#146),#79,.T.);
#1370=ADVANCED_FACE('',(#147),#80,.F.);
#1371=ADVANCED_FACE('',(#148),#81,.T.);
#1372=ADVANCED_FACE('',(#149),#82,.T.);
#1373=ADVANCED_FACE('',(#150),#83,.T.);
#1374=ADVANCED_FACE('',(#151,#27),#84,.T.);
#1375=ADVANCED_FACE('',(#152),#85,.F.);
#1376=ADVANCED_FACE('',(#153,#28),#86,.T.);
#1377=ADVANCED_FACE('',(#154),#87,.F.);
#1378=ADVANCED_FACE('',(#155),#88,.F.);
#1379=ADVANCED_FACE('',(#156),#89,.F.);
#1380=ADVANCED_FACE('',(#157),#90,.T.);
#1381=ADVANCED_FACE('',(#158),#91,.F.);
#1382=ADVANCED_FACE('',(#159),#92,.F.);
#1383=ADVANCED_FACE('',(#160),#93,.F.);
#1384=ADVANCED_FACE('',(#161),#94,.T.);
#1385=ADVANCED_FACE('',(#162),#1318,.F.);
#1386=ADVANCED_FACE('',(#163),#1319,.F.);
#1387=ADVANCED_FACE('',(#164),#1320,.F.);
#1388=ADVANCED_FACE('',(#165),#1321,.F.);
#1389=ADVANCED_FACE('',(#166),#1322,.F.);
#1390=ADVANCED_FACE('',(#167),#1323,.F.);
#1391=ADVANCED_FACE('',(#168),#95,.T.);
#1392=ADVANCED_FACE('',(#169),#1324,.T.);
#1393=ADVANCED_FACE('',(#170,#29),#96,.T.);
#1394=ADVANCED_FACE('',(#171,#30,#31,#32),#97,.F.);
#1395=ADVANCED_FACE('',(#172,#33,#34,#35),#98,.F.);
#1396=ADVANCED_FACE('',(#173,#36,#37),#99,.F.);
#1397=ADVANCED_FACE('',(#174),#1325,.F.);
#1398=ADVANCED_FACE('',(#175),#100,.T.);
#1399=ADVANCED_FACE('',(#176),#1326,.T.);
#1400=ADVANCED_FACE('',(#177,#38),#101,.T.);
#1401=ADVANCED_FACE('',(#178),#102,.F.);
#1402=ADVANCED_FACE('',(#179,#39,#40,#41),#103,.T.);
#1403=ADVANCED_FACE('',(#180,#42,#43,#44),#104,.T.);
#1404=ADVANCED_FACE('',(#181),#1327,.T.);
#1405=ADVANCED_FACE('',(#182),#105,.T.);
#1406=ADVANCED_FACE('',(#183),#1328,.T.);
#1407=ADVANCED_FACE('',(#184),#1329,.T.);
#1408=ADVANCED_FACE('',(#185,#45),#106,.T.);
#1409=ADVANCED_FACE('',(#186),#1330,.T.);
#1410=ADVANCED_FACE('',(#187,#46,#47,#48),#107,.T.);
#1411=CLOSED_SHELL('',(#1331,#1332,#1333,#1334,#1335,#1336,#1337,#1338,
#1339,#1340,#1341,#1342,#1343,#1344,#1345,#1346,#1347,#1348,#1349,#1350,
#1351,#1352,#1353,#1354,#1355,#1356,#1357,#1358,#1359,#1360,#1361,#1362,
#1363,#1364,#1365,#1366,#1367,#1368,#1369,#1370,#1371,#1372,#1373,#1374,
#1375,#1376,#1377,#1378,#1379,#1380,#1381,#1382,#1383,#1384,#1385,#1386,
#1387,#1388,#1389,#1390,#1391,#1392,#1393,#1394,#1395,#1396,#1397,#1398,
#1399,#1400,#1401,#1402,#1403,#1404,#1405,#1406,#1407,#1408,#1409,#1410));
#1412=DERIVED_UNIT_ELEMENT(#1414,1.);
#1413=DERIVED_UNIT_ELEMENT(#2343,-3.);
#1414=(
MASS_UNIT()
NAMED_UNIT(*)
SI_UNIT(.KILO.,.GRAM.)
);
#1415=DERIVED_UNIT((#1412,#1413));
#1416=MEASURE_REPRESENTATION_ITEM('density measure',
POSITIVE_RATIO_MEASURE(7850.),#1415);
#1417=PROPERTY_DEFINITION_REPRESENTATION(#1422,#1419);
#1418=PROPERTY_DEFINITION_REPRESENTATION(#1423,#1420);
#1419=REPRESENTATION('material name',(#1421),#2340);
#1420=REPRESENTATION('density',(#1416),#2340);
#1421=DESCRIPTIVE_REPRESENTATION_ITEM('Steel','Steel');
#1422=PROPERTY_DEFINITION('material property','material name',#2355);
#1423=PROPERTY_DEFINITION('material property','density of part',#2355);
#1424=AXIS2_PLACEMENT_3D('',#1943,#1549,#1550);
#1425=AXIS2_PLACEMENT_3D('',#1944,#1551,#1552);
#1426=AXIS2_PLACEMENT_3D('',#1945,#1553,#1554);
#1427=AXIS2_PLACEMENT_3D('',#1947,#1555,#1556);
#1428=AXIS2_PLACEMENT_3D('',#1950,#1558,#1559);
#1429=AXIS2_PLACEMENT_3D('',#1951,#1560,#1561);
#1430=AXIS2_PLACEMENT_3D('',#1952,#1562,#1563);
#1431=AXIS2_PLACEMENT_3D('',#1954,#1564,#1565);
#1432=AXIS2_PLACEMENT_3D('',#1957,#1567,#1568);
#1433=AXIS2_PLACEMENT_3D('',#1958,#1569,#1570);
#1434=AXIS2_PLACEMENT_3D('',#1959,#1571,#1572);
#1435=AXIS2_PLACEMENT_3D('',#1961,#1573,#1574);
#1436=AXIS2_PLACEMENT_3D('',#1963,#1575,#1576);
#1437=AXIS2_PLACEMENT_3D('',#1964,#1577,#1578);
#1438=AXIS2_PLACEMENT_3D('',#1967,#1580,#1581);
#1439=AXIS2_PLACEMENT_3D('',#1968,#1582,#1583);
#1440=AXIS2_PLACEMENT_3D('',#1970,#1584,#1585);
#1441=AXIS2_PLACEMENT_3D('',#1971,#1586,#1587);
#1442=AXIS2_PLACEMENT_3D('',#1973,#1589,#1590);
#1443=AXIS2_PLACEMENT_3D('',#1975,#1591,#1592);
#1444=AXIS2_PLACEMENT_3D('',#1978,#1594,#1595);
#1445=AXIS2_PLACEMENT_3D('',#1979,#1596,#1597);
#1446=AXIS2_PLACEMENT_3D('',#1980,#1598,#1599);
#1447=AXIS2_PLACEMENT_3D('',#1982,#1600,#1601);
#1448=AXIS2_PLACEMENT_3D('',#1985,#1603,#1604);
#1449=AXIS2_PLACEMENT_3D('',#1986,#1605,#1606);
#1450=AXIS2_PLACEMENT_3D('',#1987,#1607,#1608);
#1451=AXIS2_PLACEMENT_3D('',#1989,#1609,#1610);
#1452=AXIS2_PLACEMENT_3D('',#1992,#1612,#1613);
#1453=AXIS2_PLACEMENT_3D('',#1993,#1614,#1615);
#1454=AXIS2_PLACEMENT_3D('',#1994,#1616,#1617);
#1455=AXIS2_PLACEMENT_3D('',#1996,#1618,#1619);
#1456=AXIS2_PLACEMENT_3D('',#1999,#1621,#1622);
#1457=AXIS2_PLACEMENT_3D('',#2000,#1623,#1624);
#1458=AXIS2_PLACEMENT_3D('',#2001,#1625,#1626);
#1459=AXIS2_PLACEMENT_3D('',#2010,#1631,#1632);
#1460=AXIS2_PLACEMENT_3D('',#2016,#1636,#1637);
#1461=AXIS2_PLACEMENT_3D('',#2022,#1641,#1642);
#1462=AXIS2_PLACEMENT_3D('',#2028,#1646,#1647);
#1463=AXIS2_PLACEMENT_3D('',#2032,#1650,#1651);
#1464=AXIS2_PLACEMENT_3D('',#2036,#1654,#1655);
#1465=AXIS2_PLACEMENT_3D('',#2038,#1657,#1658);
#1466=AXIS2_PLACEMENT_3D('',#2047,#1663,#1664);
#1467=AXIS2_PLACEMENT_3D('',#2053,#1668,#1669);
#1468=AXIS2_PLACEMENT_3D('',#2091,#1689,#1690);
#1469=AXIS2_PLACEMENT_3D('',#2097,#1694,#1695);
#1470=AXIS2_PLACEMENT_3D('',#2103,#1699,#1700);
#1471=AXIS2_PLACEMENT_3D('',#2106,#1703,#1704);
#1472=AXIS2_PLACEMENT_3D('',#2107,#1705,#1706);
#1473=AXIS2_PLACEMENT_3D('',#2108,#1707,#1708);
#1474=AXIS2_PLACEMENT_3D('',#2117,#1713,#1714);
#1475=AXIS2_PLACEMENT_3D('',#2123,#1718,#1719);
#1476=AXIS2_PLACEMENT_3D('',#2129,#1723,#1724);
#1477=AXIS2_PLACEMENT_3D('',#2135,#1728,#1729);
#1478=AXIS2_PLACEMENT_3D('',#2139,#1732,#1733);
#1479=AXIS2_PLACEMENT_3D('',#2143,#1736,#1737);
#1480=AXIS2_PLACEMENT_3D('',#2145,#1739,#1740);
#1481=AXIS2_PLACEMENT_3D('',#2154,#1745,#1746);
#1482=AXIS2_PLACEMENT_3D('',#2157,#1749,#1750);
#1483=AXIS2_PLACEMENT_3D('',#2163,#1754,#1755);
#1484=AXIS2_PLACEMENT_3D('',#2169,#1759,#1760);
#1485=AXIS2_PLACEMENT_3D('',#2172,#1763,#1764);
#1486=AXIS2_PLACEMENT_3D('',#2173,#1765,#1766);
#1487=AXIS2_PLACEMENT_3D('',#2174,#1767,#1768);
#1488=AXIS2_PLACEMENT_3D('',#2177,#1769,#1770);
#1489=AXIS2_PLACEMENT_3D('',#2181,#1772,#1773);
#1490=AXIS2_PLACEMENT_3D('',#2185,#1775,#1776);
#1491=AXIS2_PLACEMENT_3D('',#2189,#1778,#1779);
#1492=AXIS2_PLACEMENT_3D('',#2196,#1784,#1785);
#1493=AXIS2_PLACEMENT_3D('',#2202,#1789,#1790);
#1494=AXIS2_PLACEMENT_3D('',#2206,#1793,#1794);
#1495=AXIS2_PLACEMENT_3D('',#2210,#1797,#1798);
#1496=AXIS2_PLACEMENT_3D('',#2212,#1800,#1801);
#1497=AXIS2_PLACEMENT_3D('',#2221,#1806,#1807);
#1498=AXIS2_PLACEMENT_3D('',#2227,#1811,#1812);
#1499=AXIS2_PLACEMENT_3D('',#2233,#1816,#1817);
#1500=AXIS2_PLACEMENT_3D('',#2236,#1820,#1821);
#1501=AXIS2_PLACEMENT_3D('',#2238,#1822,#1823);
#1502=AXIS2_PLACEMENT_3D('',#2241,#1825,#1826);
#1503=AXIS2_PLACEMENT_3D('',#2242,#1827,#1828);
#1504=AXIS2_PLACEMENT_3D('',#2244,#1829,#1830);
#1505=AXIS2_PLACEMENT_3D('',#2247,#1832,#1833);
#1506=AXIS2_PLACEMENT_3D('',#2248,#1834,#1835);
#1507=AXIS2_PLACEMENT_3D('',#2250,#1836,#1837);
#1508=AXIS2_PLACEMENT_3D('',#2253,#1839,#1840);
#1509=AXIS2_PLACEMENT_3D('',#2254,#1841,#1842);
#1510=AXIS2_PLACEMENT_3D('',#2256,#1843,#1844);
#1511=AXIS2_PLACEMENT_3D('',#2259,#1846,#1847);
#1512=AXIS2_PLACEMENT_3D('',#2260,#1848,#1849);
#1513=AXIS2_PLACEMENT_3D('',#2262,#1850,#1851);
#1514=AXIS2_PLACEMENT_3D('',#2265,#1853,#1854);
#1515=AXIS2_PLACEMENT_3D('',#2266,#1855,#1856);
#1516=AXIS2_PLACEMENT_3D('',#2268,#1857,#1858);
#1517=AXIS2_PLACEMENT_3D('',#2271,#1860,#1861);
#1518=AXIS2_PLACEMENT_3D('',#2272,#1862,#1863);
#1519=AXIS2_PLACEMENT_3D('',#2273,#1864,#1865);
#1520=AXIS2_PLACEMENT_3D('',#2274,#1866,#1867);
#1521=AXIS2_PLACEMENT_3D('',#2275,#1868,#1869);
#1522=AXIS2_PLACEMENT_3D('',#2276,#1870,#1871);
#1523=AXIS2_PLACEMENT_3D('',#2277,#1872,#1873);
#1524=AXIS2_PLACEMENT_3D('',#2281,#1876,#1877);
#1525=AXIS2_PLACEMENT_3D('',#2285,#1880,#1881);
#1526=AXIS2_PLACEMENT_3D('',#2287,#1883,#1884);
#1527=AXIS2_PLACEMENT_3D('',#2289,#1885,#1886);
#1528=AXIS2_PLACEMENT_3D('',#2292,#1888,#1889);
#1529=AXIS2_PLACEMENT_3D('',#2293,#1890,#1891);
#1530=AXIS2_PLACEMENT_3D('',#2294,#1892,#1893);
#1531=AXIS2_PLACEMENT_3D('',#2296,#1894,#1895);
#1532=AXIS2_PLACEMENT_3D('',#2299,#1897,#1898);
#1533=AXIS2_PLACEMENT_3D('',#2300,#1899,#1900);
#1534=AXIS2_PLACEMENT_3D('',#2301,#1901,#1902);
#1535=AXIS2_PLACEMENT_3D('',#2304,#1903,#1904);
#1536=AXIS2_PLACEMENT_3D('',#2308,#1906,#1907);
#1537=AXIS2_PLACEMENT_3D('',#2312,#1909,#1910);
#1538=AXIS2_PLACEMENT_3D('',#2316,#1912,#1913);
#1539=AXIS2_PLACEMENT_3D('',#2318,#1915,#1916);
#1540=AXIS2_PLACEMENT_3D('',#2321,#1919,#1920);
#1541=AXIS2_PLACEMENT_3D('',#2322,#1921,#1922);
#1542=AXIS2_PLACEMENT_3D('',#2325,#1925,#1926);
#1543=AXIS2_PLACEMENT_3D('',#2327,#1928,#1929);
#1544=AXIS2_PLACEMENT_3D('',#2328,#1930,#1931);
#1545=AXIS2_PLACEMENT_3D('',#2330,#1933,#1934);
#1546=AXIS2_PLACEMENT_3D('',#2332,#1936,#1937);
#1547=AXIS2_PLACEMENT_3D('',#2334,#1939,#1940);
#1548=AXIS2_PLACEMENT_3D('',#2335,#1941,#1942);
#1549=DIRECTION('axis',(0.,0.,1.));
#1550=DIRECTION('refdir',(1.,0.,0.));
#1551=DIRECTION('axis',(0.,0.,1.));
#1552=DIRECTION('refdir',(1.,0.,0.));
#1553=DIRECTION('center_axis',(0.,0.,1.));
#1554=DIRECTION('ref_axis',(1.,0.,0.));
#1555=DIRECTION('center_axis',(0.,0.,1.));
#1556=DIRECTION('ref_axis',(1.,0.,0.));
#1557=DIRECTION('',(0.,0.,1.));
#1558=DIRECTION('center_axis',(0.,0.,-1.));
#1559=DIRECTION('ref_axis',(1.,0.,0.));
#1560=DIRECTION('center_axis',(0.,0.,1.));
#1561=DIRECTION('ref_axis',(1.,0.,0.));
#1562=DIRECTION('center_axis',(0.,0.,1.));
#1563=DIRECTION('ref_axis',(1.,0.,0.));
#1564=DIRECTION('center_axis',(0.,0.,1.));
#1565=DIRECTION('ref_axis',(1.,0.,0.));
#1566=DIRECTION('',(0.,0.,-1.));
#1567=DIRECTION('center_axis',(0.,0.,-1.));
#1568=DIRECTION('ref_axis',(1.,0.,0.));
#1569=DIRECTION('center_axis',(0.,0.,1.));
#1570=DIRECTION('ref_axis',(1.,0.,0.));
#1571=DIRECTION('center_axis',(0.,0.,1.));
#1572=DIRECTION('ref_axis',(1.,0.,0.));
#1573=DIRECTION('center_axis',(0.,0.,1.));
#1574=DIRECTION('ref_axis',(1.,0.,0.));
#1575=DIRECTION('center_axis',(0.,0.,-1.));
#1576=DIRECTION('ref_axis',(1.,0.,0.));
#1577=DIRECTION('center_axis',(0.,0.,1.));
#1578=DIRECTION('ref_axis',(1.,0.,0.));
#1579=DIRECTION('',(0.,0.,-1.));
#1580=DIRECTION('center_axis',(0.,0.,-1.));
#1581=DIRECTION('ref_axis',(1.,0.,0.));
#1582=DIRECTION('center_axis',(0.,0.,1.));
#1583=DIRECTION('ref_axis',(1.,0.,0.));
#1584=DIRECTION('center_axis',(0.,0.,1.));
#1585=DIRECTION('ref_axis',(1.,0.,0.));
#1586=DIRECTION('center_axis',(0.,0.,1.));
#1587=DIRECTION('ref_axis',(1.,0.,0.));
#1588=DIRECTION('',(0.,0.,1.));
#1589=DIRECTION('center_axis',(0.,0.,1.));
#1590=DIRECTION('ref_axis',(1.,0.,0.));
#1591=DIRECTION('center_axis',(0.,0.,1.));
#1592=DIRECTION('ref_axis',(1.,0.,0.));
#1593=DIRECTION('',(0.,0.,1.));
#1594=DIRECTION('center_axis',(0.,0.,-1.));
#1595=DIRECTION('ref_axis',(1.,0.,0.));
#1596=DIRECTION('center_axis',(0.,0.,1.));
#1597=DIRECTION('ref_axis',(1.,0.,0.));
#1598=DIRECTION('center_axis',(0.,0.,1.));
#1599=DIRECTION('ref_axis',(1.,0.,0.));
#1600=DIRECTION('center_axis',(0.,0.,1.));
#1601=DIRECTION('ref_axis',(1.,0.,0.));
#1602=DIRECTION('',(0.,0.,1.));
#1603=DIRECTION('center_axis',(0.,0.,-1.));
#1604=DIRECTION('ref_axis',(1.,0.,0.));
#1605=DIRECTION('center_axis',(0.,0.,1.));
#1606=DIRECTION('ref_axis',(1.,0.,0.));
#1607=DIRECTION('center_axis',(0.,0.,1.));
#1608=DIRECTION('ref_axis',(1.,0.,0.));
#1609=DIRECTION('center_axis',(0.,0.,1.));
#1610=DIRECTION('ref_axis',(1.,0.,0.));
#1611=DIRECTION('',(0.,0.,1.));
#1612=DIRECTION('center_axis',(0.,0.,-1.));
#1613=DIRECTION('ref_axis',(1.,0.,0.));
#1614=DIRECTION('center_axis',(0.,0.,1.));
#1615=DIRECTION('ref_axis',(1.,0.,0.));
#1616=DIRECTION('center_axis',(0.,0.,1.));
#1617=DIRECTION('ref_axis',(1.,0.,0.));
#1618=DIRECTION('center_axis',(0.,0.,1.));
#1619=DIRECTION('ref_axis',(1.,0.,0.));
#1620=DIRECTION('',(0.,0.,1.));
#1621=DIRECTION('center_axis',(0.,0.,-1.));
#1622=DIRECTION('ref_axis',(1.,0.,0.));
#1623=DIRECTION('center_axis',(0.,0.,1.));
#1624=DIRECTION('ref_axis',(1.,0.,0.));
#1625=DIRECTION('center_axis',(1.,0.,0.));
#1626=DIRECTION('ref_axis',(0.,1.,0.));
#1627=DIRECTION('',(0.,1.,0.));
#1628=DIRECTION('',(0.,0.,1.));
#1629=DIRECTION('',(0.,1.,0.));
#1630=DIRECTION('',(0.,0.,1.));
#1631=DIRECTION('center_axis',(0.,0.,1.));
#1632=DIRECTION('ref_axis',(1.,0.,0.));
#1633=DIRECTION('',(0.,-1.,0.));
#1634=DIRECTION('',(-1.,0.,0.));
#1635=DIRECTION('',(1.,0.,0.));
#1636=DIRECTION('center_axis',(0.,0.,1.));
#1637=DIRECTION('ref_axis',(1.,0.,0.));
#1638=DIRECTION('',(-1.,0.,0.));
#1639=DIRECTION('',(0.,1.,0.));
#1640=DIRECTION('',(1.,0.,0.));
#1641=DIRECTION('center_axis',(0.,1.,0.));
#1642=DIRECTION('ref_axis',(-1.,0.,0.));
#1643=DIRECTION('',(0.,0.,-1.));
#1644=DIRECTION('',(-1.,0.,0.));
#1645=DIRECTION('',(0.,0.,1.));
#1646=DIRECTION('center_axis',(1.,0.,0.));
#1647=DIRECTION('ref_axis',(0.,1.,0.));
#1648=DIRECTION('',(0.,1.,0.));
#1649=DIRECTION('',(0.,0.,1.));
#1650=DIRECTION('center_axis',(0.,-1.,0.));
#1651=DIRECTION('ref_axis',(1.,0.,0.));
#1652=DIRECTION('',(1.,0.,0.));
#1653=DIRECTION('',(0.,0.,1.));
#1654=DIRECTION('center_axis',(0.,0.,1.));
#1655=DIRECTION('ref_axis',(1.,0.,0.));
#1656=DIRECTION('',(0.,1.,0.));
#1657=DIRECTION('center_axis',(-1.,0.,0.));
#1658=DIRECTION('ref_axis',(0.,-1.,0.));
#1659=DIRECTION('',(0.,-1.,0.));
#1660=DIRECTION('',(0.,0.,1.));
#1661=DIRECTION('',(0.,-1.,0.));
#1662=DIRECTION('',(0.,0.,1.));
#1663=DIRECTION('center_axis',(0.,0.,1.));
#1664=DIRECTION('ref_axis',(1.,0.,0.));
#1665=DIRECTION('',(-1.,0.,0.));
#1666=DIRECTION('',(0.,1.,0.));
#1667=DIRECTION('',(1.,0.,0.));
#1668=DIRECTION('center_axis',(1.,0.,0.));
#1669=DIRECTION('ref_axis',(0.,1.,0.));
#1670=DIRECTION('',(0.,0.,1.));
#1671=DIRECTION('',(0.,-1.,0.));
#1672=DIRECTION('',(0.,0.,-1.));
#1673=DIRECTION('',(0.,1.,0.));
#1674=DIRECTION('',(0.,0.,1.));
#1675=DIRECTION('',(0.,-1.,0.));
#1676=DIRECTION('',(0.,0.,1.));
#1677=DIRECTION('',(0.,1.,0.));
#1678=DIRECTION('',(0.,0.,-1.));
#1679=DIRECTION('',(0.,1.,0.));
#1680=DIRECTION('',(0.,0.,1.));
#1681=DIRECTION('',(0.,-1.,0.));
#1682=DIRECTION('',(0.,0.,-1.));
#1683=DIRECTION('',(0.,1.,0.));
#1684=DIRECTION('',(0.,0.,1.));
#1685=DIRECTION('',(0.,-1.,0.));
#1686=DIRECTION('',(0.,0.,-1.));
#1687=DIRECTION('',(0.,0.,1.));
#1688=DIRECTION('',(0.,-1.,0.));
#1689=DIRECTION('center_axis',(0.,1.,0.));
#1690=DIRECTION('ref_axis',(-1.,0.,0.));
#1691=DIRECTION('',(-1.,0.,0.));
#1692=DIRECTION('',(0.,0.,1.));
#1693=DIRECTION('',(-1.,0.,0.));
#1694=DIRECTION('center_axis',(0.,-1.,0.));
#1695=DIRECTION('ref_axis',(1.,0.,0.));
#1696=DIRECTION('',(1.,0.,0.));
#1697=DIRECTION('',(1.,0.,0.));
#1698=DIRECTION('',(0.,0.,1.));
#1699=DIRECTION('center_axis',(-1.,0.,0.));
#1700=DIRECTION('ref_axis',(0.,-1.,0.));
#1701=DIRECTION('',(0.,-1.,0.));
#1702=DIRECTION('',(0.,-1.,0.));
#1703=DIRECTION('center_axis',(0.,0.,1.));
#1704=DIRECTION('ref_axis',(1.,0.,0.));
#1705=DIRECTION('center_axis',(0.,0.,1.));
#1706=DIRECTION('ref_axis',(1.,0.,0.));
#1707=DIRECTION('center_axis',(1.,0.,0.));
#1708=DIRECTION('ref_axis',(0.,1.,0.));
#1709=DIRECTION('',(0.,1.,0.));
#1710=DIRECTION('',(0.,0.,1.));
#1711=DIRECTION('',(0.,1.,0.));
#1712=DIRECTION('',(0.,0.,1.));
#1713=DIRECTION('center_axis',(0.,0.,1.));
#1714=DIRECTION('ref_axis',(1.,0.,0.));
#1715=DIRECTION('',(0.,-1.,0.));
#1716=DIRECTION('',(-1.,0.,0.));
#1717=DIRECTION('',(1.,0.,0.));
#1718=DIRECTION('center_axis',(0.,0.,1.));
#1719=DIRECTION('ref_axis',(1.,0.,0.));
#1720=DIRECTION('',(-1.,0.,0.));
#1721=DIRECTION('',(0.,1.,0.));
#1722=DIRECTION('',(1.,0.,0.));
#1723=DIRECTION('center_axis',(0.,1.,0.));
#1724=DIRECTION('ref_axis',(-1.,0.,0.));
#1725=DIRECTION('',(0.,0.,-1.));
#1726=DIRECTION('',(-1.,0.,0.));
#1727=DIRECTION('',(0.,0.,1.));
#1728=DIRECTION('center_axis',(1.,0.,0.));
#1729=DIRECTION('ref_axis',(0.,1.,0.));
#1730=DIRECTION('',(0.,1.,0.));
#1731=DIRECTION('',(0.,0.,1.));
#1732=DIRECTION('center_axis',(0.,-1.,0.));
#1733=DIRECTION('ref_axis',(1.,0.,0.));
#1734=DIRECTION('',(1.,0.,0.));
#1735=DIRECTION('',(0.,0.,1.));
#1736=DIRECTION('center_axis',(0.,0.,1.));
#1737=DIRECTION('ref_axis',(1.,0.,0.));
#1738=DIRECTION('',(0.,1.,0.));
#1739=DIRECTION('center_axis',(-1.,0.,0.));
#1740=DIRECTION('ref_axis',(0.,-1.,0.));
#1741=DIRECTION('',(0.,-1.,0.));
#1742=DIRECTION('',(0.,0.,1.));
#1743=DIRECTION('',(0.,-1.,0.));
#1744=DIRECTION('',(0.,0.,1.));
#1745=DIRECTION('center_axis',(0.,0.,1.));
#1746=DIRECTION('ref_axis',(1.,0.,0.));
#1747=DIRECTION('',(-1.,0.,0.));
#1748=DIRECTION('',(1.,0.,0.));
#1749=DIRECTION('center_axis',(0.,1.,0.));
#1750=DIRECTION('ref_axis',(-1.,0.,0.));
#1751=DIRECTION('',(-1.,0.,0.));
#1752=DIRECTION('',(0.,0.,1.));
#1753=DIRECTION('',(-1.,0.,0.));
#1754=DIRECTION('center_axis',(0.,-1.,0.));
#1755=DIRECTION('ref_axis',(1.,0.,0.));
#1756=DIRECTION('',(1.,0.,0.));
#1757=DIRECTION('',(1.,0.,0.));
#1758=DIRECTION('',(0.,0.,1.));
#1759=DIRECTION('center_axis',(-1.,0.,0.));
#1760=DIRECTION('ref_axis',(0.,-1.,0.));
#1761=DIRECTION('',(0.,-1.,0.));
#1762=DIRECTION('',(0.,-1.,0.));
#1763=DIRECTION('center_axis',(0.,0.,1.));
#1764=DIRECTION('ref_axis',(1.,0.,0.));
#1765=DIRECTION('center_axis',(0.,0.,1.));
#1766=DIRECTION('ref_axis',(1.,0.,0.));
#1767=DIRECTION('center_axis',(0.,0.,1.));
#1768=DIRECTION('ref_axis',(1.,0.,0.));
#1769=DIRECTION('center_axis',(0.,0.,1.));
#1770=DIRECTION('ref_axis',(-0.707106781186548,-0.707106781186548,0.));
#1771=DIRECTION('',(1.,0.,0.));
#1772=DIRECTION('center_axis',(0.,0.,1.));
#1773=DIRECTION('ref_axis',(0.707106781186543,-0.707106781186552,0.));
#1774=DIRECTION('',(0.,1.,0.));
#1775=DIRECTION('center_axis',(0.,0.,1.));
#1776=DIRECTION('ref_axis',(0.707106781186543,0.707106781186552,0.));
#1777=DIRECTION('',(-1.,-9.73879846162417E-17,0.));
#1778=DIRECTION('center_axis',(0.,0.,1.));
#1779=DIRECTION('ref_axis',(-0.707106781186549,0.707106781186546,0.));
#1780=DIRECTION('',(0.,-1.,0.));
#1781=DIRECTION('',(1.,2.17690789142187E-16,0.));
#1782=DIRECTION('',(-1.,0.,0.));
#1783=DIRECTION('',(0.,1.,0.));
#1784=DIRECTION('center_axis',(0.,1.,0.));
#1785=DIRECTION('ref_axis',(-1.,0.,0.));
#1786=DIRECTION('',(-1.,0.,0.));
#1787=DIRECTION('',(0.,0.,-1.));
#1788=DIRECTION('',(-1.,0.,0.));
#1789=DIRECTION('center_axis',(0.,0.,1.));
#1790=DIRECTION('ref_axis',(1.,0.,0.));
#1791=DIRECTION('',(0.,1.,0.));
#1792=DIRECTION('',(1.,0.,0.));
#1793=DIRECTION('center_axis',(0.,-1.,0.));
#1794=DIRECTION('ref_axis',(1.,0.,0.));
#1795=DIRECTION('',(0.,0.,1.));
#1796=DIRECTION('',(1.,0.,0.));
#1797=DIRECTION('center_axis',(0.,0.,1.));
#1798=DIRECTION('ref_axis',(1.,0.,0.));
#1799=DIRECTION('',(0.,-1.,0.));
#1800=DIRECTION('center_axis',(1.,0.,0.));
#1801=DIRECTION('ref_axis',(0.,1.,0.));
#1802=DIRECTION('',(0.,0.,1.));
#1803=DIRECTION('',(0.,1.,0.));
#1804=DIRECTION('',(0.,0.,-1.));
#1805=DIRECTION('',(0.,1.,0.));
#1806=DIRECTION('center_axis',(0.,0.,1.));
#1807=DIRECTION('ref_axis',(1.,0.,0.));
#1808=DIRECTION('',(-1.,0.,0.));
#1809=DIRECTION('',(1.,0.,0.));
#1810=DIRECTION('',(0.,-1.,0.));
#1811=DIRECTION('center_axis',(-1.,0.,0.));
#1812=DIRECTION('ref_axis',(0.,-1.,0.));
#1813=DIRECTION('',(0.,0.,-1.));
#1814=DIRECTION('',(0.,0.,1.));
#1815=DIRECTION('',(0.,-1.,0.));
#1816=DIRECTION('center_axis',(0.,0.,1.));
#1817=DIRECTION('ref_axis',(1.,0.,0.));
#1818=DIRECTION('',(1.,0.,0.));
#1819=DIRECTION('',(-1.,0.,0.));
#1820=DIRECTION('center_axis',(0.,1.,0.));
#1821=DIRECTION('ref_axis',(1.,0.,0.));
#1822=DIRECTION('center_axis',(0.,1.,0.));
#1823=DIRECTION('ref_axis',(1.,0.,0.));
#1824=DIRECTION('',(0.,1.,0.));
#1825=DIRECTION('center_axis',(0.,-1.,0.));
#1826=DIRECTION('ref_axis',(1.,0.,0.));
#1827=DIRECTION('center_axis',(0.,1.,0.));
#1828=DIRECTION('ref_axis',(1.,0.,0.));
#1829=DIRECTION('center_axis',(0.,1.,0.));
#1830=DIRECTION('ref_axis',(1.,0.,0.));
#1831=DIRECTION('',(0.,1.,0.));
#1832=DIRECTION('center_axis',(0.,-1.,0.));
#1833=DIRECTION('ref_axis',(1.,0.,0.));
#1834=DIRECTION('center_axis',(0.,1.,0.));
#1835=DIRECTION('ref_axis',(1.,0.,0.));
#1836=DIRECTION('center_axis',(-2.17690789142187E-16,1.,0.));
#1837=DIRECTION('ref_axis',(1.,0.,0.));
#1838=DIRECTION('',(0.,1.,0.));
#1839=DIRECTION('center_axis',(9.73879846162417E-17,-1.,0.));
#1840=DIRECTION('ref_axis',(1.,0.,0.));
#1841=DIRECTION('center_axis',(0.,1.,0.));
#1842=DIRECTION('ref_axis',(1.,0.,0.));
#1843=DIRECTION('center_axis',(-2.17690789142187E-16,1.,0.));
#1844=DIRECTION('ref_axis',(1.,0.,0.));
#1845=DIRECTION('',(0.,1.,0.));
#1846=DIRECTION('center_axis',(9.73879846162417E-17,-1.,0.));
#1847=DIRECTION('ref_axis',(1.,0.,0.));
#1848=DIRECTION('center_axis',(0.,1.,0.));
#1849=DIRECTION('ref_axis',(1.,0.,0.));
#1850=DIRECTION('center_axis',(-2.17690789142187E-16,1.,0.));
#1851=DIRECTION('ref_axis',(1.,0.,0.));
#1852=DIRECTION('',(0.,1.,0.));
#1853=DIRECTION('center_axis',(9.73879846162417E-17,-1.,0.));
#1854=DIRECTION('ref_axis',(1.,0.,0.));
#1855=DIRECTION('center_axis',(0.,0.,1.));
#1856=DIRECTION('ref_axis',(1.,0.,0.));
#1857=DIRECTION('center_axis',(0.,0.,1.));
#1858=DIRECTION('ref_axis',(1.,0.,0.));
#1859=DIRECTION('',(0.,0.,1.));
#1860=DIRECTION('center_axis',(0.,0.,-1.));
#1861=DIRECTION('ref_axis',(1.,0.,0.));
#1862=DIRECTION('center_axis',(0.,0.,1.));
#1863=DIRECTION('ref_axis',(1.,0.,0.));
#1864=DIRECTION('center_axis',(0.,0.,1.));
#1865=DIRECTION('ref_axis',(-1.,1.22464679914735E-16,0.));
#1866=DIRECTION('center_axis',(0.,0.,-1.));
#1867=DIRECTION('ref_axis',(1.,0.,0.));
#1868=DIRECTION('center_axis',(0.,0.,1.));
#1869=DIRECTION('ref_axis',(1.,0.,0.));
#1870=DIRECTION('center_axis',(0.,0.,1.));
#1871=DIRECTION('ref_axis',(1.,0.,0.));
#1872=DIRECTION('center_axis',(-2.17690789142187E-16,1.,0.));
#1873=DIRECTION('ref_axis',(-1.,-2.17690789142187E-16,0.));
#1874=DIRECTION('',(-1.,-2.17690789142187E-16,0.));
#1875=DIRECTION('',(0.,0.,1.));
#1876=DIRECTION('center_axis',(0.,-1.,0.));
#1877=DIRECTION('ref_axis',(1.,0.,0.));
#1878=DIRECTION('',(1.,0.,0.));
#1879=DIRECTION('',(0.,0.,1.));
#1880=DIRECTION('center_axis',(-1.,0.,0.));
#1881=DIRECTION('ref_axis',(0.,-1.,0.));
#1882=DIRECTION('',(0.,-1.,0.));
#1883=DIRECTION('center_axis',(0.,0.,1.));
#1884=DIRECTION('ref_axis',(1.,0.,0.));
#1885=DIRECTION('center_axis',(0.,0.,1.));
#1886=DIRECTION('ref_axis',(1.,0.,0.));
#1887=DIRECTION('',(0.,0.,1.));
#1888=DIRECTION('center_axis',(0.,0.,-1.));
#1889=DIRECTION('ref_axis',(1.,0.,0.));
#1890=DIRECTION('center_axis',(0.,0.,1.));
#1891=DIRECTION('ref_axis',(1.,0.,0.));
#1892=DIRECTION('center_axis',(0.,0.,1.));
#1893=DIRECTION('ref_axis',(1.,0.,0.));
#1894=DIRECTION('center_axis',(0.,0.,1.));
#1895=DIRECTION('ref_axis',(1.,0.,0.));
#1896=DIRECTION('',(0.,0.,-1.));
#1897=DIRECTION('center_axis',(0.,0.,-1.));
#1898=DIRECTION('ref_axis',(1.,0.,0.));
#1899=DIRECTION('center_axis',(0.,0.,1.));
#1900=DIRECTION('ref_axis',(1.,0.,0.));
#1901=DIRECTION('center_axis',(0.,0.,1.));
#1902=DIRECTION('ref_axis',(1.,0.,0.));
#1903=DIRECTION('center_axis',(0.,0.,1.));
#1904=DIRECTION('ref_axis',(-0.707106781186548,-0.707106781186548,0.));
#1905=DIRECTION('',(0.,-1.,0.));
#1906=DIRECTION('center_axis',(0.,0.,1.));
#1907=DIRECTION('ref_axis',(-0.707106781186549,0.707106781186546,0.));
#1908=DIRECTION('',(-1.,-9.73879846162417E-17,0.));
#1909=DIRECTION('center_axis',(0.,0.,1.));
#1910=DIRECTION('ref_axis',(0.707106781186543,0.707106781186552,0.));
#1911=DIRECTION('',(0.,1.,0.));
#1912=DIRECTION('center_axis',(0.,0.,1.));
#1913=DIRECTION('ref_axis',(0.707106781186543,-0.707106781186552,0.));
#1914=DIRECTION('',(1.,0.,0.));
#1915=DIRECTION('center_axis',(0.,-1.,0.));
#1916=DIRECTION('ref_axis',(1.,0.,0.));
#1917=DIRECTION('',(0.,0.,1.));
#1918=DIRECTION('',(0.,0.,-1.));
#1919=DIRECTION('center_axis',(0.,0.,1.));
#1920=DIRECTION('ref_axis',(1.,0.,0.));
#1921=DIRECTION('center_axis',(0.,0.,1.));
#1922=DIRECTION('ref_axis',(-0.707106781186549,0.707106781186546,0.));
#1923=DIRECTION('',(0.,0.,-1.));
#1924=DIRECTION('',(0.,0.,1.));
#1925=DIRECTION('center_axis',(-1.,0.,0.));
#1926=DIRECTION('ref_axis',(0.,-1.,0.));
#1927=DIRECTION('',(0.,0.,-1.));
#1928=DIRECTION('center_axis',(0.,0.,1.));
#1929=DIRECTION('ref_axis',(-0.707106781186548,-0.707106781186548,0.));
#1930=DIRECTION('center_axis',(0.,0.,1.));
#1931=DIRECTION('ref_axis',(0.707106781186543,-0.707106781186552,0.));
#1932=DIRECTION('',(0.,0.,1.));
#1933=DIRECTION('center_axis',(1.,0.,0.));
#1934=DIRECTION('ref_axis',(0.,1.,0.));
#1935=DIRECTION('',(0.,0.,-1.));
#1936=DIRECTION('center_axis',(0.,0.,1.));
#1937=DIRECTION('ref_axis',(0.707106781186543,0.707106781186552,0.));
#1938=DIRECTION('',(0.,0.,1.));
#1939=DIRECTION('center_axis',(-9.73879846162417E-17,1.,0.));
#1940=DIRECTION('ref_axis',(-1.,-9.73879846162417E-17,0.));
#1941=DIRECTION('',(0.,0.,1.));
#1942=DIRECTION('',(1.,0.,0.));
#1943=CARTESIAN_POINT('',(0.,0.,0.));
#1944=CARTESIAN_POINT('',(0.,0.,0.));
#1945=CARTESIAN_POINT('Origin',(183.5,-114.5,-5.));
#1946=CARTESIAN_POINT('',(181.75,-114.5,-5.));
#1947=CARTESIAN_POINT('Origin',(183.5,-114.5,-5.));
#1948=CARTESIAN_POINT('',(181.75,-114.5,0.));
#1949=CARTESIAN_POINT('',(181.75,-114.5,-5.));
#1950=CARTESIAN_POINT('Origin',(183.5,-114.5,0.));
#1951=CARTESIAN_POINT('Origin',(183.5,-114.5,-5.));
#1952=CARTESIAN_POINT('Origin',(183.5,-114.5,-6.5));
#1953=CARTESIAN_POINT('',(180.,-114.5,0.));
#1954=CARTESIAN_POINT('Origin',(183.5,-114.5,0.));
#1955=CARTESIAN_POINT('',(180.,-114.5,-6.5));
#1956=CARTESIAN_POINT('',(180.,-114.5,-6.5));
#1957=CARTESIAN_POINT('Origin',(183.5,-114.5,-6.5));
#1958=CARTESIAN_POINT('Origin',(183.5,-114.5,0.));
#1959=CARTESIAN_POINT('Origin',(152.9,-53.8,0.));
#1960=CARTESIAN_POINT('',(149.4,-53.8,0.));
#1961=CARTESIAN_POINT('Origin',(152.9,-53.8,0.));
#1962=CARTESIAN_POINT('',(151.15,-53.8,0.));
#1963=CARTESIAN_POINT('Origin',(152.9,-53.8,0.));
#1964=CARTESIAN_POINT('Origin',(152.9,-53.8,-6.5));
#1965=CARTESIAN_POINT('',(149.4,-53.8,-6.5));
#1966=CARTESIAN_POINT('',(149.4,-53.8,-6.5));
#1967=CARTESIAN_POINT('Origin',(152.9,-53.8,-6.5));
#1968=CARTESIAN_POINT('Origin',(152.9,-53.8,-5.));
#1969=CARTESIAN_POINT('',(151.15,-53.8,-5.));
#1970=CARTESIAN_POINT('Origin',(152.9,-53.8,-5.));
#1971=CARTESIAN_POINT('Origin',(152.9,-53.8,-5.));
#1972=CARTESIAN_POINT('',(151.15,-53.8,-5.));
#1973=CARTESIAN_POINT('Origin',(151.6,-110.,23.2));
#1974=CARTESIAN_POINT('',(149.85,-110.,23.2));
#1975=CARTESIAN_POINT('Origin',(151.6,-110.,23.2));
#1976=CARTESIAN_POINT('',(149.85,-110.,28.2));
#1977=CARTESIAN_POINT('',(149.85,-110.,23.2));
#1978=CARTESIAN_POINT('Origin',(151.6,-110.,28.2));
#1979=CARTESIAN_POINT('Origin',(151.6,-110.,23.2));
#1980=CARTESIAN_POINT('Origin',(187.4,-110.,23.2));
#1981=CARTESIAN_POINT('',(185.65,-110.,23.2));
#1982=CARTESIAN_POINT('Origin',(187.4,-110.,23.2));
#1983=CARTESIAN_POINT('',(185.65,-110.,28.2));
#1984=CARTESIAN_POINT('',(185.65,-110.,23.2));
#1985=CARTESIAN_POINT('Origin',(187.4,-110.,28.2));
#1986=CARTESIAN_POINT('Origin',(187.4,-110.,23.2));
#1987=CARTESIAN_POINT('Origin',(151.6,-60.,23.2));
#1988=CARTESIAN_POINT('',(149.85,-60.,23.2));
#1989=CARTESIAN_POINT('Origin',(151.6,-60.,23.2));
#1990=CARTESIAN_POINT('',(149.85,-60.,28.2));
#1991=CARTESIAN_POINT('',(149.85,-60.,23.2));
#1992=CARTESIAN_POINT('Origin',(151.6,-60.,28.2));
#1993=CARTESIAN_POINT('Origin',(151.6,-60.,23.2));
#1994=CARTESIAN_POINT('Origin',(187.4,-60.,23.2));
#1995=CARTESIAN_POINT('',(185.65,-60.,23.2));
#1996=CARTESIAN_POINT('Origin',(187.4,-60.,23.2));
#1997=CARTESIAN_POINT('',(185.65,-60.,28.2));
#1998=CARTESIAN_POINT('',(185.65,-60.,23.2));
#1999=CARTESIAN_POINT('Origin',(187.4,-60.,28.2));
#2000=CARTESIAN_POINT('Origin',(187.4,-60.,23.2));
#2001=CARTESIAN_POINT('Origin',(151.6,-114.,20.));
#2002=CARTESIAN_POINT('',(151.6,-114.,20.));
#2003=CARTESIAN_POINT('',(151.6,-106.,20.));
#2004=CARTESIAN_POINT('',(151.6,-114.,20.));
#2005=CARTESIAN_POINT('',(151.6,-106.,23.));
#2006=CARTESIAN_POINT('',(151.6,-106.,20.));
#2007=CARTESIAN_POINT('',(151.6,-114.,23.));
#2008=CARTESIAN_POINT('',(151.6,-112.,23.));
#2009=CARTESIAN_POINT('',(151.6,-114.,20.));
#2010=CARTESIAN_POINT('Origin',(150.35,-110.,20.));
#2011=CARTESIAN_POINT('',(149.1,-106.,20.));
#2012=CARTESIAN_POINT('',(149.1,-114.,20.));
#2013=CARTESIAN_POINT('',(149.1,-74.8,20.));
#2014=CARTESIAN_POINT('',(151.6,-106.,20.));
#2015=CARTESIAN_POINT('',(149.1,-114.,20.));
#2016=CARTESIAN_POINT('Origin',(151.6,-110.,23.));
#2017=CARTESIAN_POINT('',(154.1,-106.,23.));
#2018=CARTESIAN_POINT('',(154.1,-106.,23.));
#2019=CARTESIAN_POINT('',(154.1,-114.,23.));
#2020=CARTESIAN_POINT('',(154.1,-114.,23.));
#2021=CARTESIAN_POINT('',(149.1,-114.,23.));
#2022=CARTESIAN_POINT('Origin',(154.1,-106.,23.));
#2023=CARTESIAN_POINT('',(149.1,-106.,28.2));
#2024=CARTESIAN_POINT('',(149.1,-106.,8.25));
#2025=CARTESIAN_POINT('',(154.1,-106.,28.2));
#2026=CARTESIAN_POINT('',(154.1,-106.,28.2));
#2027=CARTESIAN_POINT('',(154.1,-106.,23.));
#2028=CARTESIAN_POINT('Origin',(154.1,-114.,23.));
#2029=CARTESIAN_POINT('',(154.1,-114.,28.2));
#2030=CARTESIAN_POINT('',(154.1,-114.,28.2));
#2031=CARTESIAN_POINT('',(154.1,-114.,23.));
#2032=CARTESIAN_POINT('Origin',(149.1,-114.,23.));
#2033=CARTESIAN_POINT('',(149.1,-114.,28.2));
#2034=CARTESIAN_POINT('',(149.1,-114.,28.2));
#2035=CARTESIAN_POINT('',(149.1,-114.,8.25));
#2036=CARTESIAN_POINT('Origin',(151.6,-110.,28.2));
#2037=CARTESIAN_POINT('',(149.1,-74.8,28.2));
#2038=CARTESIAN_POINT('Origin',(187.4,-106.,20.));
#2039=CARTESIAN_POINT('',(187.4,-106.,20.));
#2040=CARTESIAN_POINT('',(187.4,-114.,20.));
#2041=CARTESIAN_POINT('',(187.4,-106.,20.));
#2042=CARTESIAN_POINT('',(187.4,-114.,23.));
#2043=CARTESIAN_POINT('',(187.4,-114.,20.));
#2044=CARTESIAN_POINT('',(187.4,-106.,23.));
#2045=CARTESIAN_POINT('',(187.4,-108.,23.));
#2046=CARTESIAN_POINT('',(187.4,-106.,20.));
#2047=CARTESIAN_POINT('Origin',(188.65,-110.,20.));
#2048=CARTESIAN_POINT('',(189.9,-106.,20.));
#2049=CARTESIAN_POINT('',(189.9,-106.,20.));
#2050=CARTESIAN_POINT('',(189.9,-114.,20.));
#2051=CARTESIAN_POINT('',(189.9,-115.45,20.));
#2052=CARTESIAN_POINT('',(187.4,-114.,20.));
#2053=CARTESIAN_POINT('Origin',(189.9,-120.9,-6.5));
#2054=CARTESIAN_POINT('',(189.9,-52.8693376137083,-6.5));
#2055=CARTESIAN_POINT('',(189.9,-52.8693376137083,0.));
#2056=CARTESIAN_POINT('',(189.9,-52.8693376137083,-6.5));
#2057=CARTESIAN_POINT('',(189.9,-54.5306623862917,0.));
#2058=CARTESIAN_POINT('',(189.9,-87.3,0.));
#2059=CARTESIAN_POINT('',(189.9,-54.5306623862917,-6.5));
#2060=CARTESIAN_POINT('',(189.9,-54.5306623862917,-6.5));
#2061=CARTESIAN_POINT('',(189.9,-120.9,-6.5));
#2062=CARTESIAN_POINT('',(189.9,-100.575,-6.5));
#2063=CARTESIAN_POINT('',(189.9,-120.9,30.2));
#2064=CARTESIAN_POINT('',(189.9,-120.9,28.2));
#2065=CARTESIAN_POINT('',(189.9,-39.6,30.2));
#2066=CARTESIAN_POINT('',(189.9,-100.575,30.2));
#2067=CARTESIAN_POINT('',(189.9,-39.6,-6.5));
#2068=CARTESIAN_POINT('',(189.9,-39.6,28.2));
#2069=CARTESIAN_POINT('',(189.9,-100.575,-6.5));
#2070=CARTESIAN_POINT('',(189.9,-64.,28.2));
#2071=CARTESIAN_POINT('',(189.9,-64.,20.));
#2072=CARTESIAN_POINT('',(189.9,-64.,8.25));
#2073=CARTESIAN_POINT('',(189.9,-56.,20.));
#2074=CARTESIAN_POINT('',(189.9,-90.45,20.));
#2075=CARTESIAN_POINT('',(189.9,-56.,28.2));
#2076=CARTESIAN_POINT('',(189.9,-56.,8.25));
#2077=CARTESIAN_POINT('',(189.9,-90.45,28.2));
#2078=CARTESIAN_POINT('',(189.9,-106.19,3.9));
#2079=CARTESIAN_POINT('',(189.9,-106.19,0.3));
#2080=CARTESIAN_POINT('',(189.9,-106.19,-3.1));
#2081=CARTESIAN_POINT('',(189.9,-97.19,0.3));
#2082=CARTESIAN_POINT('',(189.9,-111.295,0.3));
#2083=CARTESIAN_POINT('',(189.9,-97.19,3.9));
#2084=CARTESIAN_POINT('',(189.9,-97.19,-3.1));
#2085=CARTESIAN_POINT('',(189.9,-111.295,3.9));
#2086=CARTESIAN_POINT('',(189.9,-114.,28.2));
#2087=CARTESIAN_POINT('',(189.9,-114.,8.25));
#2088=CARTESIAN_POINT('',(189.9,-106.,28.2));
#2089=CARTESIAN_POINT('',(189.9,-106.,8.25));
#2090=CARTESIAN_POINT('',(189.9,-115.45,28.2));
#2091=CARTESIAN_POINT('Origin',(189.9,-106.,23.));
#2092=CARTESIAN_POINT('',(184.9,-106.,23.));
#2093=CARTESIAN_POINT('',(189.9,-106.,23.));
#2094=CARTESIAN_POINT('',(184.9,-106.,28.2));
#2095=CARTESIAN_POINT('',(184.9,-106.,23.));
#2096=CARTESIAN_POINT('',(189.9,-106.,28.2));
#2097=CARTESIAN_POINT('Origin',(184.9,-114.,23.));
#2098=CARTESIAN_POINT('',(184.9,-114.,23.));
#2099=CARTESIAN_POINT('',(184.9,-114.,23.));
#2100=CARTESIAN_POINT('',(184.9,-114.,28.2));
#2101=CARTESIAN_POINT('',(184.9,-114.,28.2));
#2102=CARTESIAN_POINT('',(184.9,-114.,23.));
#2103=CARTESIAN_POINT('Origin',(184.9,-106.,23.));
#2104=CARTESIAN_POINT('',(184.9,-106.,23.));
#2105=CARTESIAN_POINT('',(184.9,-106.,28.2));
#2106=CARTESIAN_POINT('Origin',(187.4,-110.,28.2));
#2107=CARTESIAN_POINT('Origin',(187.4,-110.,23.));
#2108=CARTESIAN_POINT('Origin',(151.6,-64.,20.));
#2109=CARTESIAN_POINT('',(151.6,-64.,20.));
#2110=CARTESIAN_POINT('',(151.6,-56.,20.));
#2111=CARTESIAN_POINT('',(151.6,-64.,20.));
#2112=CARTESIAN_POINT('',(151.6,-56.,23.));
#2113=CARTESIAN_POINT('',(151.6,-56.,20.));
#2114=CARTESIAN_POINT('',(151.6,-64.,23.));
#2115=CARTESIAN_POINT('',(151.6,-62.,23.));
#2116=CARTESIAN_POINT('',(151.6,-64.,20.));
#2117=CARTESIAN_POINT('Origin',(150.35,-60.,20.));
#2118=CARTESIAN_POINT('',(149.1,-56.,20.));
#2119=CARTESIAN_POINT('',(149.1,-64.,20.));
#2120=CARTESIAN_POINT('',(149.1,-49.8,20.));
#2121=CARTESIAN_POINT('',(151.6,-56.,20.));
#2122=CARTESIAN_POINT('',(149.1,-64.,20.));
#2123=CARTESIAN_POINT('Origin',(151.6,-60.,23.));
#2124=CARTESIAN_POINT('',(154.1,-56.,23.));
#2125=CARTESIAN_POINT('',(154.1,-56.,23.));
#2126=CARTESIAN_POINT('',(154.1,-64.,23.));
#2127=CARTESIAN_POINT('',(154.1,-64.,23.));
#2128=CARTESIAN_POINT('',(149.1,-64.,23.));
#2129=CARTESIAN_POINT('Origin',(154.1,-56.,23.));
#2130=CARTESIAN_POINT('',(149.1,-56.,28.2));
#2131=CARTESIAN_POINT('',(149.1,-56.,8.25));
#2132=CARTESIAN_POINT('',(154.1,-56.,28.2));
#2133=CARTESIAN_POINT('',(154.1,-56.,28.2));
#2134=CARTESIAN_POINT('',(154.1,-56.,23.));
#2135=CARTESIAN_POINT('Origin',(154.1,-64.,23.));
#2136=CARTESIAN_POINT('',(154.1,-64.,28.2));
#2137=CARTESIAN_POINT('',(154.1,-64.,28.2));
#2138=CARTESIAN_POINT('',(154.1,-64.,23.));
#2139=CARTESIAN_POINT('Origin',(149.1,-64.,23.));
#2140=CARTESIAN_POINT('',(149.1,-64.,28.2));
#2141=CARTESIAN_POINT('',(149.1,-64.,28.2));
#2142=CARTESIAN_POINT('',(149.1,-64.,8.25));
#2143=CARTESIAN_POINT('Origin',(151.6,-60.,28.2));
#2144=CARTESIAN_POINT('',(149.1,-49.8,28.2));
#2145=CARTESIAN_POINT('Origin',(187.4,-56.,20.));
#2146=CARTESIAN_POINT('',(187.4,-56.,20.));
#2147=CARTESIAN_POINT('',(187.4,-64.,20.));
#2148=CARTESIAN_POINT('',(187.4,-56.,20.));
#2149=CARTESIAN_POINT('',(187.4,-64.,23.));
#2150=CARTESIAN_POINT('',(187.4,-64.,20.));
#2151=CARTESIAN_POINT('',(187.4,-56.,23.));
#2152=CARTESIAN_POINT('',(187.4,-58.,23.));
#2153=CARTESIAN_POINT('',(187.4,-56.,20.));
#2154=CARTESIAN_POINT('Origin',(188.65,-60.,20.));
#2155=CARTESIAN_POINT('',(189.9,-56.,20.));
#2156=CARTESIAN_POINT('',(187.4,-64.,20.));
#2157=CARTESIAN_POINT('Origin',(189.9,-56.,23.));
#2158=CARTESIAN_POINT('',(184.9,-56.,23.));
#2159=CARTESIAN_POINT('',(189.9,-56.,23.));
#2160=CARTESIAN_POINT('',(184.9,-56.,28.2));
#2161=CARTESIAN_POINT('',(184.9,-56.,23.));
#2162=CARTESIAN_POINT('',(189.9,-56.,28.2));
#2163=CARTESIAN_POINT('Origin',(184.9,-64.,23.));
#2164=CARTESIAN_POINT('',(184.9,-64.,23.));
#2165=CARTESIAN_POINT('',(184.9,-64.,23.));
#2166=CARTESIAN_POINT('',(184.9,-64.,28.2));
#2167=CARTESIAN_POINT('',(184.9,-64.,28.2));
#2168=CARTESIAN_POINT('',(184.9,-64.,23.));
#2169=CARTESIAN_POINT('Origin',(184.9,-56.,23.));
#2170=CARTESIAN_POINT('',(184.9,-56.,23.));
#2171=CARTESIAN_POINT('',(184.9,-56.,28.2));
#2172=CARTESIAN_POINT('Origin',(187.4,-60.,28.2));
#2173=CARTESIAN_POINT('Origin',(187.4,-60.,23.));
#2174=CARTESIAN_POINT('Origin',(169.5,-80.25,30.2));
#2175=CARTESIAN_POINT('',(146.7,-120.3,30.2));
#2176=CARTESIAN_POINT('',(149.7,-123.3,30.2));
#2177=CARTESIAN_POINT('Origin',(149.7,-120.3,30.2));
#2178=CARTESIAN_POINT('',(189.3,-123.3,30.2));
#2179=CARTESIAN_POINT('',(146.7,-123.3,30.2));
#2180=CARTESIAN_POINT('',(192.3,-120.3,30.2));
#2181=CARTESIAN_POINT('Origin',(189.3,-120.3,30.2));
#2182=CARTESIAN_POINT('',(192.3,-40.2,30.2));
#2183=CARTESIAN_POINT('',(192.3,-123.3,30.2));
#2184=CARTESIAN_POINT('',(189.3,-37.2,30.2));
#2185=CARTESIAN_POINT('Origin',(189.3,-40.2,30.2));
#2186=CARTESIAN_POINT('',(149.7,-37.2,30.2));
#2187=CARTESIAN_POINT('',(192.3,-37.2,30.2));
#2188=CARTESIAN_POINT('',(146.7,-40.2,30.2));
#2189=CARTESIAN_POINT('Origin',(149.7,-40.2,30.2));
#2190=CARTESIAN_POINT('',(146.7,-37.2,30.2));
#2191=CARTESIAN_POINT('',(149.1,-39.6,30.2));
#2192=CARTESIAN_POINT('',(179.7,-39.6,30.2));
#2193=CARTESIAN_POINT('',(149.1,-120.9,30.2));
#2194=CARTESIAN_POINT('',(159.3,-120.9,30.2));
#2195=CARTESIAN_POINT('',(149.1,-59.925,30.2));
#2196=CARTESIAN_POINT('Origin',(192.8,-97.19,0.3));
#2197=CARTESIAN_POINT('',(192.3,-97.19,0.3));
#2198=CARTESIAN_POINT('',(192.8,-97.19,0.3));
#2199=CARTESIAN_POINT('',(192.3,-97.19,3.9));
#2200=CARTESIAN_POINT('',(192.3,-97.19,-4.3));
#2201=CARTESIAN_POINT('',(192.8,-97.19,3.9));
#2202=CARTESIAN_POINT('Origin',(191.1,-101.69,3.9));
#2203=CARTESIAN_POINT('',(192.3,-106.19,3.9));
#2204=CARTESIAN_POINT('',(192.3,-112.495,3.9));
#2205=CARTESIAN_POINT('',(189.4,-106.19,3.9));
#2206=CARTESIAN_POINT('Origin',(189.4,-106.19,0.3));
#2207=CARTESIAN_POINT('',(192.3,-106.19,0.3));
#2208=CARTESIAN_POINT('',(192.3,-106.19,-4.3));
#2209=CARTESIAN_POINT('',(189.4,-106.19,0.3));
#2210=CARTESIAN_POINT('Origin',(191.1,-101.69,0.3));
#2211=CARTESIAN_POINT('',(192.3,-112.495,0.3));
#2212=CARTESIAN_POINT('Origin',(159.87,-123.8,0.29));
#2213=CARTESIAN_POINT('',(159.87,-120.9,0.29));
#2214=CARTESIAN_POINT('',(159.87,-120.9,5.19));
#2215=CARTESIAN_POINT('',(159.87,-120.9,-3.105));
#2216=CARTESIAN_POINT('',(159.87,-123.3,0.29));
#2217=CARTESIAN_POINT('',(159.87,-123.8,0.29));
#2218=CARTESIAN_POINT('',(159.87,-123.3,5.19));
#2219=CARTESIAN_POINT('',(159.87,-123.3,-4.305));
#2220=CARTESIAN_POINT('',(159.87,-123.8,5.19));
#2221=CARTESIAN_POINT('Origin',(154.82,-122.1,5.19));
#2222=CARTESIAN_POINT('',(149.77,-120.9,5.19));
#2223=CARTESIAN_POINT('',(151.96,-120.9,5.19));
#2224=CARTESIAN_POINT('',(149.77,-123.3,5.19));
#2225=CARTESIAN_POINT('',(150.76,-123.3,5.19));
#2226=CARTESIAN_POINT('',(149.77,-120.4,5.19));
#2227=CARTESIAN_POINT('Origin',(149.77,-120.4,0.29));
#2228=CARTESIAN_POINT('',(149.77,-120.9,0.29));
#2229=CARTESIAN_POINT('',(149.77,-120.9,-3.105));
#2230=CARTESIAN_POINT('',(149.77,-123.3,0.29));
#2231=CARTESIAN_POINT('',(149.77,-123.3,-4.305));
#2232=CARTESIAN_POINT('',(149.77,-120.4,0.29));
#2233=CARTESIAN_POINT('Origin',(154.82,-122.1,0.29));
#2234=CARTESIAN_POINT('',(151.96,-120.9,0.29));
#2235=CARTESIAN_POINT('',(150.76,-123.3,0.29));
#2236=CARTESIAN_POINT('Origin',(178.28,-124.3,3.64));
#2237=CARTESIAN_POINT('',(175.03,-123.3,3.64));
#2238=CARTESIAN_POINT('Origin',(178.28,-123.3,3.64));
#2239=CARTESIAN_POINT('',(175.03,-120.9,3.64));
#2240=CARTESIAN_POINT('',(175.03,-124.3,3.64));
#2241=CARTESIAN_POINT('Origin',(178.28,-120.9,3.64));
#2242=CARTESIAN_POINT('Origin',(168.16,-124.3,3.64));
#2243=CARTESIAN_POINT('',(164.91,-123.3,3.64));
#2244=CARTESIAN_POINT('Origin',(168.16,-123.3,3.64));
#2245=CARTESIAN_POINT('',(164.91,-120.9,3.64));
#2246=CARTESIAN_POINT('',(164.91,-124.3,3.64));
#2247=CARTESIAN_POINT('Origin',(168.16,-120.9,3.64));
#2248=CARTESIAN_POINT('Origin',(179.2,-40.6,26.1));
#2249=CARTESIAN_POINT('',(177.45,-39.6,26.1));
#2250=CARTESIAN_POINT('Origin',(179.2,-39.6,26.1));
#2251=CARTESIAN_POINT('',(177.45,-37.2,26.1));
#2252=CARTESIAN_POINT('',(177.45,-40.6,26.1));
#2253=CARTESIAN_POINT('Origin',(179.2,-37.2,26.1));
#2254=CARTESIAN_POINT('Origin',(160.2,-40.6,2.1));
#2255=CARTESIAN_POINT('',(158.45,-39.6,2.1));
#2256=CARTESIAN_POINT('Origin',(160.2,-39.6,2.1));
#2257=CARTESIAN_POINT('',(158.45,-37.2,2.1));
#2258=CARTESIAN_POINT('',(158.45,-40.6,2.1));
#2259=CARTESIAN_POINT('Origin',(160.2,-37.2,2.1));
#2260=CARTESIAN_POINT('Origin',(169.7,-40.6,14.09));
#2261=CARTESIAN_POINT('',(157.6,-39.6,14.09));
#2262=CARTESIAN_POINT('Origin',(169.7,-39.6,14.09));
#2263=CARTESIAN_POINT('',(157.6,-37.2,14.09));
#2264=CARTESIAN_POINT('',(157.6,-40.6,14.09));
#2265=CARTESIAN_POINT('Origin',(169.7,-37.2,14.09));
#2266=CARTESIAN_POINT('Origin',(186.5,-53.7,-5.));
#2267=CARTESIAN_POINT('',(184.75,-53.7,-5.));
#2268=CARTESIAN_POINT('Origin',(186.5,-53.7,-5.));
#2269=CARTESIAN_POINT('',(184.75,-53.7,0.));
#2270=CARTESIAN_POINT('',(184.75,-53.7,-5.));
#2271=CARTESIAN_POINT('Origin',(186.5,-53.7,0.));
#2272=CARTESIAN_POINT('Origin',(186.5,-53.7,-5.));
#2273=CARTESIAN_POINT('Origin',(186.5,-53.7,-6.5));
#2274=CARTESIAN_POINT('Origin',(186.5,-53.7,-6.5));
#2275=CARTESIAN_POINT('Origin',(186.5,-53.7,0.));
#2276=CARTESIAN_POINT('Origin',(186.5,-53.7,0.));
#2277=CARTESIAN_POINT('Origin',(189.9,-39.6,-6.5));
#2278=CARTESIAN_POINT('',(149.1,-39.6,-6.5));
#2279=CARTESIAN_POINT('',(179.7,-39.6,-6.5));
#2280=CARTESIAN_POINT('',(149.1,-39.6,-6.5));
#2281=CARTESIAN_POINT('Origin',(149.1,-120.9,-6.5));
#2282=CARTESIAN_POINT('',(149.1,-120.9,-6.5));
#2283=CARTESIAN_POINT('',(159.3,-120.9,-6.5));
#2284=CARTESIAN_POINT('',(149.1,-120.9,28.2));
#2285=CARTESIAN_POINT('Origin',(149.1,-39.6,-6.5));
#2286=CARTESIAN_POINT('',(149.1,-59.925,-6.5));
#2287=CARTESIAN_POINT('Origin',(152.9983462827,-89.4248871623067,-5.));
#2288=CARTESIAN_POINT('',(151.2483462827,-89.4248871623067,-5.));
#2289=CARTESIAN_POINT('Origin',(152.9983462827,-89.4248871623067,-5.));
#2290=CARTESIAN_POINT('',(151.2483462827,-89.4248871623067,0.));
#2291=CARTESIAN_POINT('',(151.2483462827,-89.4248871623067,-5.));
#2292=CARTESIAN_POINT('Origin',(152.9983462827,-89.4248871623067,0.));
#2293=CARTESIAN_POINT('Origin',(152.9983462827,-89.4248871623067,-5.));
#2294=CARTESIAN_POINT('Origin',(152.9983462827,-89.4248871623067,-6.5));
#2295=CARTESIAN_POINT('',(149.4983462827,-89.4248871623067,0.));
#2296=CARTESIAN_POINT('Origin',(152.9983462827,-89.4248871623067,0.));
#2297=CARTESIAN_POINT('',(149.4983462827,-89.4248871623067,-6.5));
#2298=CARTESIAN_POINT('',(149.4983462827,-89.4248871623067,-6.5));
#2299=CARTESIAN_POINT('Origin',(152.9983462827,-89.4248871623067,-6.5));
#2300=CARTESIAN_POINT('Origin',(152.9983462827,-89.4248871623067,0.));
#2301=CARTESIAN_POINT('Origin',(169.5,-80.25,-8.9));
#2302=CARTESIAN_POINT('',(146.7,-120.3,-8.9));
#2303=CARTESIAN_POINT('',(149.7,-123.3,-8.9));
#2304=CARTESIAN_POINT('Origin',(149.7,-120.3,-8.9));
#2305=CARTESIAN_POINT('',(146.7,-40.2,-8.9));
#2306=CARTESIAN_POINT('',(146.7,-37.2,-8.9));
#2307=CARTESIAN_POINT('',(149.7,-37.2,-8.9));
#2308=CARTESIAN_POINT('Origin',(149.7,-40.2,-8.9));
#2309=CARTESIAN_POINT('',(189.3,-37.2,-8.9));
#2310=CARTESIAN_POINT('',(192.3,-37.2,-8.9));
#2311=CARTESIAN_POINT('',(192.3,-40.2,-8.9));
#2312=CARTESIAN_POINT('Origin',(189.3,-40.2,-8.9));
#2313=CARTESIAN_POINT('',(192.3,-120.3,-8.9));
#2314=CARTESIAN_POINT('',(192.3,-123.3,-8.9));
#2315=CARTESIAN_POINT('',(189.3,-123.3,-8.9));
#2316=CARTESIAN_POINT('Origin',(189.3,-120.3,-8.9));
#2317=CARTESIAN_POINT('',(146.7,-123.3,-8.9));
#2318=CARTESIAN_POINT('Origin',(146.7,-123.3,-8.9));
#2319=CARTESIAN_POINT('',(149.7,-123.3,-8.9));
#2320=CARTESIAN_POINT('',(189.3,-123.3,-8.9));
#2321=CARTESIAN_POINT('Origin',(169.5,-80.25,-6.5));
#2322=CARTESIAN_POINT('Origin',(149.7,-40.2,-8.9));
#2323=CARTESIAN_POINT('',(149.7,-37.2,-8.9));
#2324=CARTESIAN_POINT('',(146.7,-40.2,-8.9));
#2325=CARTESIAN_POINT('Origin',(146.7,-37.2,-8.9));
#2326=CARTESIAN_POINT('',(146.7,-120.3,-8.9));
#2327=CARTESIAN_POINT('Origin',(149.7,-120.3,-8.9));
#2328=CARTESIAN_POINT('Origin',(189.3,-120.3,-8.9));
#2329=CARTESIAN_POINT('',(192.3,-120.3,-8.9));
#2330=CARTESIAN_POINT('Origin',(192.3,-123.3,-8.9));
#2331=CARTESIAN_POINT('',(192.3,-40.2,-8.9));
#2332=CARTESIAN_POINT('Origin',(189.3,-40.2,-8.9));
#2333=CARTESIAN_POINT('',(189.3,-37.2,-8.9));
#2334=CARTESIAN_POINT('Origin',(192.3,-37.2,-8.9));
#2335=CARTESIAN_POINT('',(0.,0.,0.));
#2336=UNCERTAINTY_MEASURE_WITH_UNIT(LENGTH_MEASURE(0.01),#2342,
'DISTANCE_ACCURACY_VALUE',
'Maximum model space distance between geometric entities at asserted c
onnectivities');
#2337=UNCERTAINTY_MEASURE_WITH_UNIT(LENGTH_MEASURE(0.01),#2342,
'DISTANCE_ACCURACY_VALUE',
'Maximum model space distance between geometric entities at asserted c
onnectivities');
#2338=UNCERTAINTY_MEASURE_WITH_UNIT(LENGTH_MEASURE(0.01),#2342,
'DISTANCE_ACCURACY_VALUE',
'Maximum model space distance between geometric entities at asserted c
onnectivities');
#2339=(
GEOMETRIC_REPRESENTATION_CONTEXT(3)
GLOBAL_UNCERTAINTY_ASSIGNED_CONTEXT((#2336))
GLOBAL_UNIT_ASSIGNED_CONTEXT((#2342,#2344,#2345))
REPRESENTATION_CONTEXT('','3D')
);
#2340=(
GEOMETRIC_REPRESENTATION_CONTEXT(3)
GLOBAL_UNCERTAINTY_ASSIGNED_CONTEXT((#2337))
GLOBAL_UNIT_ASSIGNED_CONTEXT((#2342,#2344,#2345))
REPRESENTATION_CONTEXT('','3D')
);
#2341=(
GEOMETRIC_REPRESENTATION_CONTEXT(3)
GLOBAL_UNCERTAINTY_ASSIGNED_CONTEXT((#2338))
GLOBAL_UNIT_ASSIGNED_CONTEXT((#2342,#2344,#2345))
REPRESENTATION_CONTEXT('','3D')
);
#2342=(
LENGTH_UNIT()
NAMED_UNIT(*)
SI_UNIT(.MILLI.,.METRE.)
);
#2343=(
LENGTH_UNIT()
NAMED_UNIT(*)
SI_UNIT($,.METRE.)
);
#2344=(
NAMED_UNIT(*)
PLANE_ANGLE_UNIT()
SI_UNIT($,.RADIAN.)
);
#2345=(
NAMED_UNIT(*)
SI_UNIT($,.STERADIAN.)
SOLID_ANGLE_UNIT()
);
#2346=SHAPE_DEFINITION_REPRESENTATION(#2348,#2351);
#2347=SHAPE_DEFINITION_REPRESENTATION(#2349,#2352);
#2348=PRODUCT_DEFINITION_SHAPE('',$,#2354);
#2349=PRODUCT_DEFINITION_SHAPE('',$,#2355);
#2350=PRODUCT_DEFINITION_SHAPE($,$,#14);
#2351=SHAPE_REPRESENTATION('',(#1424,#1548),#2339);
#2352=SHAPE_REPRESENTATION('',(#1425),#2340);
#2353=PRODUCT_DEFINITION_CONTEXT('part definition',#2361,'design');
#2354=PRODUCT_DEFINITION('OpenIEMA Assembly','OpenIEMA Assembly v1',#2356,
#2353);
#2355=PRODUCT_DEFINITION('OpenIEMA Case','OpenIEMA Case',#2357,#2353);
#2356=PRODUCT_DEFINITION_FORMATION('',$,#2363);
#2357=PRODUCT_DEFINITION_FORMATION('',$,#2364);
#2358=PRODUCT_RELATED_PRODUCT_CATEGORY('OpenIEMA Assembly v1',
'OpenIEMA Assembly v1',(#2363));
#2359=PRODUCT_RELATED_PRODUCT_CATEGORY('OpenIEMA Case','OpenIEMA Case',
(#2364));
#2360=APPLICATION_PROTOCOL_DEFINITION('international standard',
'automotive_design',2009,#2361);
#2361=APPLICATION_CONTEXT(
'Core Data for Automotive Mechanical Design Process');
#2362=PRODUCT_CONTEXT('part definition',#2361,'mechanical');
#2363=PRODUCT('OpenIEMA Assembly','OpenIEMA Assembly v1',$,(#2362));
#2364=PRODUCT('OpenIEMA Case','OpenIEMA Case',$,(#2362));
#2365=PRESENTATION_STYLE_ASSIGNMENT((#2366));
#2366=SURFACE_STYLE_USAGE(.BOTH.,#2367);
#2367=SURFACE_SIDE_STYLE('',(#2368));
#2368=SURFACE_STYLE_FILL_AREA(#2369);
#2369=FILL_AREA_STYLE('Steel - Satin',(#2370));
#2370=FILL_AREA_STYLE_COLOUR('Steel - Satin',#2371);
#2371=COLOUR_RGB('Steel - Satin',0.627450980392157,0.627450980392157,0.627450980392157);
ENDSEC;
END-ISO-10303-21;
