ISO-10303-21;
HEADER;
/* Generated by software containing ST-Developer
 * from STEP Tools, Inc. (www.steptools.com) 
 */

FILE_DESCRIPTION(
/* description */ (''),
/* implementation_level */ '2;1');

FILE_NAME(
/* name */ 'Lid.step',
/* time_stamp */ '2026-10-01T17:24:32+10:00',
/* author */ (''),
/* organization */ (''),
/* preprocessor_version */ 'ST-DEVELOPER v20.2',
/* originating_system */ 'Autodesk Translation Framework v15.15.0.0',
/* authorisation */ '');

FILE_SCHEMA (('AUTOMOTIVE_DESIGN { 1 0 10303 214 3 1 1 }'));
ENDSEC;

DATA;
#10=MECHANICAL_DESIGN_GEOMETRIC_PRESENTATION_REPRESENTATION('',(#17),#1138);
#11=ITEM_DEFINED_TRANSFORMATION($,$,#686,#751);
#12=(
REPRESENTATION_RELATIONSHIP($,$,#1149,#1148)
REPRESENTATION_RELATIONSHIP_WITH_TRANSFORMATION(#11)
SHAPE_REPRESENTATION_RELATIONSHIP()
);
#13=CONTEXT_DEPENDENT_SHAPE_REPRESENTATION(#12,#1147);
#14=NEXT_ASSEMBLY_USAGE_OCCURRENCE('OpenIEMA Case:1','OpenIEMA Case:1',
'OpenIEMA Case:1',#1151,#1152,'OpenIEMA Case:1');
#15=SHAPE_REPRESENTATION_RELATIONSHIP('SRR','None',#1149,#16);
#16=ADVANCED_BREP_SHAPE_REPRESENTATION('',(#18),#1137);
#17=STYLED_ITEM('',(#1162),#18);
#18=MANIFOLD_SOLID_BREP('Lid',#672);
#19=FACE_BOUND('',#102,.T.);
#20=FACE_BOUND('',#103,.T.);
#21=FACE_BOUND('',#104,.T.);
#22=FACE_BOUND('',#105,.T.);
#23=FACE_BOUND('',#106,.T.);
#24=FACE_BOUND('',#107,.T.);
#25=FACE_BOUND('',#108,.T.);
#26=FACE_BOUND('',#109,.T.);
#27=FACE_BOUND('',#118,.T.);
#28=FACE_BOUND('',#122,.T.);
#29=FACE_BOUND('',#126,.T.);
#30=FACE_BOUND('',#130,.T.);
#31=FACE_BOUND('',#149,.T.);
#32=FACE_BOUND('',#150,.T.);
#33=FACE_BOUND('',#151,.T.);
#34=FACE_BOUND('',#152,.T.);
#35=FACE_BOUND('',#153,.T.);
#36=PLANE('',#690);
#37=PLANE('',#691);
#38=PLANE('',#702);
#39=PLANE('',#707);
#40=PLANE('',#713);
#41=PLANE('',#719);
#42=PLANE('',#725);
#43=PLANE('',#731);
#44=PLANE('',#734);
#45=PLANE('',#735);
#46=PLANE('',#736);
#47=PLANE('',#737);
#48=PLANE('',#738);
#49=PLANE('',#739);
#50=PLANE('',#740);
#51=PLANE('',#741);
#52=PLANE('',#742);
#53=PLANE('',#743);
#54=PLANE('',#744);
#55=PLANE('',#745);
#56=PLANE('',#746);
#57=PLANE('',#747);
#58=PLANE('',#748);
#59=PLANE('',#749);
#60=PLANE('',#750);
#61=FACE_OUTER_BOUND('',#99,.T.);
#62=FACE_OUTER_BOUND('',#100,.T.);
#63=FACE_OUTER_BOUND('',#101,.T.);
#64=FACE_OUTER_BOUND('',#110,.T.);
#65=FACE_OUTER_BOUND('',#111,.T.);
#66=FACE_OUTER_BOUND('',#112,.T.);
#67=FACE_OUTER_BOUND('',#113,.T.);
#68=FACE_OUTER_BOUND('',#114,.T.);
#69=FACE_OUTER_BOUND('',#115,.T.);
#70=FACE_OUTER_BOUND('',#116,.T.);
#71=FACE_OUTER_BOUND('',#117,.T.);
#72=FACE_OUTER_BOUND('',#119,.T.);
#73=FACE_OUTER_BOUND('',#120,.T.);
#74=FACE_OUTER_BOUND('',#121,.T.);
#75=FACE_OUTER_BOUND('',#123,.T.);
#76=FACE_OUTER_BOUND('',#124,.T.);
#77=FACE_OUTER_BOUND('',#125,.T.);
#78=FACE_OUTER_BOUND('',#127,.T.);
#79=FACE_OUTER_BOUND('',#128,.T.);
#80=FACE_OUTER_BOUND('',#129,.T.);
#81=FACE_OUTER_BOUND('',#131,.T.);
#82=FACE_OUTER_BOUND('',#132,.T.);
#83=FACE_OUTER_BOUND('',#133,.T.);
#84=FACE_OUTER_BOUND('',#134,.T.);
#85=FACE_OUTER_BOUND('',#135,.T.);
#86=FACE_OUTER_BOUND('',#136,.T.);
#87=FACE_OUTER_BOUND('',#137,.T.);
#88=FACE_OUTER_BOUND('',#138,.T.);
#89=FACE_OUTER_BOUND('',#139,.T.);
#90=FACE_OUTER_BOUND('',#140,.T.);
#91=FACE_OUTER_BOUND('',#141,.T.);
#92=FACE_OUTER_BOUND('',#142,.T.);
#93=FACE_OUTER_BOUND('',#143,.T.);
#94=FACE_OUTER_BOUND('',#144,.T.);
#95=FACE_OUTER_BOUND('',#145,.T.);
#96=FACE_OUTER_BOUND('',#146,.T.);
#97=FACE_OUTER_BOUND('',#147,.T.);
#98=FACE_OUTER_BOUND('',#148,.T.);
#99=EDGE_LOOP('',(#447,#448,#449,#450));
#100=EDGE_LOOP('',(#451,#452,#453,#454));
#101=EDGE_LOOP('',(#455,#456,#457,#458,#459,#460,#461,#462));
#102=EDGE_LOOP('',(#463,#464,#465,#466));
#103=EDGE_LOOP('',(#467,#468,#469,#470));
#104=EDGE_LOOP('',(#471,#472,#473,#474));
#105=EDGE_LOOP('',(#475));
#106=EDGE_LOOP('',(#476));
#107=EDGE_LOOP('',(#477));
#108=EDGE_LOOP('',(#478));
#109=EDGE_LOOP('',(#479));
#110=EDGE_LOOP('',(#480,#481,#482,#483));
#111=EDGE_LOOP('',(#484,#485,#486,#487));
#112=EDGE_LOOP('',(#488,#489,#490,#491));
#113=EDGE_LOOP('',(#492,#493,#494,#495));
#114=EDGE_LOOP('',(#496,#497,#498,#499));
#115=EDGE_LOOP('',(#500,#501,#502,#503));
#116=EDGE_LOOP('',(#504,#505,#506,#507));
#117=EDGE_LOOP('',(#508));
#118=EDGE_LOOP('',(#509));
#119=EDGE_LOOP('',(#510,#511,#512,#513));
#120=EDGE_LOOP('',(#514,#515,#516,#517));
#121=EDGE_LOOP('',(#518));
#122=EDGE_LOOP('',(#519));
#123=EDGE_LOOP('',(#520,#521,#522,#523));
#124=EDGE_LOOP('',(#524,#525,#526,#527));
#125=EDGE_LOOP('',(#528));
#126=EDGE_LOOP('',(#529));
#127=EDGE_LOOP('',(#530,#531,#532,#533));
#128=EDGE_LOOP('',(#534,#535,#536,#537));
#129=EDGE_LOOP('',(#538));
#130=EDGE_LOOP('',(#539));
#131=EDGE_LOOP('',(#540,#541,#542,#543));
#132=EDGE_LOOP('',(#544,#545,#546,#547));
#133=EDGE_LOOP('',(#548,#549,#550,#551));
#134=EDGE_LOOP('',(#552,#553,#554,#555));
#135=EDGE_LOOP('',(#556,#557,#558,#559));
#136=EDGE_LOOP('',(#560,#561,#562,#563));
#137=EDGE_LOOP('',(#564,#565,#566,#567));
#138=EDGE_LOOP('',(#568,#569,#570,#571));
#139=EDGE_LOOP('',(#572,#573,#574,#575));
#140=EDGE_LOOP('',(#576,#577,#578,#579));
#141=EDGE_LOOP('',(#580,#581,#582,#583));
#142=EDGE_LOOP('',(#584,#585,#586,#587));
#143=EDGE_LOOP('',(#588,#589,#590,#591));
#144=EDGE_LOOP('',(#592,#593,#594,#595));
#145=EDGE_LOOP('',(#596,#597,#598,#599));
#146=EDGE_LOOP('',(#600,#601,#602,#603));
#147=EDGE_LOOP('',(#604,#605,#606,#607));
#148=EDGE_LOOP('',(#608,#609,#610,#611,#612,#613,#614,#615));
#149=EDGE_LOOP('',(#616));
#150=EDGE_LOOP('',(#617));
#151=EDGE_LOOP('',(#618));
#152=EDGE_LOOP('',(#619));
#153=EDGE_LOOP('',(#620));
#154=LINE('',#954,#215);
#155=LINE('',#957,#216);
#156=LINE('',#960,#217);
#157=LINE('',#962,#218);
#158=LINE('',#963,#219);
#159=LINE('',#966,#220);
#160=LINE('',#970,#221);
#161=LINE('',#974,#222);
#162=LINE('',#978,#223);
#163=LINE('',#980,#224);
#164=LINE('',#982,#225);
#165=LINE('',#983,#226);
#166=LINE('',#986,#227);
#167=LINE('',#988,#228);
#168=LINE('',#990,#229);
#169=LINE('',#991,#230);
#170=LINE('',#994,#231);
#171=LINE('',#996,#232);
#172=LINE('',#998,#233);
#173=LINE('',#999,#234);
#174=LINE('',#1014,#235);
#175=LINE('',#1015,#236);
#176=LINE('',#1018,#237);
#177=LINE('',#1019,#238);
#178=LINE('',#1026,#239);
#179=LINE('',#1027,#240);
#180=LINE('',#1029,#241);
#181=LINE('',#1032,#242);
#182=LINE('',#1038,#243);
#183=LINE('',#1044,#244);
#184=LINE('',#1049,#245);
#185=LINE('',#1055,#246);
#186=LINE('',#1060,#247);
#187=LINE('',#1066,#248);
#188=LINE('',#1071,#249);
#189=LINE('',#1077,#250);
#190=LINE('',#1081,#251);
#191=LINE('',#1082,#252);
#192=LINE('',#1083,#253);
#193=LINE('',#1086,#254);
#194=LINE('',#1087,#255);
#195=LINE('',#1090,#256);
#196=LINE('',#1091,#257);
#197=LINE('',#1093,#258);
#198=LINE('',#1098,#259);
#199=LINE('',#1099,#260);
#200=LINE('',#1100,#261);
#201=LINE('',#1103,#262);
#202=LINE('',#1104,#263);
#203=LINE('',#1107,#264);
#204=LINE('',#1108,#265);
#205=LINE('',#1110,#266);
#206=LINE('',#1115,#267);
#207=LINE('',#1116,#268);
#208=LINE('',#1117,#269);
#209=LINE('',#1120,#270);
#210=LINE('',#1121,#271);
#211=LINE('',#1124,#272);
#212=LINE('',#1125,#273);
#213=LINE('',#1127,#274);
#214=LINE('',#1130,#275);
#215=VECTOR('',#760,10.);
#216=VECTOR('',#763,10.);
#217=VECTOR('',#766,10.);
#218=VECTOR('',#767,10.);
#219=VECTOR('',#768,10.);
#220=VECTOR('',#771,10.);
#221=VECTOR('',#774,10.);
#222=VECTOR('',#777,10.);
#223=VECTOR('',#780,10.);
#224=VECTOR('',#781,10.);
#225=VECTOR('',#782,10.);
#226=VECTOR('',#783,10.);
#227=VECTOR('',#784,10.);
#228=VECTOR('',#785,10.);
#229=VECTOR('',#786,10.);
#230=VECTOR('',#787,10.);
#231=VECTOR('',#788,10.);
#232=VECTOR('',#789,10.);
#233=VECTOR('',#790,10.);
#234=VECTOR('',#791,10.);
#235=VECTOR('',#806,10.);
#236=VECTOR('',#807,10.);
#237=VECTOR('',#810,10.);
#238=VECTOR('',#811,10.);
#239=VECTOR('',#820,10.);
#240=VECTOR('',#821,10.);
#241=VECTOR('',#824,10.);
#242=VECTOR('',#827,8.00000000000001);
#243=VECTOR('',#834,2.6);
#244=VECTOR('',#843,1.40000000000001);
#245=VECTOR('',#848,2.60000000000002);
#246=VECTOR('',#857,1.40000000000001);
#247=VECTOR('',#862,2.6);
#248=VECTOR('',#871,1.40000000000001);
#249=VECTOR('',#876,2.60000000000002);
#250=VECTOR('',#885,1.40000000000001);
#251=VECTOR('',#888,10.);
#252=VECTOR('',#889,10.);
#253=VECTOR('',#890,10.);
#254=VECTOR('',#893,10.);
#255=VECTOR('',#894,10.);
#256=VECTOR('',#897,10.);
#257=VECTOR('',#898,10.);
#258=VECTOR('',#901,10.);
#259=VECTOR('',#906,10.);
#260=VECTOR('',#907,10.);
#261=VECTOR('',#908,10.);
#262=VECTOR('',#911,10.);
#263=VECTOR('',#912,10.);
#264=VECTOR('',#915,10.);
#265=VECTOR('',#916,10.);
#266=VECTOR('',#919,10.);
#267=VECTOR('',#924,10.);
#268=VECTOR('',#925,10.);
#269=VECTOR('',#926,10.);
#270=VECTOR('',#929,10.);
#271=VECTOR('',#930,10.);
#272=VECTOR('',#933,10.);
#273=VECTOR('',#934,10.);
#274=VECTOR('',#937,10.);
#275=VECTOR('',#942,10.);
#276=CIRCLE('',#688,3.);
#277=CIRCLE('',#689,3.);
#278=CIRCLE('',#692,3.);
#279=CIRCLE('',#693,3.);
#280=CIRCLE('',#694,3.);
#281=CIRCLE('',#695,1.40000000000001);
#282=CIRCLE('',#696,1.40000000000001);
#283=CIRCLE('',#697,1.40000000000001);
#284=CIRCLE('',#698,1.40000000000001);
#285=CIRCLE('',#699,8.00000000000001);
#286=CIRCLE('',#701,3.);
#287=CIRCLE('',#704,3.);
#288=CIRCLE('',#706,3.);
#289=CIRCLE('',#709,8.00000000000001);
#290=CIRCLE('',#711,2.6);
#291=CIRCLE('',#712,2.6);
#292=CIRCLE('',#714,1.40000000000001);
#293=CIRCLE('',#717,2.60000000000002);
#294=CIRCLE('',#718,2.60000000000002);
#295=CIRCLE('',#720,1.40000000000001);
#296=CIRCLE('',#723,2.6);
#297=CIRCLE('',#724,2.6);
#298=CIRCLE('',#726,1.40000000000001);
#299=CIRCLE('',#729,2.60000000000002);
#300=CIRCLE('',#730,2.60000000000002);
#301=CIRCLE('',#732,1.40000000000001);
#302=VERTEX_POINT('',#950);
#303=VERTEX_POINT('',#951);
#304=VERTEX_POINT('',#953);
#305=VERTEX_POINT('',#955);
#306=VERTEX_POINT('',#959);
#307=VERTEX_POINT('',#961);
#308=VERTEX_POINT('',#965);
#309=VERTEX_POINT('',#967);
#310=VERTEX_POINT('',#969);
#311=VERTEX_POINT('',#971);
#312=VERTEX_POINT('',#973);
#313=VERTEX_POINT('',#976);
#314=VERTEX_POINT('',#977);
#315=VERTEX_POINT('',#979);
#316=VERTEX_POINT('',#981);
#317=VERTEX_POINT('',#984);
#318=VERTEX_POINT('',#985);
#319=VERTEX_POINT('',#987);
#320=VERTEX_POINT('',#989);
#321=VERTEX_POINT('',#992);
#322=VERTEX_POINT('',#993);
#323=VERTEX_POINT('',#995);
#324=VERTEX_POINT('',#997);
#325=VERTEX_POINT('',#1000);
#326=VERTEX_POINT('',#1002);
#327=VERTEX_POINT('',#1004);
#328=VERTEX_POINT('',#1006);
#329=VERTEX_POINT('',#1008);
#330=VERTEX_POINT('',#1011);
#331=VERTEX_POINT('',#1012);
#332=VERTEX_POINT('',#1017);
#333=VERTEX_POINT('',#1023);
#334=VERTEX_POINT('',#1024);
#335=VERTEX_POINT('',#1031);
#336=VERTEX_POINT('',#1035);
#337=VERTEX_POINT('',#1037);
#338=VERTEX_POINT('',#1041);
#339=VERTEX_POINT('',#1046);
#340=VERTEX_POINT('',#1048);
#341=VERTEX_POINT('',#1052);
#342=VERTEX_POINT('',#1057);
#343=VERTEX_POINT('',#1059);
#344=VERTEX_POINT('',#1063);
#345=VERTEX_POINT('',#1068);
#346=VERTEX_POINT('',#1070);
#347=VERTEX_POINT('',#1074);
#348=VERTEX_POINT('',#1079);
#349=VERTEX_POINT('',#1080);
#350=VERTEX_POINT('',#1085);
#351=VERTEX_POINT('',#1089);
#352=VERTEX_POINT('',#1096);
#353=VERTEX_POINT('',#1097);
#354=VERTEX_POINT('',#1102);
#355=VERTEX_POINT('',#1106);
#356=VERTEX_POINT('',#1113);
#357=VERTEX_POINT('',#1114);
#358=VERTEX_POINT('',#1119);
#359=VERTEX_POINT('',#1123);
#360=EDGE_CURVE('',#302,#303,#276,.T.);
#361=EDGE_CURVE('',#303,#304,#154,.T.);
#362=EDGE_CURVE('',#304,#305,#277,.T.);
#363=EDGE_CURVE('',#305,#302,#155,.T.);
#364=EDGE_CURVE('',#305,#306,#156,.T.);
#365=EDGE_CURVE('',#307,#306,#157,.T.);
#366=EDGE_CURVE('',#302,#307,#158,.T.);
#367=EDGE_CURVE('',#308,#304,#159,.T.);
#368=EDGE_CURVE('',#309,#308,#278,.T.);
#369=EDGE_CURVE('',#310,#309,#160,.T.);
#370=EDGE_CURVE('',#311,#310,#279,.T.);
#371=EDGE_CURVE('',#312,#311,#161,.T.);
#372=EDGE_CURVE('',#306,#312,#280,.T.);
#373=EDGE_CURVE('',#313,#314,#162,.T.);
#374=EDGE_CURVE('',#314,#315,#163,.T.);
#375=EDGE_CURVE('',#315,#316,#164,.T.);
#376=EDGE_CURVE('',#316,#313,#165,.T.);
#377=EDGE_CURVE('',#317,#318,#166,.T.);
#378=EDGE_CURVE('',#318,#319,#167,.T.);
#379=EDGE_CURVE('',#319,#320,#168,.T.);
#380=EDGE_CURVE('',#320,#317,#169,.T.);
#381=EDGE_CURVE('',#321,#322,#170,.T.);
#382=EDGE_CURVE('',#322,#323,#171,.T.);
#383=EDGE_CURVE('',#323,#324,#172,.T.);
#384=EDGE_CURVE('',#324,#321,#173,.T.);
#385=EDGE_CURVE('',#325,#325,#281,.T.);
#386=EDGE_CURVE('',#326,#326,#282,.T.);
#387=EDGE_CURVE('',#327,#327,#283,.T.);
#388=EDGE_CURVE('',#328,#328,#284,.T.);
#389=EDGE_CURVE('',#329,#329,#285,.T.);
#390=EDGE_CURVE('',#330,#331,#286,.T.);
#391=EDGE_CURVE('',#331,#311,#174,.T.);
#392=EDGE_CURVE('',#310,#330,#175,.T.);
#393=EDGE_CURVE('',#332,#331,#176,.T.);
#394=EDGE_CURVE('',#312,#332,#177,.T.);
#395=EDGE_CURVE('',#332,#307,#287,.T.);
#396=EDGE_CURVE('',#333,#334,#288,.T.);
#397=EDGE_CURVE('',#334,#309,#178,.T.);
#398=EDGE_CURVE('',#308,#333,#179,.T.);
#399=EDGE_CURVE('',#330,#334,#180,.T.);
#400=EDGE_CURVE('',#329,#335,#181,.T.);
#401=EDGE_CURVE('',#335,#335,#289,.T.);
#402=EDGE_CURVE('',#336,#336,#290,.T.);
#403=EDGE_CURVE('',#336,#337,#182,.T.);
#404=EDGE_CURVE('',#337,#337,#291,.T.);
#405=EDGE_CURVE('',#338,#338,#292,.T.);
#406=EDGE_CURVE('',#328,#338,#183,.T.);
#407=EDGE_CURVE('',#339,#339,#293,.T.);
#408=EDGE_CURVE('',#339,#340,#184,.T.);
#409=EDGE_CURVE('',#340,#340,#294,.T.);
#410=EDGE_CURVE('',#341,#341,#295,.T.);
#411=EDGE_CURVE('',#327,#341,#185,.T.);
#412=EDGE_CURVE('',#342,#342,#296,.T.);
#413=EDGE_CURVE('',#342,#343,#186,.T.);
#414=EDGE_CURVE('',#343,#343,#297,.T.);
#415=EDGE_CURVE('',#344,#344,#298,.T.);
#416=EDGE_CURVE('',#326,#344,#187,.T.);
#417=EDGE_CURVE('',#345,#345,#299,.T.);
#418=EDGE_CURVE('',#345,#346,#188,.T.);
#419=EDGE_CURVE('',#346,#346,#300,.T.);
#420=EDGE_CURVE('',#347,#347,#301,.T.);
#421=EDGE_CURVE('',#325,#347,#189,.T.);
#422=EDGE_CURVE('',#348,#349,#190,.T.);
#423=EDGE_CURVE('',#349,#322,#191,.T.);
#424=EDGE_CURVE('',#348,#321,#192,.T.);
#425=EDGE_CURVE('',#350,#348,#193,.T.);
#426=EDGE_CURVE('',#350,#324,#194,.T.);
#427=EDGE_CURVE('',#351,#350,#195,.T.);
#428=EDGE_CURVE('',#351,#323,#196,.T.);
#429=EDGE_CURVE('',#349,#351,#197,.T.);
#430=EDGE_CURVE('',#352,#353,#198,.T.);
#431=EDGE_CURVE('',#353,#318,#199,.T.);
#432=EDGE_CURVE('',#352,#317,#200,.T.);
#433=EDGE_CURVE('',#354,#352,#201,.T.);
#434=EDGE_CURVE('',#354,#320,#202,.T.);
#435=EDGE_CURVE('',#355,#354,#203,.T.);
#436=EDGE_CURVE('',#355,#319,#204,.T.);
#437=EDGE_CURVE('',#353,#355,#205,.T.);
#438=EDGE_CURVE('',#356,#357,#206,.T.);
#439=EDGE_CURVE('',#357,#314,#207,.T.);
#440=EDGE_CURVE('',#356,#313,#208,.T.);
#441=EDGE_CURVE('',#358,#356,#209,.T.);
#442=EDGE_CURVE('',#358,#316,#210,.T.);
#443=EDGE_CURVE('',#359,#358,#211,.T.);
#444=EDGE_CURVE('',#359,#315,#212,.T.);
#445=EDGE_CURVE('',#357,#359,#213,.T.);
#446=EDGE_CURVE('',#333,#303,#214,.T.);
#447=ORIENTED_EDGE('',*,*,#360,.T.);
#448=ORIENTED_EDGE('',*,*,#361,.T.);
#449=ORIENTED_EDGE('',*,*,#362,.T.);
#450=ORIENTED_EDGE('',*,*,#363,.T.);
#451=ORIENTED_EDGE('',*,*,#363,.F.);
#452=ORIENTED_EDGE('',*,*,#364,.T.);
#453=ORIENTED_EDGE('',*,*,#365,.F.);
#454=ORIENTED_EDGE('',*,*,#366,.F.);
#455=ORIENTED_EDGE('',*,*,#362,.F.);
#456=ORIENTED_EDGE('',*,*,#367,.F.);
#457=ORIENTED_EDGE('',*,*,#368,.F.);
#458=ORIENTED_EDGE('',*,*,#369,.F.);
#459=ORIENTED_EDGE('',*,*,#370,.F.);
#460=ORIENTED_EDGE('',*,*,#371,.F.);
#461=ORIENTED_EDGE('',*,*,#372,.F.);
#462=ORIENTED_EDGE('',*,*,#364,.F.);
#463=ORIENTED_EDGE('',*,*,#373,.T.);
#464=ORIENTED_EDGE('',*,*,#374,.T.);
#465=ORIENTED_EDGE('',*,*,#375,.T.);
#466=ORIENTED_EDGE('',*,*,#376,.T.);
#467=ORIENTED_EDGE('',*,*,#377,.T.);
#468=ORIENTED_EDGE('',*,*,#378,.T.);
#469=ORIENTED_EDGE('',*,*,#379,.T.);
#470=ORIENTED_EDGE('',*,*,#380,.T.);
#471=ORIENTED_EDGE('',*,*,#381,.T.);
#472=ORIENTED_EDGE('',*,*,#382,.T.);
#473=ORIENTED_EDGE('',*,*,#383,.T.);
#474=ORIENTED_EDGE('',*,*,#384,.T.);
#475=ORIENTED_EDGE('',*,*,#385,.T.);
#476=ORIENTED_EDGE('',*,*,#386,.T.);
#477=ORIENTED_EDGE('',*,*,#387,.T.);
#478=ORIENTED_EDGE('',*,*,#388,.T.);
#479=ORIENTED_EDGE('',*,*,#389,.T.);
#480=ORIENTED_EDGE('',*,*,#390,.T.);
#481=ORIENTED_EDGE('',*,*,#391,.T.);
#482=ORIENTED_EDGE('',*,*,#370,.T.);
#483=ORIENTED_EDGE('',*,*,#392,.T.);
#484=ORIENTED_EDGE('',*,*,#391,.F.);
#485=ORIENTED_EDGE('',*,*,#393,.F.);
#486=ORIENTED_EDGE('',*,*,#394,.F.);
#487=ORIENTED_EDGE('',*,*,#371,.T.);
#488=ORIENTED_EDGE('',*,*,#395,.T.);
#489=ORIENTED_EDGE('',*,*,#365,.T.);
#490=ORIENTED_EDGE('',*,*,#372,.T.);
#491=ORIENTED_EDGE('',*,*,#394,.T.);
#492=ORIENTED_EDGE('',*,*,#396,.T.);
#493=ORIENTED_EDGE('',*,*,#397,.T.);
#494=ORIENTED_EDGE('',*,*,#368,.T.);
#495=ORIENTED_EDGE('',*,*,#398,.T.);
#496=ORIENTED_EDGE('',*,*,#392,.F.);
#497=ORIENTED_EDGE('',*,*,#369,.T.);
#498=ORIENTED_EDGE('',*,*,#397,.F.);
#499=ORIENTED_EDGE('',*,*,#399,.F.);
#500=ORIENTED_EDGE('',*,*,#389,.F.);
#501=ORIENTED_EDGE('',*,*,#400,.T.);
#502=ORIENTED_EDGE('',*,*,#401,.F.);
#503=ORIENTED_EDGE('',*,*,#400,.F.);
#504=ORIENTED_EDGE('',*,*,#402,.F.);
#505=ORIENTED_EDGE('',*,*,#403,.T.);
#506=ORIENTED_EDGE('',*,*,#404,.F.);
#507=ORIENTED_EDGE('',*,*,#403,.F.);
#508=ORIENTED_EDGE('',*,*,#402,.T.);
#509=ORIENTED_EDGE('',*,*,#405,.F.);
#510=ORIENTED_EDGE('',*,*,#388,.F.);
#511=ORIENTED_EDGE('',*,*,#406,.T.);
#512=ORIENTED_EDGE('',*,*,#405,.T.);
#513=ORIENTED_EDGE('',*,*,#406,.F.);
#514=ORIENTED_EDGE('',*,*,#407,.F.);
#515=ORIENTED_EDGE('',*,*,#408,.T.);
#516=ORIENTED_EDGE('',*,*,#409,.F.);
#517=ORIENTED_EDGE('',*,*,#408,.F.);
#518=ORIENTED_EDGE('',*,*,#407,.T.);
#519=ORIENTED_EDGE('',*,*,#410,.F.);
#520=ORIENTED_EDGE('',*,*,#387,.F.);
#521=ORIENTED_EDGE('',*,*,#411,.T.);
#522=ORIENTED_EDGE('',*,*,#410,.T.);
#523=ORIENTED_EDGE('',*,*,#411,.F.);
#524=ORIENTED_EDGE('',*,*,#412,.F.);
#525=ORIENTED_EDGE('',*,*,#413,.T.);
#526=ORIENTED_EDGE('',*,*,#414,.F.);
#527=ORIENTED_EDGE('',*,*,#413,.F.);
#528=ORIENTED_EDGE('',*,*,#412,.T.);
#529=ORIENTED_EDGE('',*,*,#415,.F.);
#530=ORIENTED_EDGE('',*,*,#386,.F.);
#531=ORIENTED_EDGE('',*,*,#416,.T.);
#532=ORIENTED_EDGE('',*,*,#415,.T.);
#533=ORIENTED_EDGE('',*,*,#416,.F.);
#534=ORIENTED_EDGE('',*,*,#417,.F.);
#535=ORIENTED_EDGE('',*,*,#418,.T.);
#536=ORIENTED_EDGE('',*,*,#419,.F.);
#537=ORIENTED_EDGE('',*,*,#418,.F.);
#538=ORIENTED_EDGE('',*,*,#417,.T.);
#539=ORIENTED_EDGE('',*,*,#420,.F.);
#540=ORIENTED_EDGE('',*,*,#385,.F.);
#541=ORIENTED_EDGE('',*,*,#421,.T.);
#542=ORIENTED_EDGE('',*,*,#420,.T.);
#543=ORIENTED_EDGE('',*,*,#421,.F.);
#544=ORIENTED_EDGE('',*,*,#422,.T.);
#545=ORIENTED_EDGE('',*,*,#423,.T.);
#546=ORIENTED_EDGE('',*,*,#381,.F.);
#547=ORIENTED_EDGE('',*,*,#424,.F.);
#548=ORIENTED_EDGE('',*,*,#425,.T.);
#549=ORIENTED_EDGE('',*,*,#424,.T.);
#550=ORIENTED_EDGE('',*,*,#384,.F.);
#551=ORIENTED_EDGE('',*,*,#426,.F.);
#552=ORIENTED_EDGE('',*,*,#427,.T.);
#553=ORIENTED_EDGE('',*,*,#426,.T.);
#554=ORIENTED_EDGE('',*,*,#383,.F.);
#555=ORIENTED_EDGE('',*,*,#428,.F.);
#556=ORIENTED_EDGE('',*,*,#429,.T.);
#557=ORIENTED_EDGE('',*,*,#428,.T.);
#558=ORIENTED_EDGE('',*,*,#382,.F.);
#559=ORIENTED_EDGE('',*,*,#423,.F.);
#560=ORIENTED_EDGE('',*,*,#429,.F.);
#561=ORIENTED_EDGE('',*,*,#422,.F.);
#562=ORIENTED_EDGE('',*,*,#425,.F.);
#563=ORIENTED_EDGE('',*,*,#427,.F.);
#564=ORIENTED_EDGE('',*,*,#430,.T.);
#565=ORIENTED_EDGE('',*,*,#431,.T.);
#566=ORIENTED_EDGE('',*,*,#377,.F.);
#567=ORIENTED_EDGE('',*,*,#432,.F.);
#568=ORIENTED_EDGE('',*,*,#433,.T.);
#569=ORIENTED_EDGE('',*,*,#432,.T.);
#570=ORIENTED_EDGE('',*,*,#380,.F.);
#571=ORIENTED_EDGE('',*,*,#434,.F.);
#572=ORIENTED_EDGE('',*,*,#435,.T.);
#573=ORIENTED_EDGE('',*,*,#434,.T.);
#574=ORIENTED_EDGE('',*,*,#379,.F.);
#575=ORIENTED_EDGE('',*,*,#436,.F.);
#576=ORIENTED_EDGE('',*,*,#437,.T.);
#577=ORIENTED_EDGE('',*,*,#436,.T.);
#578=ORIENTED_EDGE('',*,*,#378,.F.);
#579=ORIENTED_EDGE('',*,*,#431,.F.);
#580=ORIENTED_EDGE('',*,*,#437,.F.);
#581=ORIENTED_EDGE('',*,*,#430,.F.);
#582=ORIENTED_EDGE('',*,*,#433,.F.);
#583=ORIENTED_EDGE('',*,*,#435,.F.);
#584=ORIENTED_EDGE('',*,*,#438,.T.);
#585=ORIENTED_EDGE('',*,*,#439,.T.);
#586=ORIENTED_EDGE('',*,*,#373,.F.);
#587=ORIENTED_EDGE('',*,*,#440,.F.);
#588=ORIENTED_EDGE('',*,*,#441,.T.);
#589=ORIENTED_EDGE('',*,*,#440,.T.);
#590=ORIENTED_EDGE('',*,*,#376,.F.);
#591=ORIENTED_EDGE('',*,*,#442,.F.);
#592=ORIENTED_EDGE('',*,*,#443,.T.);
#593=ORIENTED_EDGE('',*,*,#442,.T.);
#594=ORIENTED_EDGE('',*,*,#375,.F.);
#595=ORIENTED_EDGE('',*,*,#444,.F.);
#596=ORIENTED_EDGE('',*,*,#445,.T.);
#597=ORIENTED_EDGE('',*,*,#444,.T.);
#598=ORIENTED_EDGE('',*,*,#374,.F.);
#599=ORIENTED_EDGE('',*,*,#439,.F.);
#600=ORIENTED_EDGE('',*,*,#445,.F.);
#601=ORIENTED_EDGE('',*,*,#438,.F.);
#602=ORIENTED_EDGE('',*,*,#441,.F.);
#603=ORIENTED_EDGE('',*,*,#443,.F.);
#604=ORIENTED_EDGE('',*,*,#361,.F.);
#605=ORIENTED_EDGE('',*,*,#446,.F.);
#606=ORIENTED_EDGE('',*,*,#398,.F.);
#607=ORIENTED_EDGE('',*,*,#367,.T.);
#608=ORIENTED_EDGE('',*,*,#360,.F.);
#609=ORIENTED_EDGE('',*,*,#366,.T.);
#610=ORIENTED_EDGE('',*,*,#395,.F.);
#611=ORIENTED_EDGE('',*,*,#393,.T.);
#612=ORIENTED_EDGE('',*,*,#390,.F.);
#613=ORIENTED_EDGE('',*,*,#399,.T.);
#614=ORIENTED_EDGE('',*,*,#396,.F.);
#615=ORIENTED_EDGE('',*,*,#446,.T.);
#616=ORIENTED_EDGE('',*,*,#401,.T.);
#617=ORIENTED_EDGE('',*,*,#404,.T.);
#618=ORIENTED_EDGE('',*,*,#409,.T.);
#619=ORIENTED_EDGE('',*,*,#414,.T.);
#620=ORIENTED_EDGE('',*,*,#419,.T.);
#621=CYLINDRICAL_SURFACE('',#687,3.);
#622=CYLINDRICAL_SURFACE('',#700,3.);
#623=CYLINDRICAL_SURFACE('',#703,3.);
#624=CYLINDRICAL_SURFACE('',#705,3.);
#625=CYLINDRICAL_SURFACE('',#708,8.00000000000001);
#626=CYLINDRICAL_SURFACE('',#710,2.6);
#627=CYLINDRICAL_SURFACE('',#715,1.40000000000001);
#628=CYLINDRICAL_SURFACE('',#716,2.60000000000002);
#629=CYLINDRICAL_SURFACE('',#721,1.40000000000001);
#630=CYLINDRICAL_SURFACE('',#722,2.6);
#631=CYLINDRICAL_SURFACE('',#727,1.40000000000001);
#632=CYLINDRICAL_SURFACE('',#728,2.60000000000002);
#633=CYLINDRICAL_SURFACE('',#733,1.40000000000001);
#634=ADVANCED_FACE('',(#61),#621,.T.);
#635=ADVANCED_FACE('',(#62),#36,.T.);
#636=ADVANCED_FACE('',(#63,#19,#20,#21,#22,#23,#24,#25,#26),#37,.F.);
#637=ADVANCED_FACE('',(#64),#622,.T.);
#638=ADVANCED_FACE('',(#65),#38,.T.);
#639=ADVANCED_FACE('',(#66),#623,.T.);
#640=ADVANCED_FACE('',(#67),#624,.T.);
#641=ADVANCED_FACE('',(#68),#39,.T.);
#642=ADVANCED_FACE('',(#69),#625,.F.);
#643=ADVANCED_FACE('',(#70),#626,.F.);
#644=ADVANCED_FACE('',(#71,#27),#40,.T.);
#645=ADVANCED_FACE('',(#72),#627,.F.);
#646=ADVANCED_FACE('',(#73),#628,.F.);
#647=ADVANCED_FACE('',(#74,#28),#41,.T.);
#648=ADVANCED_FACE('',(#75),#629,.F.);
#649=ADVANCED_FACE('',(#76),#630,.F.);
#650=ADVANCED_FACE('',(#77,#29),#42,.T.);
#651=ADVANCED_FACE('',(#78),#631,.F.);
#652=ADVANCED_FACE('',(#79),#632,.F.);
#653=ADVANCED_FACE('',(#80,#30),#43,.T.);
#654=ADVANCED_FACE('',(#81),#633,.F.);
#655=ADVANCED_FACE('',(#82),#44,.T.);
#656=ADVANCED_FACE('',(#83),#45,.T.);
#657=ADVANCED_FACE('',(#84),#46,.T.);
#658=ADVANCED_FACE('',(#85),#47,.T.);
#659=ADVANCED_FACE('',(#86),#48,.F.);
#660=ADVANCED_FACE('',(#87),#49,.T.);
#661=ADVANCED_FACE('',(#88),#50,.T.);
#662=ADVANCED_FACE('',(#89),#51,.T.);
#663=ADVANCED_FACE('',(#90),#52,.T.);
#664=ADVANCED_FACE('',(#91),#53,.F.);
#665=ADVANCED_FACE('',(#92),#54,.T.);
#666=ADVANCED_FACE('',(#93),#55,.T.);
#667=ADVANCED_FACE('',(#94),#56,.T.);
#668=ADVANCED_FACE('',(#95),#57,.T.);
#669=ADVANCED_FACE('',(#96),#58,.F.);
#670=ADVANCED_FACE('',(#97),#59,.T.);
#671=ADVANCED_FACE('',(#98,#31,#32,#33,#34,#35),#60,.T.);
#672=CLOSED_SHELL('',(#634,#635,#636,#637,#638,#639,#640,#641,#642,#643,
#644,#645,#646,#647,#648,#649,#650,#651,#652,#653,#654,#655,#656,#657,#658,
#659,#660,#661,#662,#663,#664,#665,#666,#667,#668,#669,#670,#671));
#673=DERIVED_UNIT_ELEMENT(#675,1.);
#674=DERIVED_UNIT_ELEMENT(#1140,-3.);
#675=(
MASS_UNIT()
NAMED_UNIT(*)
SI_UNIT(.KILO.,.GRAM.)
);
#676=DERIVED_UNIT((#673,#674));
#677=MEASURE_REPRESENTATION_ITEM('density measure',
POSITIVE_RATIO_MEASURE(7850.),#676);
#678=PROPERTY_DEFINITION_REPRESENTATION(#683,#680);
#679=PROPERTY_DEFINITION_REPRESENTATION(#684,#681);
#680=REPRESENTATION('material name',(#682),#1137);
#681=REPRESENTATION('density',(#677),#1137);
#682=DESCRIPTIVE_REPRESENTATION_ITEM('Steel','Steel');
#683=PROPERTY_DEFINITION('material property','material name',#1152);
#684=PROPERTY_DEFINITION('material property','density of part',#1152);
#685=AXIS2_PLACEMENT_3D('',#947,#752,#753);
#686=AXIS2_PLACEMENT_3D('',#948,#754,#755);
#687=AXIS2_PLACEMENT_3D('',#949,#756,#757);
#688=AXIS2_PLACEMENT_3D('',#952,#758,#759);
#689=AXIS2_PLACEMENT_3D('',#956,#761,#762);
#690=AXIS2_PLACEMENT_3D('',#958,#764,#765);
#691=AXIS2_PLACEMENT_3D('',#964,#769,#770);
#692=AXIS2_PLACEMENT_3D('',#968,#772,#773);
#693=AXIS2_PLACEMENT_3D('',#972,#775,#776);
#694=AXIS2_PLACEMENT_3D('',#975,#778,#779);
#695=AXIS2_PLACEMENT_3D('',#1001,#792,#793);
#696=AXIS2_PLACEMENT_3D('',#1003,#794,#795);
#697=AXIS2_PLACEMENT_3D('',#1005,#796,#797);
#698=AXIS2_PLACEMENT_3D('',#1007,#798,#799);
#699=AXIS2_PLACEMENT_3D('',#1009,#800,#801);
#700=AXIS2_PLACEMENT_3D('',#1010,#802,#803);
#701=AXIS2_PLACEMENT_3D('',#1013,#804,#805);
#702=AXIS2_PLACEMENT_3D('',#1016,#808,#809);
#703=AXIS2_PLACEMENT_3D('',#1020,#812,#813);
#704=AXIS2_PLACEMENT_3D('',#1021,#814,#815);
#705=AXIS2_PLACEMENT_3D('',#1022,#816,#817);
#706=AXIS2_PLACEMENT_3D('',#1025,#818,#819);
#707=AXIS2_PLACEMENT_3D('',#1028,#822,#823);
#708=AXIS2_PLACEMENT_3D('',#1030,#825,#826);
#709=AXIS2_PLACEMENT_3D('',#1033,#828,#829);
#710=AXIS2_PLACEMENT_3D('',#1034,#830,#831);
#711=AXIS2_PLACEMENT_3D('',#1036,#832,#833);
#712=AXIS2_PLACEMENT_3D('',#1039,#835,#836);
#713=AXIS2_PLACEMENT_3D('',#1040,#837,#838);
#714=AXIS2_PLACEMENT_3D('',#1042,#839,#840);
#715=AXIS2_PLACEMENT_3D('',#1043,#841,#842);
#716=AXIS2_PLACEMENT_3D('',#1045,#844,#845);
#717=AXIS2_PLACEMENT_3D('',#1047,#846,#847);
#718=AXIS2_PLACEMENT_3D('',#1050,#849,#850);
#719=AXIS2_PLACEMENT_3D('',#1051,#851,#852);
#720=AXIS2_PLACEMENT_3D('',#1053,#853,#854);
#721=AXIS2_PLACEMENT_3D('',#1054,#855,#856);
#722=AXIS2_PLACEMENT_3D('',#1056,#858,#859);
#723=AXIS2_PLACEMENT_3D('',#1058,#860,#861);
#724=AXIS2_PLACEMENT_3D('',#1061,#863,#864);
#725=AXIS2_PLACEMENT_3D('',#1062,#865,#866);
#726=AXIS2_PLACEMENT_3D('',#1064,#867,#868);
#727=AXIS2_PLACEMENT_3D('',#1065,#869,#870);
#728=AXIS2_PLACEMENT_3D('',#1067,#872,#873);
#729=AXIS2_PLACEMENT_3D('',#1069,#874,#875);
#730=AXIS2_PLACEMENT_3D('',#1072,#877,#878);
#731=AXIS2_PLACEMENT_3D('',#1073,#879,#880);
#732=AXIS2_PLACEMENT_3D('',#1075,#881,#882);
#733=AXIS2_PLACEMENT_3D('',#1076,#883,#884);
#734=AXIS2_PLACEMENT_3D('',#1078,#886,#887);
#735=AXIS2_PLACEMENT_3D('',#1084,#891,#892);
#736=AXIS2_PLACEMENT_3D('',#1088,#895,#896);
#737=AXIS2_PLACEMENT_3D('',#1092,#899,#900);
#738=AXIS2_PLACEMENT_3D('',#1094,#902,#903);
#739=AXIS2_PLACEMENT_3D('',#1095,#904,#905);
#740=AXIS2_PLACEMENT_3D('',#1101,#909,#910);
#741=AXIS2_PLACEMENT_3D('',#1105,#913,#914);
#742=AXIS2_PLACEMENT_3D('',#1109,#917,#918);
#743=AXIS2_PLACEMENT_3D('',#1111,#920,#921);
#744=AXIS2_PLACEMENT_3D('',#1112,#922,#923);
#745=AXIS2_PLACEMENT_3D('',#1118,#927,#928);
#746=AXIS2_PLACEMENT_3D('',#1122,#931,#932);
#747=AXIS2_PLACEMENT_3D('',#1126,#935,#936);
#748=AXIS2_PLACEMENT_3D('',#1128,#938,#939);
#749=AXIS2_PLACEMENT_3D('',#1129,#940,#941);
#750=AXIS2_PLACEMENT_3D('',#1131,#943,#944);
#751=AXIS2_PLACEMENT_3D('',#1132,#945,#946);
#752=DIRECTION('axis',(0.,0.,1.));
#753=DIRECTION('refdir',(1.,0.,0.));
#754=DIRECTION('axis',(0.,0.,1.));
#755=DIRECTION('refdir',(1.,0.,0.));
#756=DIRECTION('center_axis',(0.,0.,1.));
#757=DIRECTION('ref_axis',(0.707106781186543,-0.707106781186552,0.));
#758=DIRECTION('center_axis',(0.,0.,-1.));
#759=DIRECTION('ref_axis',(0.707106781186543,-0.707106781186552,0.));
#760=DIRECTION('',(0.,0.,-1.));
#761=DIRECTION('center_axis',(0.,0.,1.));
#762=DIRECTION('ref_axis',(0.707106781186543,-0.707106781186552,0.));
#763=DIRECTION('',(0.,0.,1.));
#764=DIRECTION('center_axis',(1.,0.,0.));
#765=DIRECTION('ref_axis',(0.,1.,0.));
#766=DIRECTION('',(0.,1.,0.));
#767=DIRECTION('',(0.,0.,-1.));
#768=DIRECTION('',(0.,1.,0.));
#769=DIRECTION('center_axis',(0.,0.,1.));
#770=DIRECTION('ref_axis',(1.,0.,0.));
#771=DIRECTION('',(1.,0.,0.));
#772=DIRECTION('center_axis',(0.,0.,1.));
#773=DIRECTION('ref_axis',(-0.707106781186548,-0.707106781186548,0.));
#774=DIRECTION('',(0.,-1.,0.));
#775=DIRECTION('center_axis',(0.,0.,1.));
#776=DIRECTION('ref_axis',(-0.707106781186549,0.707106781186546,0.));
#777=DIRECTION('',(-1.,-9.73879846162417E-17,0.));
#778=DIRECTION('center_axis',(0.,0.,1.));
#779=DIRECTION('ref_axis',(0.707106781186543,0.707106781186552,0.));
#780=DIRECTION('',(-1.,0.,0.));
#781=DIRECTION('',(0.,-1.,0.));
#782=DIRECTION('',(1.,0.,0.));
#783=DIRECTION('',(0.,1.,0.));
#784=DIRECTION('',(-1.,0.,0.));
#785=DIRECTION('',(0.,-1.,0.));
#786=DIRECTION('',(1.,0.,0.));
#787=DIRECTION('',(0.,1.,0.));
#788=DIRECTION('',(-1.,0.,0.));
#789=DIRECTION('',(0.,-1.,0.));
#790=DIRECTION('',(1.,0.,0.));
#791=DIRECTION('',(0.,1.,0.));
#792=DIRECTION('center_axis',(0.,0.,1.));
#793=DIRECTION('ref_axis',(1.,0.,0.));
#794=DIRECTION('center_axis',(0.,0.,1.));
#795=DIRECTION('ref_axis',(1.,0.,0.));
#796=DIRECTION('center_axis',(0.,0.,1.));
#797=DIRECTION('ref_axis',(1.,0.,0.));
#798=DIRECTION('center_axis',(0.,0.,1.));
#799=DIRECTION('ref_axis',(1.,0.,0.));
#800=DIRECTION('center_axis',(0.,0.,1.));
#801=DIRECTION('ref_axis',(1.,0.,0.));
#802=DIRECTION('center_axis',(0.,0.,1.));
#803=DIRECTION('ref_axis',(-0.707106781186549,0.707106781186546,0.));
#804=DIRECTION('center_axis',(0.,0.,-1.));
#805=DIRECTION('ref_axis',(-0.707106781186549,0.707106781186546,0.));
#806=DIRECTION('',(0.,0.,-1.));
#807=DIRECTION('',(0.,0.,1.));
#808=DIRECTION('center_axis',(-9.73879846162417E-17,1.,0.));
#809=DIRECTION('ref_axis',(-1.,-9.73879846162417E-17,0.));
#810=DIRECTION('',(-1.,-9.73879846162417E-17,0.));
#811=DIRECTION('',(0.,0.,1.));
#812=DIRECTION('center_axis',(0.,0.,1.));
#813=DIRECTION('ref_axis',(0.707106781186543,0.707106781186552,0.));
#814=DIRECTION('center_axis',(0.,0.,-1.));
#815=DIRECTION('ref_axis',(0.707106781186543,0.707106781186552,0.));
#816=DIRECTION('center_axis',(0.,0.,1.));
#817=DIRECTION('ref_axis',(-0.707106781186548,-0.707106781186548,0.));
#818=DIRECTION('center_axis',(0.,0.,-1.));
#819=DIRECTION('ref_axis',(-0.707106781186548,-0.707106781186548,0.));
#820=DIRECTION('',(0.,0.,-1.));
#821=DIRECTION('',(0.,0.,1.));
#822=DIRECTION('center_axis',(-1.,0.,0.));
#823=DIRECTION('ref_axis',(0.,-1.,0.));
#824=DIRECTION('',(0.,-1.,0.));
#825=DIRECTION('center_axis',(0.,0.,1.));
#826=DIRECTION('ref_axis',(1.,0.,0.));
#827=DIRECTION('',(0.,0.,1.));
#828=DIRECTION('center_axis',(0.,0.,-1.));
#829=DIRECTION('ref_axis',(1.,0.,0.));
#830=DIRECTION('center_axis',(0.,0.,1.));
#831=DIRECTION('ref_axis',(1.,0.,0.));
#832=DIRECTION('center_axis',(0.,0.,1.));
#833=DIRECTION('ref_axis',(1.,0.,0.));
#834=DIRECTION('',(0.,0.,1.));
#835=DIRECTION('center_axis',(0.,0.,-1.));
#836=DIRECTION('ref_axis',(1.,0.,0.));
#837=DIRECTION('center_axis',(0.,0.,1.));
#838=DIRECTION('ref_axis',(1.,0.,0.));
#839=DIRECTION('center_axis',(0.,0.,1.));
#840=DIRECTION('ref_axis',(1.,0.,0.));
#841=DIRECTION('center_axis',(0.,0.,1.));
#842=DIRECTION('ref_axis',(1.,0.,0.));
#843=DIRECTION('',(0.,0.,1.));
#844=DIRECTION('center_axis',(0.,0.,1.));
#845=DIRECTION('ref_axis',(1.,0.,0.));
#846=DIRECTION('center_axis',(0.,0.,1.));
#847=DIRECTION('ref_axis',(1.,0.,0.));
#848=DIRECTION('',(0.,0.,1.));
#849=DIRECTION('center_axis',(0.,0.,-1.));
#850=DIRECTION('ref_axis',(1.,0.,0.));
#851=DIRECTION('center_axis',(0.,0.,1.));
#852=DIRECTION('ref_axis',(1.,0.,0.));
#853=DIRECTION('center_axis',(0.,0.,1.));
#854=DIRECTION('ref_axis',(1.,0.,0.));
#855=DIRECTION('center_axis',(0.,0.,1.));
#856=DIRECTION('ref_axis',(1.,0.,0.));
#857=DIRECTION('',(0.,0.,1.));
#858=DIRECTION('center_axis',(0.,0.,1.));
#859=DIRECTION('ref_axis',(1.,0.,0.));
#860=DIRECTION('center_axis',(0.,0.,1.));
#861=DIRECTION('ref_axis',(1.,0.,0.));
#862=DIRECTION('',(0.,0.,1.));
#863=DIRECTION('center_axis',(0.,0.,-1.));
#864=DIRECTION('ref_axis',(1.,0.,0.));
#865=DIRECTION('center_axis',(0.,0.,1.));
#866=DIRECTION('ref_axis',(1.,0.,0.));
#867=DIRECTION('center_axis',(0.,0.,1.));
#868=DIRECTION('ref_axis',(1.,0.,0.));
#869=DIRECTION('center_axis',(0.,0.,1.));
#870=DIRECTION('ref_axis',(1.,0.,0.));
#871=DIRECTION('',(0.,0.,1.));
#872=DIRECTION('center_axis',(0.,0.,1.));
#873=DIRECTION('ref_axis',(1.,0.,0.));
#874=DIRECTION('center_axis',(0.,0.,1.));
#875=DIRECTION('ref_axis',(1.,0.,0.));
#876=DIRECTION('',(0.,0.,1.));
#877=DIRECTION('center_axis',(0.,0.,-1.));
#878=DIRECTION('ref_axis',(1.,0.,0.));
#879=DIRECTION('center_axis',(0.,0.,1.));
#880=DIRECTION('ref_axis',(1.,0.,0.));
#881=DIRECTION('center_axis',(0.,0.,1.));
#882=DIRECTION('ref_axis',(1.,0.,0.));
#883=DIRECTION('center_axis',(0.,0.,1.));
#884=DIRECTION('ref_axis',(1.,0.,0.));
#885=DIRECTION('',(0.,0.,1.));
#886=DIRECTION('center_axis',(0.,1.,0.));
#887=DIRECTION('ref_axis',(-1.,0.,0.));
#888=DIRECTION('',(-1.,0.,0.));
#889=DIRECTION('',(0.,0.,1.));
#890=DIRECTION('',(0.,0.,1.));
#891=DIRECTION('center_axis',(1.,0.,0.));
#892=DIRECTION('ref_axis',(0.,1.,0.));
#893=DIRECTION('',(0.,1.,0.));
#894=DIRECTION('',(0.,0.,1.));
#895=DIRECTION('center_axis',(0.,-1.,0.));
#896=DIRECTION('ref_axis',(1.,0.,0.));
#897=DIRECTION('',(1.,0.,0.));
#898=DIRECTION('',(0.,0.,1.));
#899=DIRECTION('center_axis',(-1.,0.,0.));
#900=DIRECTION('ref_axis',(0.,-1.,0.));
#901=DIRECTION('',(0.,-1.,0.));
#902=DIRECTION('center_axis',(0.,0.,1.));
#903=DIRECTION('ref_axis',(1.,0.,0.));
#904=DIRECTION('center_axis',(0.,1.,0.));
#905=DIRECTION('ref_axis',(-1.,0.,0.));
#906=DIRECTION('',(-1.,0.,0.));
#907=DIRECTION('',(0.,0.,1.));
#908=DIRECTION('',(0.,0.,1.));
#909=DIRECTION('center_axis',(1.,0.,0.));
#910=DIRECTION('ref_axis',(0.,1.,0.));
#911=DIRECTION('',(0.,1.,0.));
#912=DIRECTION('',(0.,0.,1.));
#913=DIRECTION('center_axis',(0.,-1.,0.));
#914=DIRECTION('ref_axis',(1.,0.,0.));
#915=DIRECTION('',(1.,0.,0.));
#916=DIRECTION('',(0.,0.,1.));
#917=DIRECTION('center_axis',(-1.,0.,0.));
#918=DIRECTION('ref_axis',(0.,-1.,0.));
#919=DIRECTION('',(0.,-1.,0.));
#920=DIRECTION('center_axis',(0.,0.,1.));
#921=DIRECTION('ref_axis',(1.,0.,0.));
#922=DIRECTION('center_axis',(0.,1.,0.));
#923=DIRECTION('ref_axis',(-1.,0.,0.));
#924=DIRECTION('',(-1.,0.,0.));
#925=DIRECTION('',(0.,0.,1.));
#926=DIRECTION('',(0.,0.,1.));
#927=DIRECTION('center_axis',(1.,0.,0.));
#928=DIRECTION('ref_axis',(0.,1.,0.));
#929=DIRECTION('',(0.,1.,0.));
#930=DIRECTION('',(0.,0.,1.));
#931=DIRECTION('center_axis',(0.,-1.,0.));
#932=DIRECTION('ref_axis',(1.,0.,0.));
#933=DIRECTION('',(1.,0.,0.));
#934=DIRECTION('',(0.,0.,1.));
#935=DIRECTION('center_axis',(-1.,0.,0.));
#936=DIRECTION('ref_axis',(0.,-1.,0.));
#937=DIRECTION('',(0.,-1.,0.));
#938=DIRECTION('center_axis',(0.,0.,1.));
#939=DIRECTION('ref_axis',(1.,0.,0.));
#940=DIRECTION('center_axis',(0.,-1.,0.));
#941=DIRECTION('ref_axis',(1.,0.,0.));
#942=DIRECTION('',(1.,0.,0.));
#943=DIRECTION('center_axis',(0.,0.,1.));
#944=DIRECTION('ref_axis',(1.,0.,0.));
#945=DIRECTION('',(0.,0.,1.));
#946=DIRECTION('',(1.,0.,0.));
#947=CARTESIAN_POINT('',(0.,0.,0.));
#948=CARTESIAN_POINT('',(0.,0.,0.));
#949=CARTESIAN_POINT('Origin',(189.3,-120.3,30.2));
#950=CARTESIAN_POINT('',(192.3,-120.3,32.6));
#951=CARTESIAN_POINT('',(189.3,-123.3,32.6));
#952=CARTESIAN_POINT('Origin',(189.3,-120.3,32.6));
#953=CARTESIAN_POINT('',(189.3,-123.3,30.2));
#954=CARTESIAN_POINT('',(189.3,-123.3,30.2));
#955=CARTESIAN_POINT('',(192.3,-120.3,30.2));
#956=CARTESIAN_POINT('Origin',(189.3,-120.3,30.2));
#957=CARTESIAN_POINT('',(192.3,-120.3,30.2));
#958=CARTESIAN_POINT('Origin',(192.3,-123.3,30.2));
#959=CARTESIAN_POINT('',(192.3,-40.2,30.2));
#960=CARTESIAN_POINT('',(192.3,-123.3,30.2));
#961=CARTESIAN_POINT('',(192.3,-40.2,32.6));
#962=CARTESIAN_POINT('',(192.3,-40.2,30.2));
#963=CARTESIAN_POINT('',(192.3,-123.3,32.6));
#964=CARTESIAN_POINT('Origin',(169.5,-80.25,30.2));
#965=CARTESIAN_POINT('',(149.7,-123.3,30.2));
#966=CARTESIAN_POINT('',(146.7,-123.3,30.2));
#967=CARTESIAN_POINT('',(146.7,-120.3,30.2));
#968=CARTESIAN_POINT('Origin',(149.7,-120.3,30.2));
#969=CARTESIAN_POINT('',(146.7,-40.2,30.2));
#970=CARTESIAN_POINT('',(146.7,-37.2,30.2));
#971=CARTESIAN_POINT('',(149.7,-37.2,30.2));
#972=CARTESIAN_POINT('Origin',(149.7,-40.2,30.2));
#973=CARTESIAN_POINT('',(189.3,-37.2,30.2));
#974=CARTESIAN_POINT('',(192.3,-37.2,30.2));
#975=CARTESIAN_POINT('Origin',(189.3,-40.2,30.2));
#976=CARTESIAN_POINT('',(189.75,-119.1,30.2));
#977=CARTESIAN_POINT('',(149.25,-119.1,30.2));
#978=CARTESIAN_POINT('',(179.625,-119.1,30.2));
#979=CARTESIAN_POINT('',(149.25,-120.75,30.2));
#980=CARTESIAN_POINT('',(149.25,-99.675,30.2));
#981=CARTESIAN_POINT('',(189.75,-120.75,30.2));
#982=CARTESIAN_POINT('',(159.375,-120.75,30.2));
#983=CARTESIAN_POINT('',(189.75,-100.5,30.2));
#984=CARTESIAN_POINT('',(155.,-39.75,30.2));
#985=CARTESIAN_POINT('',(149.25,-39.75,30.2));
#986=CARTESIAN_POINT('',(162.25,-39.75,30.2));
#987=CARTESIAN_POINT('',(149.25,-41.4,30.2));
#988=CARTESIAN_POINT('',(149.25,-60.,30.2));
#989=CARTESIAN_POINT('',(155.,-41.4,30.2));
#990=CARTESIAN_POINT('',(159.375,-41.4,30.2));
#991=CARTESIAN_POINT('',(155.,-60.825,30.2));
#992=CARTESIAN_POINT('',(189.75,-39.75,30.2));
#993=CARTESIAN_POINT('',(184.,-39.75,30.2));
#994=CARTESIAN_POINT('',(179.625,-39.75,30.2));
#995=CARTESIAN_POINT('',(184.,-41.4,30.2));
#996=CARTESIAN_POINT('',(184.,-60.,30.2));
#997=CARTESIAN_POINT('',(189.75,-41.4,30.2));
#998=CARTESIAN_POINT('',(176.75,-41.4,30.2));
#999=CARTESIAN_POINT('',(189.75,-60.825,30.2));
#1000=CARTESIAN_POINT('',(186.,-60.,30.2));
#1001=CARTESIAN_POINT('Origin',(187.4,-60.,30.2));
#1002=CARTESIAN_POINT('',(150.2,-60.,30.2));
#1003=CARTESIAN_POINT('Origin',(151.6,-60.,30.2));
#1004=CARTESIAN_POINT('',(186.,-110.,30.2));
#1005=CARTESIAN_POINT('Origin',(187.4,-110.,30.2));
#1006=CARTESIAN_POINT('',(150.2,-110.,30.2));
#1007=CARTESIAN_POINT('Origin',(151.6,-110.,30.2));
#1008=CARTESIAN_POINT('',(175.,-90.1,30.2));
#1009=CARTESIAN_POINT('Origin',(183.,-90.1,30.2));
#1010=CARTESIAN_POINT('Origin',(149.7,-40.2,30.2));
#1011=CARTESIAN_POINT('',(146.7,-40.2,32.6));
#1012=CARTESIAN_POINT('',(149.7,-37.2,32.6));
#1013=CARTESIAN_POINT('Origin',(149.7,-40.2,32.6));
#1014=CARTESIAN_POINT('',(149.7,-37.2,30.2));
#1015=CARTESIAN_POINT('',(146.7,-40.2,30.2));
#1016=CARTESIAN_POINT('Origin',(192.3,-37.2,30.2));
#1017=CARTESIAN_POINT('',(189.3,-37.2,32.6));
#1018=CARTESIAN_POINT('',(192.3,-37.2,32.6));
#1019=CARTESIAN_POINT('',(189.3,-37.2,30.2));
#1020=CARTESIAN_POINT('Origin',(189.3,-40.2,30.2));
#1021=CARTESIAN_POINT('Origin',(189.3,-40.2,32.6));
#1022=CARTESIAN_POINT('Origin',(149.7,-120.3,30.2));
#1023=CARTESIAN_POINT('',(149.7,-123.3,32.6));
#1024=CARTESIAN_POINT('',(146.7,-120.3,32.6));
#1025=CARTESIAN_POINT('Origin',(149.7,-120.3,32.6));
#1026=CARTESIAN_POINT('',(146.7,-120.3,30.2));
#1027=CARTESIAN_POINT('',(149.7,-123.3,30.2));
#1028=CARTESIAN_POINT('Origin',(146.7,-37.2,30.2));
#1029=CARTESIAN_POINT('',(146.7,-37.2,32.6));
#1030=CARTESIAN_POINT('Origin',(183.,-90.1,30.1));
#1031=CARTESIAN_POINT('',(175.,-90.1,32.6));
#1032=CARTESIAN_POINT('',(175.,-90.1,30.1));
#1033=CARTESIAN_POINT('Origin',(183.,-90.1,32.6));
#1034=CARTESIAN_POINT('Origin',(151.6,-110.,31.1));
#1035=CARTESIAN_POINT('',(149.,-110.,31.1));
#1036=CARTESIAN_POINT('Origin',(151.6,-110.,31.1));
#1037=CARTESIAN_POINT('',(149.,-110.,32.6));
#1038=CARTESIAN_POINT('',(149.,-110.,31.1));
#1039=CARTESIAN_POINT('Origin',(151.6,-110.,32.6));
#1040=CARTESIAN_POINT('Origin',(151.6,-110.,31.1));
#1041=CARTESIAN_POINT('',(150.2,-110.,31.1));
#1042=CARTESIAN_POINT('Origin',(151.6,-110.,31.1));
#1043=CARTESIAN_POINT('Origin',(151.6,-110.,30.1));
#1044=CARTESIAN_POINT('',(150.2,-110.,30.1));
#1045=CARTESIAN_POINT('Origin',(187.4,-110.,31.1));
#1046=CARTESIAN_POINT('',(184.8,-110.,31.1));
#1047=CARTESIAN_POINT('Origin',(187.4,-110.,31.1));
#1048=CARTESIAN_POINT('',(184.8,-110.,32.6));
#1049=CARTESIAN_POINT('',(184.8,-110.,31.1));
#1050=CARTESIAN_POINT('Origin',(187.4,-110.,32.6));
#1051=CARTESIAN_POINT('Origin',(187.4,-110.,31.1));
#1052=CARTESIAN_POINT('',(186.,-110.,31.1));
#1053=CARTESIAN_POINT('Origin',(187.4,-110.,31.1));
#1054=CARTESIAN_POINT('Origin',(187.4,-110.,30.1));
#1055=CARTESIAN_POINT('',(186.,-110.,30.1));
#1056=CARTESIAN_POINT('Origin',(151.6,-60.,31.1));
#1057=CARTESIAN_POINT('',(149.,-60.,31.1));
#1058=CARTESIAN_POINT('Origin',(151.6,-60.,31.1));
#1059=CARTESIAN_POINT('',(149.,-60.,32.6));
#1060=CARTESIAN_POINT('',(149.,-60.,31.1));
#1061=CARTESIAN_POINT('Origin',(151.6,-60.,32.6));
#1062=CARTESIAN_POINT('Origin',(151.6,-60.,31.1));
#1063=CARTESIAN_POINT('',(150.2,-60.,31.1));
#1064=CARTESIAN_POINT('Origin',(151.6,-60.,31.1));
#1065=CARTESIAN_POINT('Origin',(151.6,-60.,30.1));
#1066=CARTESIAN_POINT('',(150.2,-60.,30.1));
#1067=CARTESIAN_POINT('Origin',(187.4,-60.,31.1));
#1068=CARTESIAN_POINT('',(184.8,-60.,31.1));
#1069=CARTESIAN_POINT('Origin',(187.4,-60.,31.1));
#1070=CARTESIAN_POINT('',(184.8,-60.,32.6));
#1071=CARTESIAN_POINT('',(184.8,-60.,31.1));
#1072=CARTESIAN_POINT('Origin',(187.4,-60.,32.6));
#1073=CARTESIAN_POINT('Origin',(187.4,-60.,31.1));
#1074=CARTESIAN_POINT('',(186.,-60.,31.1));
#1075=CARTESIAN_POINT('Origin',(187.4,-60.,31.1));
#1076=CARTESIAN_POINT('Origin',(187.4,-60.,30.1));
#1077=CARTESIAN_POINT('',(186.,-60.,30.1));
#1078=CARTESIAN_POINT('Origin',(189.75,-39.75,29.));
#1079=CARTESIAN_POINT('',(189.75,-39.75,29.));
#1080=CARTESIAN_POINT('',(184.,-39.75,29.));
#1081=CARTESIAN_POINT('',(189.75,-39.75,29.));
#1082=CARTESIAN_POINT('',(184.,-39.75,29.));
#1083=CARTESIAN_POINT('',(189.75,-39.75,29.));
#1084=CARTESIAN_POINT('Origin',(189.75,-41.4,29.));
#1085=CARTESIAN_POINT('',(189.75,-41.4,29.));
#1086=CARTESIAN_POINT('',(189.75,-41.4,29.));
#1087=CARTESIAN_POINT('',(189.75,-41.4,29.));
#1088=CARTESIAN_POINT('Origin',(184.,-41.4,29.));
#1089=CARTESIAN_POINT('',(184.,-41.4,29.));
#1090=CARTESIAN_POINT('',(184.,-41.4,29.));
#1091=CARTESIAN_POINT('',(184.,-41.4,29.));
#1092=CARTESIAN_POINT('Origin',(184.,-39.75,29.));
#1093=CARTESIAN_POINT('',(184.,-39.75,29.));
#1094=CARTESIAN_POINT('Origin',(186.875,-40.575,29.));
#1095=CARTESIAN_POINT('Origin',(155.,-39.75,29.));
#1096=CARTESIAN_POINT('',(155.,-39.75,29.));
#1097=CARTESIAN_POINT('',(149.25,-39.75,29.));
#1098=CARTESIAN_POINT('',(155.,-39.75,29.));
#1099=CARTESIAN_POINT('',(149.25,-39.75,29.));
#1100=CARTESIAN_POINT('',(155.,-39.75,29.));
#1101=CARTESIAN_POINT('Origin',(155.,-41.4,29.));
#1102=CARTESIAN_POINT('',(155.,-41.4,29.));
#1103=CARTESIAN_POINT('',(155.,-41.4,29.));
#1104=CARTESIAN_POINT('',(155.,-41.4,29.));
#1105=CARTESIAN_POINT('Origin',(149.25,-41.4,29.));
#1106=CARTESIAN_POINT('',(149.25,-41.4,29.));
#1107=CARTESIAN_POINT('',(149.25,-41.4,29.));
#1108=CARTESIAN_POINT('',(149.25,-41.4,29.));
#1109=CARTESIAN_POINT('Origin',(149.25,-39.75,29.));
#1110=CARTESIAN_POINT('',(149.25,-39.75,29.));
#1111=CARTESIAN_POINT('Origin',(152.125,-40.575,29.));
#1112=CARTESIAN_POINT('Origin',(189.75,-119.1,29.));
#1113=CARTESIAN_POINT('',(189.75,-119.1,29.));
#1114=CARTESIAN_POINT('',(149.25,-119.1,29.));
#1115=CARTESIAN_POINT('',(189.75,-119.1,29.));
#1116=CARTESIAN_POINT('',(149.25,-119.1,29.));
#1117=CARTESIAN_POINT('',(189.75,-119.1,29.));
#1118=CARTESIAN_POINT('Origin',(189.75,-120.75,29.));
#1119=CARTESIAN_POINT('',(189.75,-120.75,29.));
#1120=CARTESIAN_POINT('',(189.75,-120.75,29.));
#1121=CARTESIAN_POINT('',(189.75,-120.75,29.));
#1122=CARTESIAN_POINT('Origin',(149.25,-120.75,29.));
#1123=CARTESIAN_POINT('',(149.25,-120.75,29.));
#1124=CARTESIAN_POINT('',(149.25,-120.75,29.));
#1125=CARTESIAN_POINT('',(149.25,-120.75,29.));
#1126=CARTESIAN_POINT('Origin',(149.25,-119.1,29.));
#1127=CARTESIAN_POINT('',(149.25,-119.1,29.));
#1128=CARTESIAN_POINT('Origin',(169.5,-119.925,29.));
#1129=CARTESIAN_POINT('Origin',(146.7,-123.3,30.2));
#1130=CARTESIAN_POINT('',(146.7,-123.3,32.6));
#1131=CARTESIAN_POINT('Origin',(169.5,-80.25,32.6));
#1132=CARTESIAN_POINT('',(0.,0.,0.));
#1133=UNCERTAINTY_MEASURE_WITH_UNIT(LENGTH_MEASURE(0.01),#1139,
'DISTANCE_ACCURACY_VALUE',
'Maximum model space distance between geometric entities at asserted c
onnectivities');
#1134=UNCERTAINTY_MEASURE_WITH_UNIT(LENGTH_MEASURE(0.01),#1139,
'DISTANCE_ACCURACY_VALUE',
'Maximum model space distance between geometric entities at asserted c
onnectivities');
#1135=UNCERTAINTY_MEASURE_WITH_UNIT(LENGTH_MEASURE(0.01),#1139,
'DISTANCE_ACCURACY_VALUE',
'Maximum model space distance between geometric entities at asserted c
onnectivities');
#1136=(
GEOMETRIC_REPRESENTATION_CONTEXT(3)
GLOBAL_UNCERTAINTY_ASSIGNED_CONTEXT((#1133))
GLOBAL_UNIT_ASSIGNED_CONTEXT((#1139,#1141,#1142))
REPRESENTATION_CONTEXT('','3D')
);
#1137=(
GEOMETRIC_REPRESENTATION_CONTEXT(3)
GLOBAL_UNCERTAINTY_ASSIGNED_CONTEXT((#1134))
GLOBAL_UNIT_ASSIGNED_CONTEXT((#1139,#1141,#1142))
REPRESENTATION_CONTEXT('','3D')
);
#1138=(
GEOMETRIC_REPRESENTATION_CONTEXT(3)
GLOBAL_UNCERTAINTY_ASSIGNED_CONTEXT((#1135))
GLOBAL_UNIT_ASSIGNED_CONTEXT((#1139,#1141,#1142))
REPRESENTATION_CONTEXT('','3D')
);
#1139=(
LENGTH_UNIT()
NAMED_UNIT(*)
SI_UNIT(.MILLI.,.METRE.)
);
#1140=(
LENGTH_UNIT()
NAMED_UNIT(*)
SI_UNIT($,.METRE.)
);
#1141=(
NAMED_UNIT(*)
PLANE_ANGLE_UNIT()
SI_UNIT($,.RADIAN.)
);
#1142=(
NAMED_UNIT(*)
SI_UNIT($,.STERADIAN.)
SOLID_ANGLE_UNIT()
);
#1143=SHAPE_DEFINITION_REPRESENTATION(#1145,#1148);
#1144=SHAPE_DEFINITION_REPRESENTATION(#1146,#1149);
#1145=PRODUCT_DEFINITION_SHAPE('',$,#1151);
#1146=PRODUCT_DEFINITION_SHAPE('',$,#1152);
#1147=PRODUCT_DEFINITION_SHAPE($,$,#14);
#1148=SHAPE_REPRESENTATION('',(#685,#751),#1136);
#1149=SHAPE_REPRESENTATION('',(#686),#1137);
#1150=PRODUCT_DEFINITION_CONTEXT('part definition',#1158,'design');
#1151=PRODUCT_DEFINITION('OpenIEMA Assembly','OpenIEMA Assembly v1',#1153,
#1150);
#1152=PRODUCT_DEFINITION('OpenIEMA Case','OpenIEMA Case',#1154,#1150);
#1153=PRODUCT_DEFINITION_FORMATION('',$,#1160);
#1154=PRODUCT_DEFINITION_FORMATION('',$,#1161);
#1155=PRODUCT_RELATED_PRODUCT_CATEGORY('OpenIEMA Assembly v1',
'OpenIEMA Assembly v1',(#1160));
#1156=PRODUCT_RELATED_PRODUCT_CATEGORY('OpenIEMA Case','OpenIEMA Case',
(#1161));
#1157=APPLICATION_PROTOCOL_DEFINITION('international standard',
'automotive_design',2009,#1158);
#1158=APPLICATION_CONTEXT(
'Core Data for Automotive Mechanical Design Process');
#1159=PRODUCT_CONTEXT('part definition',#1158,'mechanical');
#1160=PRODUCT('OpenIEMA Assembly','OpenIEMA Assembly v1',$,(#1159));
#1161=PRODUCT('OpenIEMA Case','OpenIEMA Case',$,(#1159));
#1162=PRESENTATION_STYLE_ASSIGNMENT((#1163));
#1163=SURFACE_STYLE_USAGE(.BOTH.,#1164);
#1164=SURFACE_SIDE_STYLE('',(#1165));
#1165=SURFACE_STYLE_FILL_AREA(#1166);
#1166=FILL_AREA_STYLE('Steel - Satin',(#1167));
#1167=FILL_AREA_STYLE_COLOUR('Steel - Satin',#1168);
#1168=COLOUR_RGB('Steel - Satin',0.627450980392157,0.627450980392157,0.627450980392157);
ENDSEC;
END-ISO-10303-21;
